<?xml version="1.0" encoding="UTF-8" standalone="no"?>
<svg
   xmlns:dc="http://purl.org/dc/elements/1.1/"
   xmlns:cc="http://creativecommons.org/ns#"
   xmlns:rdf="http://www.w3.org/1999/02/22-rdf-syntax-ns#"
   xmlns:svg="http://www.w3.org/2000/svg"
   xmlns="http://www.w3.org/2000/svg"
   xmlns:sodipodi="http://sodipodi.sourceforge.net/DTD/sodipodi-0.dtd"
   xmlns:inkscape="http://www.inkscape.org/namespaces/inkscape"
   width="50px"
   height="50px"
   viewBox="0 0 50 50"
   version="1.1"
   id="svg12"
   sodipodi:docname="icon_facebook_black.svg"
   inkscape:version="0.92.3 (2405546, 2018-03-11)">
  <metadata
     id="metadata16">
    <rdf:RDF>
      <cc:Work
         rdf:about="">
        <dc:format>image/svg+xml</dc:format>
        <dc:type
           rdf:resource="http://purl.org/dc/dcmitype/StillImage" />
        <dc:title>icon_facebook</dc:title>
      </cc:Work>
    </rdf:RDF>
  </metadata>
  <sodipodi:namedview
     pagecolor="#ffffff"
     bordercolor="#666666"
     borderopacity="1"
     objecttolerance="10"
     gridtolerance="10"
     guidetolerance="10"
     inkscape:pageopacity="0"
     inkscape:pageshadow="2"
     inkscape:window-width="1920"
     inkscape:window-height="1021"
     id="namedview14"
     showgrid="false"
     inkscape:zoom="4.72"
     inkscape:cx="25.423729"
     inkscape:cy="25"
     inkscape:window-x="0"
     inkscape:window-y="0"
     inkscape:window-maximized="1"
     inkscape:current-layer="Screen" />
  <!-- Generator: Sketch 39.1 (31720) - http://www.bohemiancoding.com/sketch -->
  <title
     id="title2">icon_facebook</title>
  <desc
     id="desc4">Created with Sketch.</desc>
  <defs
     id="defs6" />
  <g
     id="Screen"
     stroke="none"
     stroke-width="1"
     fill="none"
     fill-rule="evenodd">
    <g
       id="Desktop-HD"
       transform="translate(-493.000000, -1546.000000)"
       fill="#FFFFFF">
      <g
         id="Group-3"
         transform="translate(0.000000, 1483.000000)">
        <path
           d="M493,63.998769 C493,63.4471641 493.447526,63 493.998769,63 L542.001231,63 C542.552836,63 543,63.4475257 543,63.998769 L543,112.001231 C543,112.552836 542.552474,113 542.001231,113 L493.998769,113 C493.447164,113 493,112.552474 493,112.001231 L493,63.998769 Z M533.178125,72 L503.821875,72 C502.815375,72 502,72.815375 502,73.821875 L502,103.1795 C502,104.184625 502.815375,105 503.821875,105 L519.6275,105 L519.6275,92.22075 L515.3265,92.22075 L515.3265,87.2405 L519.6275,87.2405 L519.6275,83.567875 C519.6275,79.305375 522.230375,76.984375 526.033625,76.984375 C527.8555,76.984375 529.42025,77.1205 529.87675,77.181 L529.87675,81.636 L527.2395,81.637375 C525.1715,81.637375 524.771375,82.6205 524.771375,84.0615 L524.771375,87.241875 L529.7035,87.241875 L529.061375,92.222125 L524.771375,92.222125 L524.771375,105 L533.180875,105 C534.184625,105 535,104.184625 535,103.178125 L535,73.821875 C535,72.815375 534.184625,72 533.178125,72 L533.178125,72 Z"
           id="icon_facebook"
           style="fill:#000000" />
      </g>
    </g>
  </g>
</svg>
