<?xml version="1.0" encoding="UTF-8" standalone="no"?>
<svg width="18px" height="14px" viewBox="0 0 18 14" version="1.1" xmlns="http://www.w3.org/2000/svg" xmlns:xlink="http://www.w3.org/1999/xlink">
    <!-- Generator: Sketch 39.1 (31720) - http://www.bohemiancoding.com/sketch -->
    <title>left_bracket</title>
    <desc>Created with Sketch.</desc>
    <defs></defs>
    <g id="Screen" stroke="none" stroke-width="1" fill="none" fill-rule="evenodd">
        <g id="Desktop-HD" transform="translate(-301.000000, -235.000000)" fill="#FFFFFF">
            <g id="Group" transform="translate(301.000000, 235.000000)">
                <path d="M15.36,0 L15.792,0.672 C12.8159851,2.62400976 11.328,4.57599024 11.328,6.528 C11.328,7.52000496 11.7599957,8.0959992 12.624,8.256 L14.64,6.384 C15.2800032,6.60800112 15.8639974,7.01599704 16.392,7.608 C16.9200026,8.20000296 17.184,8.95999536 17.184,9.888 C17.184,10.8160046 16.8160037,11.6079967 16.08,12.264 C15.3439963,12.9200033 14.376006,13.248 13.176,13.248 C11.975994,13.248 10.9840039,12.8400041 10.2,12.024 C9.41599608,11.2079959 9.024,10.0800072 9.024,8.64 C9.024,5.50398432 11.1359789,2.62401312 15.36,0 L15.36,0 Z M6.336,0 L6.768,0.672 C3.79198512,2.62400976 2.304,4.57599024 2.304,6.528 C2.304,7.52000496 2.73599568,8.0959992 3.6,8.256 L5.616,6.384 C6.2560032,6.60800112 6.83999736,7.01599704 7.368,7.608 C7.89600264,8.20000296 8.16,8.95999536 8.16,9.888 C8.16,10.8160046 7.79200368,11.6079967 7.056,12.264 C6.31999632,12.9200033 5.352006,13.248 4.152,13.248 C2.951994,13.248 1.96000392,12.8400041 1.176,12.024 C0.39199608,11.2079959 0,10.0800072 0,8.64 C0,5.50398432 2.11197888,2.62401312 6.336,0 L6.336,0 Z" id="left_bracket"></path>
            </g>
        </g>
    </g>
</svg>