<?xml version="1.0" encoding="UTF-8" standalone="no"?>
<!DOCTYPE svg PUBLIC "-//W3C//DTD SVG 1.1//EN" "http://www.w3.org/Graphics/SVG/1.1/DTD/svg11.dtd">
<svg width="100%" height="100%" viewBox="0 0 485 386" version="1.1" xmlns="http://www.w3.org/2000/svg" xmlns:xlink="http://www.w3.org/1999/xlink" xml:space="preserve" style="fill-rule:evenodd;clip-rule:evenodd;stroke-linejoin:round;stroke-miterlimit:1.41421;">
    <g transform="matrix(1,0,0,1,-11153,-3926)">
        <g id="logo_small" transform="matrix(1,0,0,0.795876,0,801.39)">
            <rect x="11153" y="3926" width="485" height="485" style="fill:none;"/>
            <clipPath id="_clip1">
                <rect x="11153" y="3926" width="485" height="485"/>
            </clipPath>
            <g clip-path="url(#_clip1)">
                <g transform="matrix(1.2958,0,0,0.997029,-3361.28,11.6636)">
                    <g transform="matrix(1.00502,0,0,1.64119,10136.6,1441.95)">
                        <path d="M1431.19,1530.78C1429.58,1532.45 1427.93,1534.08 1426.22,1535.64C1422.71,1538.87 1418.98,1541.87 1415.08,1544.61C1411.05,1547.43 1406.84,1549.99 1402.47,1552.27C1399.37,1553.89 1396.18,1555.38 1392.94,1556.72C1390.48,1557.74 1387.99,1558.68 1385.48,1559.54C1383.64,1560.17 1381.79,1560.76 1379.92,1561.3C1366.22,1565.33 1351.95,1567.18 1337.69,1567.51C1335.36,1567.56 1333.03,1567.57 1330.7,1567.55C1327.48,1567.51 1324.25,1567.4 1321.02,1567.22C1316.83,1566.99 1312.65,1566.65 1308.48,1566.21C1303.25,1565.65 1298.04,1564.94 1292.85,1564.09C1286.11,1562.99 1279.42,1561.65 1272.76,1560.14L1272.25,1560.02C1272.25,1584.98 1272.11,1609.93 1272.04,1634.88C1271.95,1662.29 1271.94,1689.7 1272.25,1717.1C1272.25,1717.26 1272.26,1717.42 1272.27,1717.58C1272.32,1718.44 1272.46,1719.3 1272.73,1720.13C1273.27,1721.77 1274.29,1723.21 1275.46,1724.46C1276.26,1725.33 1277.15,1726.12 1278.07,1726.85C1279.08,1727.66 1280.14,1728.4 1281.24,1729.1C1282.07,1729.63 1282.92,1730.14 1283.78,1730.63C1284.97,1731.3 1286.18,1731.93 1287.41,1732.53C1289.04,1733.32 1290.69,1734.07 1292.36,1734.77C1294.5,1735.68 1296.67,1736.52 1298.85,1737.32C1301.73,1738.38 1304.64,1739.38 1307.56,1740.33C1311.07,1741.47 1314.6,1742.55 1318.13,1743.61C1322.85,1745.03 1327.57,1746.41 1332.29,1747.81C1333.49,1748.17 1334.7,1748.53 1335.91,1748.89C1343.84,1751.3 1351.76,1753.79 1359.52,1756.72C1361.9,1757.62 1364.27,1758.56 1366.62,1759.54L1366.79,1759.61C1367.17,1759.11 1367.55,1758.61 1367.93,1758.1C1368.28,1757.64 1368.63,1757.18 1368.98,1756.73C1370.52,1754.73 1372.09,1752.76 1373.67,1750.8C1376.89,1746.84 1380.18,1742.94 1383.48,1739.05C1385.79,1736.34 1388.09,1733.64 1390.39,1730.93C1393.58,1727.18 1396.74,1723.42 1399.84,1719.6C1402.15,1716.74 1404.43,1713.86 1406.65,1710.92C1408.36,1708.65 1410.04,1706.36 1411.67,1704.03C1412.95,1702.2 1414.19,1700.35 1415.4,1698.48C1416.38,1696.95 1417.34,1695.41 1418.27,1693.84C1419.01,1692.61 1419.72,1691.37 1420.41,1690.12C1424.67,1682.38 1428.15,1674.13 1429.99,1665.47C1430.35,1663.81 1430.64,1662.13 1430.87,1660.45C1431.14,1658.44 1431.33,1656.42 1431.41,1654.39C1431.45,1653.58 1431.46,1652.76 1431.47,1651.94L1431.47,1651.68L1431.47,1530.48C1431.38,1530.58 1431.28,1530.68 1431.19,1530.78ZM1373.46,1682.38C1374.14,1682.39 1374.83,1682.41 1375.51,1682.43L1375.61,1682.44C1378.08,1682.66 1380.54,1683.04 1382.95,1683.61C1383.33,1683.7 1383.7,1683.8 1384.07,1683.89C1384.2,1683.93 1384.33,1683.96 1384.46,1684C1385.76,1684.39 1387.05,1684.84 1388.31,1685.36C1389.84,1685.99 1391.33,1686.71 1392.76,1687.53C1392.87,1687.6 1392.98,1687.67 1393.1,1687.74C1393.29,1687.86 1393.49,1687.99 1393.68,1688.11C1394.35,1688.55 1395,1689.01 1395.63,1689.5C1397.98,1691.31 1400.07,1693.5 1401.55,1696.09C1401.96,1696.8 1402.32,1697.54 1402.62,1698.31C1402.71,1698.55 1402.8,1698.79 1402.88,1699.03C1402.91,1699.12 1402.94,1699.23 1402.97,1699.32C1403.34,1700.57 1403.55,1701.86 1403.57,1703.16C1403.58,1703.7 1403.55,1704.24 1403.5,1704.78C1403.46,1705.11 1403.42,1705.45 1403.35,1705.78L1403.35,1705.79L1402.24,1707.99L1400.5,1708.97L1400.49,1708.97C1400.49,1708.97 1400.48,1708.97 1400.48,1708.97L1398.76,1708.15L1397.34,1706.08C1397.32,1706.02 1397.29,1705.97 1397.27,1705.91L1397.26,1705.88L1397.26,1705.91L1397.22,1705.82L1397.18,1705.72L1397.18,1705.75L1397.14,1705.66L1397.1,1705.57L1397.11,1705.6L1397.06,1705.51L1397.02,1705.42L1397.03,1705.46L1396.98,1705.37L1396.94,1705.28L1396.94,1705.31L1396.9,1705.23L1396.85,1705.14L1396.86,1705.17L1396.81,1705.09L1396.77,1705.01L1396.77,1705.04L1396.72,1704.96L1396.67,1704.87L1396.68,1704.91L1396.63,1704.83L1396.58,1704.75L1396.59,1704.78L1396.54,1704.7L1396.49,1704.62L1396.5,1704.66L1396.45,1704.58L1396.39,1704.5L1396.4,1704.54L1396.35,1704.46L1396.3,1704.39L1396.31,1704.42L1396.25,1704.35L1396.2,1704.28L1396.21,1704.31L1396.15,1704.24L1396.1,1704.17L1396.11,1704.2L1396.05,1704.13L1396,1704.06L1396.01,1704.1L1395.95,1704.03L1395.89,1703.96L1395.91,1704L1395.85,1703.93L1395.79,1703.86L1395.8,1703.9L1395.74,1703.83L1395.68,1703.76L1395.69,1703.8L1395.63,1703.74L1395.57,1703.67L1395.59,1703.71L1395.52,1703.64L1395.46,1703.58L1395.48,1703.62L1395.41,1703.56L1395.35,1703.49L1395.37,1703.53C1395.3,1703.47 1395.3,1703.47 1395.24,1703.41L1395.24,1703.41L1395.26,1703.44L1395.19,1703.38L1395.12,1703.32L1395.15,1703.36L1395.08,1703.3L1395.01,1703.24L1395.04,1703.28L1394.97,1703.22L1394.9,1703.16L1394.92,1703.2L1394.86,1703.14L1394.79,1703.08L1394.81,1703.12L1394.74,1703.06L1394.67,1703.01L1394.69,1703.04L1394.62,1702.99L1394.55,1702.93L1394.58,1702.97L1394.51,1702.91L1394.43,1702.86L1394.46,1702.89L1394.38,1702.84L1394.31,1702.79L1394.34,1702.83L1394.26,1702.77L1394.19,1702.72L1394.21,1702.76L1394.14,1702.7L1394.06,1702.65L1394.09,1702.69L1394.01,1702.64L1393.94,1702.59L1393.96,1702.62L1393.89,1702.58C1392.88,1702.09 1391.8,1701.78 1390.7,1701.61C1390.41,1701.56 1390.12,1701.52 1389.83,1701.49C1389.65,1701.47 1389.47,1701.45 1389.3,1701.44L1389.1,1701.43C1388.85,1701.41 1388.6,1701.4 1388.34,1701.39C1388.17,1701.39 1388.13,1701.39 1387.95,1701.39C1387.88,1701.39 1387.81,1701.39 1387.73,1701.39C1387.54,1701.38 1387.35,1701.38 1387.16,1701.38C1386.1,1701.38 1385.05,1701.44 1383.99,1701.58C1383.62,1701.63 1383.25,1701.68 1382.87,1701.75C1382.72,1701.78 1382.57,1701.81 1382.42,1701.83C1382.19,1701.86 1382.19,1701.86 1381.96,1701.9C1381.26,1702.02 1380.56,1702.16 1379.87,1702.32C1378.92,1702.55 1377.99,1702.82 1377.07,1703.12C1376.89,1703.17 1376.7,1703.22 1376.52,1703.27C1375.79,1703.49 1375.06,1703.72 1374.34,1703.98C1373.62,1704.25 1372.9,1704.54 1372.19,1704.85C1372.02,1704.91 1371.85,1704.97 1371.68,1705.03C1371.13,1705.24 1370.58,1705.46 1370.04,1705.7C1369.86,1705.76 1369.67,1705.83 1369.48,1705.9C1369.07,1706.06 1368.66,1706.22 1368.25,1706.38L1368.11,1706.44C1367.9,1706.51 1367.7,1706.58 1367.49,1706.65C1367.24,1706.74 1367.24,1706.74 1366.99,1706.83C1366.74,1706.92 1366.49,1707.02 1366.25,1707.11C1366.07,1707.17 1365.89,1707.23 1365.71,1707.29C1365.28,1707.44 1364.85,1707.6 1364.42,1707.76L1364.31,1707.81C1364.04,1707.89 1363.76,1707.98 1363.49,1708.07C1363.22,1708.16 1362.96,1708.26 1362.69,1708.35C1361.88,1708.65 1361.08,1708.98 1360.3,1709.34C1360.06,1709.42 1359.83,1709.51 1359.59,1709.61C1358.43,1710.07 1357.29,1710.59 1356.18,1711.18C1355.96,1711.28 1355.75,1711.38 1355.53,1711.49C1354.35,1712.07 1353.21,1712.71 1352.11,1713.41C1351.89,1713.54 1351.67,1713.67 1351.44,1713.8C1350.72,1714.23 1350.01,1714.69 1349.32,1715.17C1347.72,1716.3 1346.2,1717.55 1344.79,1718.91C1344.6,1719.08 1344.4,1719.26 1344.21,1719.43C1343.42,1720.17 1342.65,1720.93 1341.91,1721.73C1341.13,1722.57 1340.38,1723.45 1339.67,1724.35C1339.62,1724.41 1339.57,1724.47 1339.52,1724.54L1339.51,1724.55L1337.57,1726.1L1335.68,1726.36L1335.66,1726.36L1334.33,1724.94L1333.84,1722.52C1333.86,1721.99 1333.9,1721.47 1333.94,1720.94C1334,1720.16 1334.08,1719.38 1334.18,1718.61C1334.31,1717.49 1334.49,1716.38 1334.7,1715.28C1334.81,1714.72 1334.92,1714.15 1335.05,1713.59C1335.08,1713.49 1335.11,1713.38 1335.13,1713.28C1335.2,1713.03 1335.27,1712.79 1335.34,1712.55C1335.57,1711.74 1335.82,1710.93 1336.08,1710.13C1336.7,1708.31 1337.42,1706.53 1338.23,1704.79C1338.62,1703.96 1339.03,1703.15 1339.46,1702.35L1339.51,1702.26C1340.2,1701.09 1340.93,1699.95 1341.71,1698.84C1342.22,1698.11 1342.76,1697.39 1343.31,1696.68L1343.38,1696.59C1344.43,1695.33 1345.55,1694.12 1346.72,1692.97C1347.06,1692.63 1347.4,1692.3 1347.75,1691.98C1347.87,1691.87 1347.98,1691.76 1348.1,1691.65C1348.16,1691.6 1348.22,1691.54 1348.28,1691.49C1349.48,1690.49 1350.72,1689.54 1352,1688.64C1352.45,1688.33 1352.9,1688.03 1353.36,1687.73C1353.44,1687.68 1353.83,1687.41 1353.96,1687.34C1354.15,1687.22 1354.34,1687.12 1354.53,1687.01C1354.8,1686.86 1355.07,1686.71 1355.34,1686.56C1355.74,1686.35 1356.14,1686.13 1356.55,1685.92C1356.69,1685.85 1356.84,1685.77 1356.98,1685.71C1357.93,1685.27 1358.9,1684.87 1359.87,1684.48L1360.05,1684.41C1361.11,1684.06 1362.19,1683.74 1363.27,1683.44L1363.38,1683.41C1364.2,1683.23 1365.02,1683.06 1365.84,1682.92C1366.12,1682.87 1366.41,1682.82 1366.69,1682.77C1366.85,1682.75 1367.01,1682.72 1367.16,1682.7C1368.42,1682.56 1369.69,1682.47 1370.95,1682.42C1371.51,1682.4 1372.07,1682.39 1372.63,1682.38C1373.04,1682.38 1373.04,1682.38 1373.46,1682.38ZM1336.82,1620.23C1338.56,1620.83 1338.58,1620.84 1339.95,1622.06L1341.12,1625.68C1341.05,1626.92 1340.96,1628.15 1340.84,1629.38C1340.72,1630.53 1340.58,1631.68 1340.4,1632.82C1340.35,1633.16 1340.29,1633.49 1340.22,1633.82C1340.13,1634.33 1340.03,1634.83 1339.92,1635.34C1339.61,1636.79 1339.24,1638.23 1338.8,1639.65C1338.6,1640.29 1338.38,1640.92 1338.15,1641.55C1338.12,1641.64 1338.08,1641.73 1338.05,1641.82C1337.57,1643.02 1337.03,1644.2 1336.42,1645.34C1336.23,1645.7 1336.04,1646.06 1335.83,1646.41C1335.62,1646.76 1335.4,1647.1 1335.18,1647.43C1334.68,1648.17 1334.16,1648.89 1333.59,1649.58C1333.27,1649.97 1332.93,1650.36 1332.58,1650.73C1332.45,1650.87 1332.31,1651.01 1332.17,1651.14C1331.99,1651.32 1331.8,1651.5 1331.6,1651.68C1330.77,1652.45 1329.87,1653.15 1328.92,1653.78C1328.74,1653.9 1328.55,1654.02 1328.36,1654.14C1328.29,1654.18 1328.07,1654.3 1328.03,1654.33C1327.73,1654.5 1327.42,1654.66 1327.11,1654.81C1326.4,1655.16 1325.68,1655.46 1324.95,1655.73C1324.56,1655.87 1324.17,1655.99 1323.78,1656.11C1323.67,1656.13 1323.56,1656.16 1323.45,1656.18C1323.28,1656.22 1323.11,1656.26 1322.94,1656.29C1322.43,1656.4 1321.91,1656.48 1321.39,1656.55C1320.21,1656.7 1319.01,1656.75 1317.82,1656.7C1317.62,1656.69 1317.42,1656.67 1317.22,1656.65C1316.96,1656.62 1316.7,1656.6 1316.44,1656.56C1315.47,1656.44 1314.52,1656.25 1313.57,1656.02C1312.9,1655.85 1312.24,1655.66 1311.59,1655.44C1311.21,1655.32 1310.84,1655.17 1310.47,1655.03C1309.69,1654.72 1308.92,1654.38 1308.16,1654.01C1307.42,1653.65 1306.69,1653.27 1305.98,1652.86C1305.68,1652.69 1305.39,1652.51 1305.11,1652.33C1304.51,1651.96 1303.92,1651.57 1303.34,1651.17C1302.82,1650.82 1302.32,1650.46 1301.81,1650.09C1301.61,1649.94 1301.41,1649.79 1301.21,1649.63C1300.73,1649.26 1300.26,1648.88 1299.8,1648.49C1298.58,1647.47 1297.4,1646.4 1296.26,1645.3C1295.83,1644.89 1295.4,1644.48 1294.98,1644.05C1294.8,1643.87 1294.62,1643.69 1294.44,1643.5C1293.62,1642.64 1292.82,1641.77 1292.03,1640.87L1291.94,1640.77L1291.81,1639.98L1292.6,1639.89C1292.94,1640.05 1293.28,1640.22 1293.62,1640.38C1293.96,1640.53 1294.3,1640.69 1294.63,1640.84C1295.06,1641.03 1295.48,1641.22 1295.91,1641.41C1296.35,1641.6 1296.79,1641.8 1297.23,1641.99C1298.06,1642.34 1298.88,1642.67 1299.72,1643C1300.69,1643.37 1301.67,1643.72 1302.66,1644.04C1303.09,1644.18 1303.52,1644.31 1303.95,1644.44C1304.26,1644.54 1304.57,1644.63 1304.88,1644.72C1305.4,1644.88 1305.92,1645.02 1306.45,1645.15C1306.95,1645.28 1307.45,1645.39 1307.96,1645.5C1308.23,1645.55 1308.51,1645.61 1308.79,1645.66C1309.14,1645.73 1309.49,1645.79 1309.85,1645.85C1310.57,1645.97 1311.3,1646.06 1312.02,1646.12C1312.36,1646.14 1312.7,1646.16 1313.03,1646.17C1313.18,1646.18 1313.34,1646.18 1313.49,1646.18C1313.72,1646.19 1313.94,1646.2 1314.17,1646.2C1314.74,1646.2 1315.31,1646.17 1315.88,1646.11C1316.24,1646.07 1316.6,1646.02 1316.96,1645.95C1317.05,1645.93 1317.15,1645.91 1317.24,1645.89C1317.3,1645.88 1317.36,1645.86 1317.42,1645.85C1317.72,1645.79 1318.02,1645.73 1318.32,1645.65C1318.95,1645.48 1319.57,1645.25 1320.16,1644.95C1320.25,1644.91 1320.34,1644.87 1320.44,1644.83C1320.8,1644.66 1321.16,1644.48 1321.5,1644.26C1321.62,1644.18 1321.74,1644.1 1321.86,1644.02C1321.9,1643.99 1321.94,1643.95 1321.99,1643.92C1322.1,1643.85 1322.21,1643.78 1322.32,1643.71C1322.53,1643.55 1322.75,1643.39 1322.95,1643.22C1323.17,1643.03 1323.38,1642.84 1323.58,1642.64C1323.67,1642.55 1323.76,1642.45 1323.86,1642.36C1323.98,1642.24 1324.1,1642.12 1324.21,1641.99C1324.47,1641.72 1324.71,1641.43 1324.94,1641.14C1325.21,1640.79 1325.46,1640.43 1325.71,1640.07C1325.82,1639.91 1325.93,1639.76 1326.03,1639.59C1326.29,1639.2 1326.53,1638.8 1326.76,1638.39C1326.91,1638.11 1327.06,1637.84 1327.2,1637.55C1327.26,1637.42 1327.32,1637.29 1327.39,1637.16C1327.53,1636.88 1327.68,1636.59 1327.81,1636.3C1328.06,1635.77 1328.28,1635.25 1328.5,1634.71C1328.85,1633.84 1329.16,1632.95 1329.45,1632.05C1329.61,1631.55 1329.76,1631.04 1329.91,1630.53C1330.08,1629.95 1330.24,1629.37 1330.4,1628.79C1330.76,1627.38 1331.07,1625.96 1331.35,1624.53L1331.35,1624.52L1333.34,1621.27L1336.8,1620.23C1336.81,1620.23 1336.82,1620.23 1336.82,1620.23ZM1379.53,1610.02C1379.72,1610.19 1379.92,1610.35 1380.12,1610.52C1380.36,1610.72 1380.61,1610.91 1380.85,1611.11C1381.38,1611.52 1381.92,1611.92 1382.47,1612.31C1382.84,1612.57 1383.21,1612.82 1383.59,1613.07C1383.9,1613.28 1384.21,1613.49 1384.53,1613.69C1385.24,1614.14 1385.97,1614.56 1386.72,1614.95C1387.15,1615.18 1387.59,1615.4 1388.03,1615.6C1388.27,1615.71 1388.52,1615.82 1388.76,1615.92C1389.28,1616.15 1389.79,1616.37 1390.32,1616.57C1390.6,1616.67 1390.88,1616.77 1391.17,1616.86C1391.28,1616.9 1391.38,1616.93 1391.49,1616.97C1391.98,1617.13 1392.48,1617.28 1392.98,1617.41C1393.25,1617.48 1393.53,1617.55 1393.81,1617.61C1393.92,1617.63 1394.04,1617.65 1394.15,1617.68C1394.27,1617.7 1394.38,1617.73 1394.49,1617.75C1394.67,1617.79 1394.86,1617.83 1395.04,1617.86C1395.57,1617.96 1396.11,1618.03 1396.64,1618.08C1396.79,1618.1 1396.94,1618.12 1397.09,1618.14C1397.69,1618.22 1398.29,1618.26 1398.9,1618.27C1399.04,1618.29 1399.18,1618.3 1399.32,1618.31C1400.15,1618.37 1400.97,1618.38 1401.8,1618.33C1401.97,1618.33 1402.13,1618.32 1402.3,1618.32C1402.95,1618.29 1403.6,1618.24 1404.25,1618.15C1404.47,1618.12 1404.69,1618.09 1404.92,1618.05C1405.06,1618.02 1405.2,1618 1405.34,1617.97C1405.55,1617.93 1405.76,1617.9 1405.96,1617.86C1406.33,1617.79 1406.69,1617.72 1407.05,1617.63C1407.55,1617.51 1408.05,1617.37 1408.54,1617.22C1408.78,1617.15 1409.01,1617.07 1409.25,1616.99C1409.4,1616.94 1409.56,1616.89 1409.71,1616.84C1410.11,1616.7 1410.52,1616.56 1410.91,1616.41C1411.67,1616.11 1412.41,1615.79 1413.15,1615.44C1413.46,1615.3 1413.77,1615.16 1414.08,1615.01C1414.61,1614.75 1415.12,1614.48 1415.64,1614.2C1416.5,1613.74 1417.34,1613.24 1418.17,1612.72C1418.61,1612.44 1419.05,1612.15 1419.49,1611.86C1419.76,1611.67 1420.04,1611.49 1420.32,1611.3C1420.87,1610.93 1421.41,1610.54 1421.95,1610.15L1422.04,1610.08L1422.84,1610L1422.88,1610.79C1422.6,1611.35 1422.31,1611.9 1422.01,1612.44C1421.8,1612.83 1421.58,1613.22 1421.35,1613.61C1420.78,1614.58 1420.16,1615.54 1419.51,1616.47C1418.93,1617.32 1418.31,1618.15 1417.67,1618.96C1417.37,1619.34 1417.07,1619.72 1416.75,1620.08C1416.06,1620.87 1415.34,1621.62 1414.6,1622.35C1414.28,1622.65 1413.97,1622.94 1413.64,1623.24C1413.49,1623.37 1413.35,1623.51 1413.19,1623.64C1412.44,1624.28 1411.65,1624.88 1410.85,1625.45C1410.44,1625.74 1410.03,1626.02 1409.6,1626.29C1409.36,1626.44 1409.11,1626.6 1408.85,1626.75C1408.54,1626.93 1408.22,1627.1 1407.89,1627.27C1407.32,1627.57 1406.73,1627.86 1406.14,1628.12C1405.69,1628.32 1405.25,1628.5 1404.79,1628.67C1404.64,1628.73 1404.49,1628.79 1404.34,1628.84C1404.25,1628.88 1404.16,1628.91 1404.06,1628.94C1403.7,1629.06 1403.34,1629.17 1402.97,1629.27C1402.28,1629.45 1401.58,1629.61 1400.88,1629.75C1400.57,1629.81 1400.26,1629.87 1399.95,1629.91C1399.87,1629.93 1399.56,1629.98 1399.48,1629.99C1398.86,1630.04 1398.23,1630.08 1397.61,1630.1C1397.07,1630.11 1396.52,1630.11 1395.98,1630.09L1395.74,1630.09C1395.51,1630.08 1395.28,1630.05 1395.05,1630.03C1394.66,1629.99 1394.28,1629.95 1393.9,1629.9C1393.37,1629.82 1392.84,1629.74 1392.31,1629.64C1392.04,1629.59 1391.78,1629.54 1391.52,1629.48C1391.26,1629.42 1391,1629.35 1390.74,1629.28C1390.3,1629.16 1389.86,1629.03 1389.42,1628.89C1388.72,1628.67 1388.03,1628.43 1387.34,1628.16C1387.18,1628.1 1387.02,1628.03 1386.86,1627.96C1386.58,1627.84 1386.3,1627.71 1386.03,1627.59C1385.14,1627.18 1384.27,1626.73 1383.42,1626.25C1383.28,1626.17 1383.15,1626.09 1383.01,1626.01C1382.76,1625.85 1382.5,1625.69 1382.24,1625.53C1381.35,1624.96 1380.48,1624.35 1379.64,1623.72C1379.03,1623.26 1378.44,1622.79 1377.86,1622.3C1377.55,1622.04 1377.23,1621.77 1376.93,1621.5C1376.39,1621.01 1375.86,1620.5 1375.34,1619.98C1374.42,1619.06 1373.54,1618.11 1372.69,1617.12L1372.55,1616.95L1372.54,1616.94L1371.24,1613.35L1372.57,1610L1372.59,1609.99L1375.94,1608.7C1377.13,1609.14 1378.33,1609.58 1379.53,1610.02Z"/>
                    </g>
                    <g transform="matrix(1.00502,0,0,1.64119,10137.4,1465.56)">
                        <path d="M1166.47,1499.18C1165.11,1499.19 1163.75,1499.21 1162.4,1499.26C1159.88,1499.35 1157.36,1499.52 1154.86,1499.77C1149.03,1500.34 1143.24,1501.36 1137.58,1502.86C1131.61,1504.44 1125.79,1506.57 1120.21,1509.21C1116.5,1510.97 1112.91,1512.96 1109.44,1515.15C1107.07,1516.64 1104.77,1518.23 1102.53,1519.9C1100.96,1521.07 1099.43,1522.28 1097.93,1523.52C1087.59,1532.11 1078.79,1542.45 1071.27,1553.57C1070.02,1555.42 1068.8,1557.29 1067.62,1559.18C1066.14,1561.55 1064.7,1563.95 1063.32,1566.39C1061.62,1569.37 1059.99,1572.39 1058.43,1575.44L1058.31,1575.68C1068.51,1620.75 1078.48,1665.87 1088.92,1710.88C1089.01,1711.22 1089.09,1711.57 1089.18,1711.92C1089.52,1713.3 1089.9,1714.67 1090.32,1716.03C1091.09,1718.54 1091.99,1721 1093.01,1723.42C1094.03,1725.81 1095.16,1728.16 1096.4,1730.44C1097.32,1732.12 1098.29,1733.77 1099.32,1735.38C1104.82,1744.04 1111.85,1751.67 1119.62,1758.33C1120.91,1759.43 1122.21,1760.51 1123.54,1761.56C1125.03,1762.74 1126.55,1763.89 1128.08,1765.02C1130.1,1766.5 1132.16,1767.92 1134.26,1769.3C1137.03,1771.14 1139.86,1772.89 1142.74,1774.56C1146.33,1776.65 1150,1778.63 1153.71,1780.5C1158.52,1782.92 1163.42,1785.16 1168.38,1787.26C1172.57,1789.02 1176.81,1790.68 1181.09,1792.24C1183.29,1793.04 1185.5,1793.81 1187.71,1794.56L1188.12,1794.7C1195.73,1787.73 1203.1,1780.49 1210.15,1772.95C1215.66,1767.06 1220.97,1760.99 1226.03,1754.72C1229.86,1749.96 1233.54,1745.09 1237.03,1740.09C1239.63,1736.37 1242.12,1732.58 1244.49,1728.7C1246.3,1725.74 1248.04,1722.73 1249.69,1719.67C1250.9,1717.41 1252.08,1715.13 1253.19,1712.82C1254.13,1710.87 1255.04,1708.89 1255.9,1706.91C1260.27,1696.8 1263.54,1686.16 1264.96,1675.23C1265.15,1673.81 1265.3,1672.38 1265.42,1670.96C1265.56,1669.22 1265.66,1667.47 1265.7,1665.72C1265.77,1663.22 1265.72,1660.72 1265.56,1658.22C1265.39,1655.49 1265.08,1652.78 1264.64,1650.08C1264.42,1648.77 1264.17,1647.46 1263.89,1646.16L1235.3,1513.56C1229.9,1511.49 1224.43,1509.57 1218.91,1507.86C1213.51,1506.18 1208.05,1504.69 1202.54,1503.44C1194.4,1501.59 1186.14,1500.25 1177.81,1499.61C1174.45,1499.35 1171.08,1499.2 1167.7,1499.18C1167.29,1499.18 1166.88,1499.18 1166.47,1499.18ZM1237.28,1652.38C1236.96,1654.33 1236.63,1656.27 1236.27,1658.2C1236.17,1658.77 1236.06,1659.33 1235.95,1659.9C1235.86,1660.37 1235.78,1660.84 1235.68,1661.31C1235.6,1661.67 1235.52,1662.04 1235.43,1662.4C1235.31,1662.95 1235.19,1663.5 1235.06,1664.05C1234.08,1668.25 1232.98,1672.43 1231.71,1676.56C1231,1678.86 1230.25,1681.15 1229.42,1683.41C1229.33,1683.67 1229.23,1683.91 1229.13,1684.16C1228.95,1684.62 1228.77,1685.08 1228.58,1685.54C1228.03,1686.89 1227.46,1688.24 1226.86,1689.57C1226.13,1691.2 1225.37,1692.8 1224.56,1694.39C1224.3,1694.91 1224.03,1695.43 1223.75,1695.94C1223.64,1696.16 1223.52,1696.38 1223.4,1696.6C1222.46,1698.27 1221.46,1699.9 1220.41,1701.5C1218.6,1704.25 1216.64,1706.9 1214.49,1709.4C1214.35,1709.57 1214.18,1709.73 1214.03,1709.89C1213.81,1710.13 1213.59,1710.36 1213.37,1710.6C1212.7,1711.29 1212.02,1711.97 1211.32,1712.63C1209.48,1714.38 1207.53,1716.02 1205.47,1717.52C1204.45,1718.27 1203.4,1718.98 1202.33,1719.65L1202.22,1719.72C1200.71,1720.59 1199.16,1721.39 1197.57,1722.11C1197.09,1722.33 1196.61,1722.54 1196.12,1722.74C1195.93,1722.82 1195.73,1722.9 1195.54,1722.98C1195.42,1723.02 1195.31,1723.07 1195.2,1723.11C1193.63,1723.67 1192.02,1724.15 1190.4,1724.55C1189.89,1724.67 1189.37,1724.79 1188.86,1724.9C1188.75,1724.92 1188.65,1724.94 1188.55,1724.96C1188.43,1724.98 1188.32,1725.01 1188.21,1725.03C1186.65,1725.28 1185.08,1725.46 1183.51,1725.56C1182.98,1725.6 1182.45,1725.62 1181.92,1725.64C1181.74,1725.64 1181.45,1725.65 1181.27,1725.65C1180.21,1725.64 1179.15,1725.61 1178.09,1725.53C1177.24,1725.48 1176.39,1725.39 1175.54,1725.29C1175.22,1725.26 1174.91,1725.21 1174.59,1725.17C1174.47,1725.15 1174.35,1725.14 1174.23,1725.12C1170.94,1724.54 1167.72,1723.63 1164.59,1722.47C1163.46,1722.05 1162.34,1721.6 1161.23,1721.11L1161.02,1721.01C1158.35,1719.72 1155.77,1718.23 1153.29,1716.61C1152.52,1716.1 1151.75,1715.58 1150.99,1715.04C1150.71,1714.84 1150.42,1714.63 1150.14,1714.43C1150.03,1714.35 1149.92,1714.27 1149.81,1714.19C1149.17,1713.69 1148.53,1713.18 1147.9,1712.66C1146.59,1711.58 1145.31,1710.46 1144.06,1709.31C1143.33,1708.64 1142.61,1707.96 1141.9,1707.26C1141.47,1706.85 1141.04,1706.43 1140.63,1706.01C1140.42,1705.8 1140.23,1705.58 1140.03,1705.37C1139.68,1704.99 1139.34,1704.61 1139,1704.22C1137.94,1703.05 1136.91,1701.85 1135.91,1700.64C1132.79,1696.88 1129.88,1692.96 1127.13,1688.93C1127.05,1688.8 1126.97,1688.67 1126.89,1688.54C1126.65,1688.17 1126.41,1687.79 1126.17,1687.42C1125.53,1686.4 1124.9,1685.38 1124.27,1684.35C1122.36,1681.19 1120.54,1677.99 1118.79,1674.75L1118.66,1674.51C1119.32,1674.98 1119.97,1675.46 1120.62,1675.92C1121.14,1676.29 1121.66,1676.66 1122.18,1677.02C1123.94,1678.25 1125.71,1679.46 1127.5,1680.64C1129.08,1681.68 1130.68,1682.69 1132.29,1683.68C1132.41,1683.76 1132.53,1683.84 1132.64,1683.91C1132.99,1684.14 1133.35,1684.37 1133.7,1684.59C1137.1,1686.75 1140.56,1688.81 1144.13,1690.68C1145.89,1691.6 1147.67,1692.47 1149.47,1693.3L1149.78,1693.43C1149.98,1693.53 1150.17,1693.63 1150.37,1693.72C1150.66,1693.87 1150.96,1694.01 1151.25,1694.15C1151.64,1694.33 1152.03,1694.51 1152.42,1694.69C1153.45,1695.15 1154.49,1695.61 1155.53,1696.03C1156.77,1696.54 1158.02,1697 1159.29,1697.44C1159.56,1697.54 1159.83,1697.64 1160.1,1697.74C1161.56,1698.27 1163.04,1698.75 1164.54,1699.16C1165.82,1699.52 1167.12,1699.81 1168.42,1700.05C1168.57,1700.08 1168.71,1700.11 1168.85,1700.14C1169.07,1700.19 1169.28,1700.24 1169.49,1700.28C1170.63,1700.51 1171.78,1700.7 1172.93,1700.82C1174.21,1700.96 1175.5,1701.02 1176.78,1700.99C1177.02,1701 1177.26,1701 1177.5,1701.01C1178.49,1701.01 1179.48,1700.96 1180.46,1700.86C1180.67,1700.85 1180.89,1700.83 1181.1,1700.81C1182.03,1700.73 1182.95,1700.59 1183.87,1700.41C1184.07,1700.38 1184.28,1700.35 1184.49,1700.32C1185.46,1700.15 1186.42,1699.93 1187.37,1699.66C1187.59,1699.61 1187.8,1699.56 1188.02,1699.5C1189.14,1699.21 1190.24,1698.85 1191.32,1698.42C1191.51,1698.36 1191.7,1698.29 1191.89,1698.23C1193.2,1697.75 1194.48,1697.19 1195.72,1696.56C1197.31,1695.74 1198.83,1694.8 1200.3,1693.79C1200.37,1693.74 1200.43,1693.7 1200.5,1693.66C1200.69,1693.54 1200.89,1693.41 1201.08,1693.28C1202.1,1692.61 1203.1,1691.9 1204.07,1691.16C1206.08,1689.64 1207.98,1687.99 1209.8,1686.25C1210.1,1685.98 1210.4,1685.71 1210.7,1685.43C1213.51,1682.81 1216.15,1680.01 1218.65,1677.08C1218.94,1676.75 1219.24,1676.42 1219.54,1676.09C1224.07,1670.92 1228.21,1665.43 1232.09,1659.77C1232.36,1659.38 1232.63,1659 1232.91,1658.61C1233.56,1657.67 1234.22,1656.73 1234.86,1655.78C1235.64,1654.64 1236.41,1653.5 1237.17,1652.34L1237.32,1652.12C1237.31,1652.21 1237.29,1652.3 1237.28,1652.38ZM1122.15,1604.87C1123.33,1604.88 1124.5,1604.94 1125.67,1605.05C1127.05,1605.18 1128.42,1605.38 1129.78,1605.64C1130.06,1605.7 1130.34,1605.76 1130.62,1605.82C1131.08,1605.93 1131.54,1606.04 1132,1606.15C1133.87,1606.63 1135.72,1607.24 1137.52,1607.94C1137.62,1607.98 1137.72,1608.02 1137.82,1608.06L1137.83,1608.06L1140.2,1609.7C1141.7,1612.04 1141.71,1612.08 1142.23,1614.81L1141.65,1617.62L1141.64,1617.64L1140,1620.01C1137.66,1621.51 1137.62,1621.52 1134.89,1622.05L1132.08,1621.46C1131.99,1621.42 1131.91,1621.38 1131.83,1621.34C1131.64,1621.26 1131.46,1621.17 1131.28,1621.09C1131.08,1621 1130.89,1620.91 1130.7,1620.83C1129.9,1620.49 1129.08,1620.16 1128.26,1619.88C1127.7,1619.69 1127.15,1619.53 1126.59,1619.37C1125.64,1619.1 1124.68,1618.87 1123.71,1618.69C1122.83,1618.54 1121.94,1618.42 1121.04,1618.36C1120.75,1618.34 1120.45,1618.32 1120.16,1618.31C1120.03,1618.3 1119.9,1618.3 1119.77,1618.29C1118.89,1618.26 1118.02,1618.25 1117.15,1618.3C1115.64,1618.37 1114.14,1618.58 1112.66,1618.88C1112.48,1618.92 1112.29,1618.95 1112.11,1618.99C1111.8,1619.05 1111.49,1619.12 1111.19,1619.19C1110.58,1619.33 1109.98,1619.49 1109.38,1619.66C1109.3,1619.68 1109.22,1619.7 1109.14,1619.72C1108.88,1619.79 1108.63,1619.86 1108.38,1619.93C1107.74,1620.12 1107.11,1620.32 1106.49,1620.53C1106.21,1620.62 1105.94,1620.7 1105.66,1620.79C1105.06,1620.98 1104.46,1621.19 1103.86,1621.41C1103.66,1621.48 1103.46,1621.56 1103.26,1621.64C1103.12,1621.69 1102.99,1621.75 1102.85,1621.79C1102.58,1621.89 1102.3,1622 1102.03,1622.1C1101.32,1622.37 1100.63,1622.65 1099.93,1622.94C1099.65,1623.06 1099.37,1623.18 1099.09,1623.31C1098.95,1623.37 1098.81,1623.44 1098.66,1623.5C1098.38,1623.62 1098.09,1623.75 1097.8,1623.87C1096.62,1624.4 1095.45,1624.95 1094.3,1625.54C1092.98,1626.22 1091.67,1626.93 1090.38,1627.68C1090.04,1627.86 1089.71,1628.05 1089.37,1628.24C1088.29,1628.85 1087.21,1629.48 1086.15,1630.13C1084.46,1631.16 1082.8,1632.24 1081.15,1633.34L1081.03,1633.42C1081.32,1632.94 1081.63,1632.47 1081.93,1631.99C1082.43,1631.21 1082.95,1630.43 1083.46,1629.66C1084.29,1628.44 1085.12,1627.23 1085.99,1626.04C1086.31,1625.6 1086.63,1625.16 1086.96,1624.72C1087.09,1624.55 1087.22,1624.37 1087.36,1624.2C1088.77,1622.41 1090.25,1620.67 1091.8,1618.99C1092.28,1618.48 1092.76,1617.97 1093.25,1617.46C1093.53,1617.18 1093.81,1616.89 1094.09,1616.62C1094.25,1616.47 1094.4,1616.32 1094.56,1616.18C1094.94,1615.82 1095.33,1615.47 1095.72,1615.12C1096.17,1614.72 1096.63,1614.33 1097.1,1613.93C1097.3,1613.77 1097.5,1613.6 1097.7,1613.44C1097.77,1613.38 1097.85,1613.32 1097.92,1613.26C1098.39,1612.89 1098.87,1612.54 1099.35,1612.2C1099.84,1611.85 1100.33,1611.5 1100.83,1611.17C1101.04,1611.03 1101.26,1610.88 1101.47,1610.74C1101.56,1610.69 1101.64,1610.63 1101.72,1610.58C1102.44,1610.15 1103.18,1609.74 1103.92,1609.34C1104.14,1609.22 1104.37,1609.1 1104.6,1608.99C1104.77,1608.9 1104.94,1608.81 1105.12,1608.73C1106.02,1608.3 1106.94,1607.9 1107.88,1607.53C1108.19,1607.41 1108.51,1607.29 1108.84,1607.17C1108.97,1607.12 1109.18,1607.04 1109.32,1606.99C1110.22,1606.7 1111.12,1606.42 1112.03,1606.18C1113.71,1605.74 1115.41,1605.4 1117.13,1605.18C1117.65,1605.11 1118.17,1605.05 1118.7,1605C1118.96,1604.98 1119.23,1604.95 1119.49,1604.94C1119.75,1604.92 1120.02,1604.91 1120.29,1604.9C1120.55,1604.89 1120.82,1604.88 1121.08,1604.88C1121.44,1604.87 1121.8,1604.87 1122.15,1604.87ZM1215.7,1581.02C1216,1581.02 1216.3,1581.02 1216.6,1581.03C1216.68,1581.04 1216.77,1581.04 1216.85,1581.05C1217.01,1581.06 1217.16,1581.07 1217.32,1581.08C1217.78,1581.12 1218.24,1581.16 1218.7,1581.21C1219.61,1581.31 1220.51,1581.44 1221.41,1581.6C1221.5,1581.61 1221.59,1581.63 1221.68,1581.65C1221.91,1581.7 1222.13,1581.75 1222.36,1581.8C1222.97,1581.93 1223.58,1582.08 1224.18,1582.24C1225.56,1582.59 1226.91,1583 1228.26,1583.46C1228.94,1583.69 1229.61,1583.94 1230.29,1584.19L1230.47,1584.26C1233.61,1585.53 1236.65,1587.02 1239.64,1588.61L1239.75,1588.68C1239.24,1588.66 1238.73,1588.64 1238.22,1588.63C1237.88,1588.62 1237.55,1588.62 1237.21,1588.61C1236.22,1588.6 1235.23,1588.6 1234.24,1588.61C1232.74,1588.64 1231.23,1588.7 1229.73,1588.81C1229.37,1588.83 1229,1588.85 1228.64,1588.87C1227.07,1588.98 1225.51,1589.14 1223.95,1589.39C1223.35,1589.48 1222.76,1589.59 1222.16,1589.71C1221.97,1589.75 1221.78,1589.79 1221.58,1589.83C1221.51,1589.85 1221.43,1589.87 1221.36,1589.88C1220.57,1590.04 1219.78,1590.22 1219.01,1590.43C1218.72,1590.51 1218.42,1590.59 1218.14,1590.68C1217.96,1590.73 1217.79,1590.79 1217.61,1590.84C1217.28,1590.94 1216.95,1591.04 1216.63,1591.14C1215.92,1591.38 1215.22,1591.64 1214.54,1591.93C1214.36,1592 1214.18,1592.07 1214,1592.14C1213.61,1592.3 1213.23,1592.46 1212.85,1592.64C1212.63,1592.74 1212.42,1592.84 1212.21,1592.94C1212.06,1593.02 1211.9,1593.1 1211.74,1593.17C1211.42,1593.33 1211.11,1593.5 1210.81,1593.67C1210.59,1593.79 1210.37,1593.92 1210.16,1594.05C1210.03,1594.13 1209.9,1594.22 1209.76,1594.3C1209.47,1594.48 1209.19,1594.67 1208.9,1594.86C1208.37,1595.23 1207.84,1595.62 1207.34,1596.04C1206.83,1596.47 1206.33,1596.93 1205.86,1597.41C1205.6,1597.67 1205.35,1597.94 1205.1,1598.21C1204.91,1598.42 1204.71,1598.63 1204.53,1598.85C1204.11,1599.33 1203.71,1599.82 1203.33,1600.33C1202.61,1601.29 1201.97,1602.28 1201.36,1603.31C1201,1603.92 1200.66,1604.54 1200.33,1605.17C1199.84,1606.11 1199.39,1607.07 1198.96,1608.04C1198.93,1608.12 1198.89,1608.2 1198.86,1608.28L1198.86,1608.29L1197.11,1610.58C1194.7,1611.97 1194.67,1611.98 1191.92,1612.38L1189.13,1611.67L1189.11,1611.66L1186.82,1609.91C1185.43,1607.51 1185.41,1607.48 1185.02,1604.73L1185.73,1601.94C1185.81,1601.78 1185.93,1601.55 1186.02,1601.39C1186.21,1601.04 1186.4,1600.68 1186.6,1600.32C1187.14,1599.37 1187.7,1598.43 1188.29,1597.51C1188.71,1596.85 1189.15,1596.19 1189.61,1595.55C1190.72,1594 1191.93,1592.51 1193.24,1591.12C1193.78,1590.54 1194.34,1589.97 1194.92,1589.43C1195.25,1589.12 1195.58,1588.81 1195.92,1588.52C1197.5,1587.16 1199.2,1585.94 1201.01,1584.9C1201.99,1584.33 1203.01,1583.81 1204.04,1583.35C1204.12,1583.32 1204.19,1583.28 1204.26,1583.25C1205.22,1582.86 1206.19,1582.5 1207.18,1582.2C1207.59,1582.07 1208,1581.95 1208.42,1581.84C1208.61,1581.79 1208.81,1581.75 1209,1581.71C1209.46,1581.61 1209.92,1581.51 1210.38,1581.43C1210.76,1581.36 1211.15,1581.3 1211.53,1581.24C1211.73,1581.22 1211.93,1581.19 1212.12,1581.16C1212.39,1581.13 1212.65,1581.12 1212.92,1581.1C1213.54,1581.06 1214.15,1581.03 1214.77,1581.02C1215.08,1581.02 1215.39,1581.02 1215.7,1581.02Z"/>
                    </g>
                </g>
            </g>
        </g>
    </g>
</svg>
