<?xml version="1.0" encoding="UTF-8" standalone="no"?>
<!DOCTYPE svg PUBLIC "-//W3C//DTD SVG 1.1//EN" "http://www.w3.org/Graphics/SVG/1.1/DTD/svg11.dtd">
<svg width="100%" height="100%" viewBox="0 0 485 386" version="1.1" xmlns="http://www.w3.org/2000/svg" xmlns:xlink="http://www.w3.org/1999/xlink" xml:space="preserve" style="fill-rule:evenodd;clip-rule:evenodd;stroke-linejoin:round;stroke-miterlimit:1.41421;">
    <g transform="matrix(1,0,0,1,-11153,-3926)">
        <g id="logo_small" transform="matrix(1,0,0,0.795876,0,801.39)">
            <rect x="11153" y="3926" width="485" height="485" style="fill:none;"/>
            <clipPath id="_clip1">
                <rect x="11153" y="3926" width="485" height="485"/>
            </clipPath>
            <g clip-path="url(#_clip1)">
                <g transform="matrix(1.2958,0,0,0.997029,-3361.28,11.6636)">
                    <g transform="matrix(1.00502,0,0,1.64119,10137.4,1465.56)">
                        <path d="M1166.47,1499.18C1165.11,1499.19 1163.75,1499.21 1162.4,1499.26C1159.88,1499.35 1157.36,1499.52 1154.86,1499.77C1149.03,1500.34 1143.24,1501.36 1137.58,1502.86C1131.61,1504.44 1125.79,1506.57 1120.21,1509.21C1116.5,1510.97 1112.91,1512.96 1109.44,1515.15C1107.07,1516.64 1104.77,1518.23 1102.53,1519.9C1100.96,1521.07 1099.43,1522.28 1097.93,1523.52C1087.59,1532.11 1078.79,1542.45 1071.27,1553.57C1070.02,1555.42 1068.8,1557.29 1067.62,1559.18C1066.14,1561.55 1064.7,1563.95 1063.32,1566.39C1061.62,1569.37 1059.99,1572.39 1058.43,1575.44L1058.31,1575.68C1068.51,1620.75 1078.48,1665.87 1088.92,1710.88C1089.01,1711.22 1089.09,1711.57 1089.18,1711.92C1089.52,1713.3 1089.9,1714.67 1090.32,1716.03C1091.09,1718.54 1091.99,1721 1093.01,1723.42C1094.03,1725.81 1095.16,1728.16 1096.4,1730.44C1097.32,1732.12 1098.29,1733.77 1099.32,1735.38C1104.82,1744.04 1111.85,1751.67 1119.62,1758.33C1120.91,1759.43 1122.21,1760.51 1123.54,1761.56C1125.03,1762.74 1126.55,1763.89 1128.08,1765.02C1130.1,1766.5 1132.16,1767.92 1134.26,1769.3C1137.03,1771.14 1139.86,1772.89 1142.74,1774.56C1146.33,1776.65 1150,1778.63 1153.71,1780.5C1158.52,1782.92 1163.42,1785.16 1168.38,1787.26C1172.57,1789.02 1176.81,1790.68 1181.09,1792.24C1183.29,1793.04 1185.5,1793.81 1187.71,1794.56L1188.12,1794.7C1195.73,1787.73 1203.1,1780.49 1210.15,1772.95C1215.66,1767.06 1220.97,1760.99 1226.03,1754.72C1229.86,1749.96 1233.54,1745.09 1237.03,1740.09C1239.63,1736.37 1242.12,1732.58 1244.49,1728.7C1246.3,1725.74 1248.04,1722.73 1249.69,1719.67C1250.9,1717.41 1252.08,1715.13 1253.19,1712.82C1254.13,1710.87 1255.04,1708.89 1255.9,1706.91C1260.27,1696.8 1263.54,1686.16 1264.96,1675.23C1265.15,1673.81 1265.3,1672.38 1265.42,1670.96C1265.56,1669.22 1265.66,1667.47 1265.7,1665.72C1265.77,1663.22 1265.72,1660.72 1265.56,1658.22C1265.39,1655.49 1265.08,1652.78 1264.64,1650.08C1264.42,1648.77 1264.17,1647.46 1263.89,1646.16L1235.3,1513.56C1229.9,1511.49 1224.43,1509.57 1218.91,1507.86C1213.51,1506.18 1208.05,1504.69 1202.54,1503.44C1194.4,1501.59 1186.14,1500.25 1177.81,1499.61C1174.45,1499.35 1171.08,1499.2 1167.7,1499.18C1167.29,1499.18 1166.88,1499.18 1166.47,1499.18ZM1237.28,1652.38C1236.96,1654.33 1236.63,1656.27 1236.27,1658.2C1236.17,1658.77 1236.06,1659.33 1235.95,1659.9C1235.86,1660.37 1235.78,1660.84 1235.68,1661.31C1235.6,1661.67 1235.52,1662.04 1235.43,1662.4C1235.31,1662.95 1235.19,1663.5 1235.06,1664.05C1234.08,1668.25 1232.98,1672.43 1231.71,1676.56C1231,1678.86 1230.25,1681.15 1229.42,1683.41C1229.33,1683.67 1229.23,1683.91 1229.13,1684.16C1228.95,1684.62 1228.77,1685.08 1228.58,1685.54C1228.03,1686.89 1227.46,1688.24 1226.86,1689.57C1226.13,1691.2 1225.37,1692.8 1224.56,1694.39C1224.3,1694.91 1224.03,1695.43 1223.75,1695.94C1223.64,1696.16 1223.52,1696.38 1223.4,1696.6C1222.46,1698.27 1221.46,1699.9 1220.41,1701.5C1218.6,1704.25 1216.64,1706.9 1214.49,1709.4C1214.35,1709.57 1214.18,1709.73 1214.03,1709.89C1213.81,1710.13 1213.59,1710.36 1213.37,1710.6C1212.7,1711.29 1212.02,1711.97 1211.32,1712.63C1209.48,1714.38 1207.53,1716.02 1205.47,1717.52C1204.45,1718.27 1203.4,1718.98 1202.33,1719.65L1202.22,1719.72C1200.71,1720.59 1199.16,1721.39 1197.57,1722.11C1197.09,1722.33 1196.61,1722.54 1196.12,1722.74C1195.93,1722.82 1195.73,1722.9 1195.54,1722.98C1195.42,1723.02 1195.31,1723.07 1195.2,1723.11C1193.63,1723.67 1192.02,1724.15 1190.4,1724.55C1189.89,1724.67 1189.37,1724.79 1188.86,1724.9C1188.75,1724.92 1188.65,1724.94 1188.55,1724.96C1188.43,1724.98 1188.32,1725.01 1188.21,1725.03C1186.65,1725.28 1185.08,1725.46 1183.51,1725.56C1182.98,1725.6 1182.45,1725.62 1181.92,1725.64C1181.74,1725.64 1181.45,1725.65 1181.27,1725.65C1180.21,1725.64 1179.15,1725.61 1178.09,1725.53C1177.24,1725.48 1176.39,1725.39 1175.54,1725.29C1175.22,1725.26 1174.91,1725.21 1174.59,1725.17C1174.47,1725.15 1174.35,1725.14 1174.23,1725.12C1170.94,1724.54 1167.72,1723.63 1164.59,1722.47C1163.46,1722.05 1162.34,1721.6 1161.23,1721.11L1161.02,1721.01C1158.35,1719.72 1155.77,1718.23 1153.29,1716.61C1152.52,1716.1 1151.75,1715.58 1150.99,1715.04C1150.71,1714.84 1150.42,1714.63 1150.14,1714.43C1150.03,1714.35 1149.92,1714.27 1149.81,1714.19C1149.17,1713.69 1148.53,1713.18 1147.9,1712.66C1146.59,1711.58 1145.31,1710.46 1144.06,1709.31C1143.33,1708.64 1142.61,1707.96 1141.9,1707.26C1141.47,1706.85 1141.04,1706.43 1140.63,1706.01C1140.42,1705.8 1140.23,1705.58 1140.03,1705.37C1139.68,1704.99 1139.34,1704.61 1139,1704.22C1137.94,1703.05 1136.91,1701.85 1135.91,1700.64C1132.79,1696.88 1129.88,1692.96 1127.13,1688.93C1127.05,1688.8 1126.97,1688.67 1126.89,1688.54C1126.65,1688.17 1126.41,1687.79 1126.17,1687.42C1125.53,1686.4 1124.9,1685.38 1124.27,1684.35C1122.36,1681.19 1120.54,1677.99 1118.79,1674.75L1118.66,1674.51C1119.32,1674.98 1119.97,1675.46 1120.62,1675.92C1121.14,1676.29 1121.66,1676.66 1122.18,1677.02C1123.94,1678.25 1125.71,1679.46 1127.5,1680.64C1129.08,1681.68 1130.68,1682.69 1132.29,1683.68C1132.41,1683.76 1132.53,1683.84 1132.64,1683.91C1132.99,1684.14 1133.35,1684.37 1133.7,1684.59C1137.1,1686.75 1140.56,1688.81 1144.13,1690.68C1145.89,1691.6 1147.67,1692.47 1149.47,1693.3L1149.78,1693.43C1149.98,1693.53 1150.17,1693.63 1150.37,1693.72C1150.66,1693.87 1150.96,1694.01 1151.25,1694.15C1151.64,1694.33 1152.03,1694.51 1152.42,1694.69C1153.45,1695.15 1154.49,1695.61 1155.53,1696.03C1156.77,1696.54 1158.02,1697 1159.29,1697.44C1159.56,1697.54 1159.83,1697.64 1160.1,1697.74C1161.56,1698.27 1163.04,1698.75 1164.54,1699.16C1165.82,1699.52 1167.12,1699.81 1168.42,1700.05C1168.57,1700.08 1168.71,1700.11 1168.85,1700.14C1169.07,1700.19 1169.28,1700.24 1169.49,1700.28C1170.63,1700.51 1171.78,1700.7 1172.93,1700.82C1174.21,1700.96 1175.5,1701.02 1176.78,1700.99C1177.02,1701 1177.26,1701 1177.5,1701.01C1178.49,1701.01 1179.48,1700.96 1180.46,1700.86C1180.67,1700.85 1180.89,1700.83 1181.1,1700.81C1182.03,1700.73 1182.95,1700.59 1183.87,1700.41C1184.07,1700.38 1184.28,1700.35 1184.49,1700.32C1185.46,1700.15 1186.42,1699.93 1187.37,1699.66C1187.59,1699.61 1187.8,1699.56 1188.02,1699.5C1189.14,1699.21 1190.24,1698.85 1191.32,1698.42C1191.51,1698.36 1191.7,1698.29 1191.89,1698.23C1193.2,1697.75 1194.48,1697.19 1195.72,1696.56C1197.31,1695.74 1198.83,1694.8 1200.3,1693.79C1200.37,1693.74 1200.43,1693.7 1200.5,1693.66C1200.69,1693.54 1200.89,1693.41 1201.08,1693.28C1202.1,1692.61 1203.1,1691.9 1204.07,1691.16C1206.08,1689.64 1207.98,1687.99 1209.8,1686.25C1210.1,1685.98 1210.4,1685.71 1210.7,1685.43C1213.51,1682.81 1216.15,1680.01 1218.65,1677.08C1218.94,1676.75 1219.24,1676.42 1219.54,1676.09C1224.07,1670.92 1228.21,1665.43 1232.09,1659.77C1232.36,1659.38 1232.63,1659 1232.91,1658.61C1233.56,1657.67 1234.22,1656.73 1234.86,1655.78C1235.64,1654.64 1236.41,1653.5 1237.17,1652.34L1237.32,1652.12C1237.31,1652.21 1237.29,1652.3 1237.28,1652.38ZM1122.15,1604.87C1123.33,1604.88 1124.5,1604.94 1125.67,1605.05C1127.05,1605.18 1128.42,1605.38 1129.78,1605.64C1130.06,1605.7 1130.34,1605.76 1130.62,1605.82C1131.08,1605.93 1131.54,1606.04 1132,1606.15C1133.87,1606.63 1135.72,1607.24 1137.52,1607.94C1137.62,1607.98 1137.72,1608.02 1137.82,1608.06L1137.83,1608.06L1140.2,1609.7C1141.7,1612.04 1141.71,1612.08 1142.23,1614.81L1141.65,1617.62L1141.64,1617.64L1140,1620.01C1137.66,1621.51 1137.62,1621.52 1134.89,1622.05L1132.08,1621.46C1131.99,1621.42 1131.91,1621.38 1131.83,1621.34C1131.64,1621.26 1131.46,1621.17 1131.28,1621.09C1131.08,1621 1130.89,1620.91 1130.7,1620.83C1129.9,1620.49 1129.08,1620.16 1128.26,1619.88C1127.7,1619.69 1127.15,1619.53 1126.59,1619.37C1125.64,1619.1 1124.68,1618.87 1123.71,1618.69C1122.83,1618.54 1121.94,1618.42 1121.04,1618.36C1120.75,1618.34 1120.45,1618.32 1120.16,1618.31C1120.03,1618.3 1119.9,1618.3 1119.77,1618.29C1118.89,1618.26 1118.02,1618.25 1117.15,1618.3C1115.64,1618.37 1114.14,1618.58 1112.66,1618.88C1112.48,1618.92 1112.29,1618.95 1112.11,1618.99C1111.8,1619.05 1111.49,1619.12 1111.19,1619.19C1110.58,1619.33 1109.98,1619.49 1109.38,1619.66C1109.3,1619.68 1109.22,1619.7 1109.14,1619.72C1108.88,1619.79 1108.63,1619.86 1108.38,1619.93C1107.74,1620.12 1107.11,1620.32 1106.49,1620.53C1106.21,1620.62 1105.94,1620.7 1105.66,1620.79C1105.06,1620.98 1104.46,1621.19 1103.86,1621.41C1103.66,1621.48 1103.46,1621.56 1103.26,1621.64C1103.12,1621.69 1102.99,1621.75 1102.85,1621.79C1102.58,1621.89 1102.3,1622 1102.03,1622.1C1101.32,1622.37 1100.63,1622.65 1099.93,1622.94C1099.65,1623.06 1099.37,1623.18 1099.09,1623.31C1098.95,1623.37 1098.81,1623.44 1098.66,1623.5C1098.38,1623.62 1098.09,1623.75 1097.8,1623.87C1096.62,1624.4 1095.45,1624.95 1094.3,1625.54C1092.98,1626.22 1091.67,1626.93 1090.38,1627.68C1090.04,1627.86 1089.71,1628.05 1089.37,1628.24C1088.29,1628.85 1087.21,1629.48 1086.15,1630.13C1084.46,1631.16 1082.8,1632.24 1081.15,1633.34L1081.03,1633.42C1081.32,1632.94 1081.63,1632.47 1081.93,1631.99C1082.43,1631.21 1082.95,1630.43 1083.46,1629.66C1084.29,1628.44 1085.12,1627.23 1085.99,1626.04C1086.31,1625.6 1086.63,1625.16 1086.96,1624.72C1087.09,1624.55 1087.22,1624.37 1087.36,1624.2C1088.77,1622.41 1090.25,1620.67 1091.8,1618.99C1092.28,1618.48 1092.76,1617.97 1093.25,1617.46C1093.53,1617.18 1093.81,1616.89 1094.09,1616.62C1094.25,1616.47 1094.4,1616.32 1094.56,1616.18C1094.94,1615.82 1095.33,1615.47 1095.72,1615.12C1096.17,1614.72 1096.63,1614.33 1097.1,1613.93C1097.3,1613.77 1097.5,1613.6 1097.7,1613.44C1097.77,1613.38 1097.85,1613.32 1097.92,1613.26C1098.39,1612.89 1098.87,1612.54 1099.35,1612.2C1099.84,1611.85 1100.33,1611.5 1100.83,1611.17C1101.04,1611.03 1101.26,1610.88 1101.47,1610.74C1101.56,1610.69 1101.64,1610.63 1101.72,1610.58C1102.44,1610.15 1103.18,1609.74 1103.92,1609.34C1104.14,1609.22 1104.37,1609.1 1104.6,1608.99C1104.77,1608.9 1104.94,1608.81 1105.12,1608.73C1106.02,1608.3 1106.94,1607.9 1107.88,1607.53C1108.19,1607.41 1108.51,1607.29 1108.84,1607.17C1108.97,1607.12 1109.18,1607.04 1109.32,1606.99C1110.22,1606.7 1111.12,1606.42 1112.03,1606.18C1113.71,1605.74 1115.41,1605.4 1117.13,1605.18C1117.65,1605.11 1118.17,1605.05 1118.7,1605C1118.96,1604.98 1119.23,1604.95 1119.49,1604.94C1119.75,1604.92 1120.02,1604.91 1120.29,1604.9C1120.55,1604.89 1120.82,1604.88 1121.08,1604.88C1121.44,1604.87 1121.8,1604.87 1122.15,1604.87ZM1215.7,1581.02C1216,1581.02 1216.3,1581.02 1216.6,1581.03C1216.68,1581.04 1216.77,1581.04 1216.85,1581.05C1217.01,1581.06 1217.16,1581.07 1217.32,1581.08C1217.78,1581.12 1218.24,1581.16 1218.7,1581.21C1219.61,1581.31 1220.51,1581.44 1221.41,1581.6C1221.5,1581.61 1221.59,1581.63 1221.68,1581.65C1221.91,1581.7 1222.13,1581.75 1222.36,1581.8C1222.97,1581.93 1223.58,1582.08 1224.18,1582.24C1225.56,1582.59 1226.91,1583 1228.26,1583.46C1228.94,1583.69 1229.61,1583.94 1230.29,1584.19L1230.47,1584.26C1233.61,1585.53 1236.65,1587.02 1239.64,1588.61L1239.75,1588.68C1239.24,1588.66 1238.73,1588.64 1238.22,1588.63C1237.88,1588.62 1237.55,1588.62 1237.21,1588.61C1236.22,1588.6 1235.23,1588.6 1234.24,1588.61C1232.74,1588.64 1231.23,1588.7 1229.73,1588.81C1229.37,1588.83 1229,1588.85 1228.64,1588.87C1227.07,1588.98 1225.51,1589.14 1223.95,1589.39C1223.35,1589.48 1222.76,1589.59 1222.16,1589.71C1221.97,1589.75 1221.78,1589.79 1221.58,1589.83C1221.51,1589.85 1221.43,1589.87 1221.36,1589.88C1220.57,1590.04 1219.78,1590.22 1219.01,1590.43C1218.72,1590.51 1218.42,1590.59 1218.14,1590.68C1217.96,1590.73 1217.79,1590.79 1217.61,1590.84C1217.28,1590.94 1216.95,1591.04 1216.63,1591.14C1215.92,1591.38 1215.22,1591.64 1214.54,1591.93C1214.36,1592 1214.18,1592.07 1214,1592.14C1213.61,1592.3 1213.23,1592.46 1212.85,1592.64C1212.63,1592.74 1212.42,1592.84 1212.21,1592.94C1212.06,1593.02 1211.9,1593.1 1211.74,1593.17C1211.42,1593.33 1211.11,1593.5 1210.81,1593.67C1210.59,1593.79 1210.37,1593.92 1210.16,1594.05C1210.03,1594.13 1209.9,1594.22 1209.76,1594.3C1209.47,1594.48 1209.19,1594.67 1208.9,1594.86C1208.37,1595.23 1207.84,1595.62 1207.34,1596.04C1206.83,1596.47 1206.33,1596.93 1205.86,1597.41C1205.6,1597.67 1205.35,1597.94 1205.1,1598.21C1204.91,1598.42 1204.71,1598.63 1204.53,1598.85C1204.11,1599.33 1203.71,1599.82 1203.33,1600.33C1202.61,1601.29 1201.97,1602.28 1201.36,1603.31C1201,1603.92 1200.66,1604.54 1200.33,1605.17C1199.84,1606.11 1199.39,1607.07 1198.96,1608.04C1198.93,1608.12 1198.89,1608.2 1198.86,1608.28L1198.86,1608.29L1197.11,1610.58C1194.7,1611.97 1194.67,1611.98 1191.92,1612.38L1189.13,1611.67L1189.11,1611.66L1186.82,1609.91C1185.43,1607.51 1185.41,1607.48 1185.02,1604.73L1185.73,1601.94C1185.81,1601.78 1185.93,1601.55 1186.02,1601.39C1186.21,1601.04 1186.4,1600.68 1186.6,1600.32C1187.14,1599.37 1187.7,1598.43 1188.29,1597.51C1188.71,1596.85 1189.15,1596.19 1189.61,1595.55C1190.72,1594 1191.93,1592.51 1193.24,1591.12C1193.78,1590.54 1194.34,1589.97 1194.92,1589.43C1195.25,1589.12 1195.58,1588.81 1195.92,1588.52C1197.5,1587.16 1199.2,1585.94 1201.01,1584.9C1201.99,1584.33 1203.01,1583.81 1204.04,1583.35C1204.12,1583.32 1204.19,1583.28 1204.26,1583.25C1205.22,1582.86 1206.19,1582.5 1207.18,1582.2C1207.59,1582.07 1208,1581.95 1208.42,1581.84C1208.61,1581.79 1208.81,1581.75 1209,1581.71C1209.46,1581.61 1209.92,1581.51 1210.38,1581.43C1210.76,1581.36 1211.15,1581.3 1211.53,1581.24C1211.73,1581.22 1211.93,1581.19 1212.12,1581.16C1212.39,1581.13 1212.65,1581.12 1212.92,1581.1C1213.54,1581.06 1214.15,1581.03 1214.77,1581.02C1215.08,1581.02 1215.39,1581.02 1215.7,1581.02Z" style="fill:rgb(55,51,50);"/>
                    </g>
                    <g transform="matrix(0.771723,0,0,1.26022,2593.98,-1021.63)">
                        <path d="M11430.5,4043.73C11430.6,4024.65 11430.6,4005.57 11430.6,3986.49C11430.6,3986.49 11448.7,3990.36 11457.5,3991.8C11464.2,3992.9 11471,3993.83 11477.8,3994.55C11483.3,3995.13 11488.7,3995.58 11494.2,3995.88C11498.4,3996.11 11502.6,3996.25 11506.8,3996.3C11509.8,3996.33 11512.8,3996.31 11515.9,3996.24C11534.4,3995.83 11553,3993.41 11570.9,3988.16C11573.3,3987.45 11575.7,3986.69 11578.1,3985.87C11581.4,3984.74 11584.6,3983.52 11587.8,3982.2C11592,3980.45 11596.2,3978.51 11600.2,3976.4C11605.9,3973.43 11611.4,3970.1 11616.7,3966.42C11621.7,3962.85 11626.6,3958.95 11631.2,3954.75C11633.4,3952.71 11635.5,3950.59 11637.6,3948.41C11637.8,3948.28 11637.9,3948.16 11638,3948.03L11638,4105.86L11638,4106.2C11638,4107.27 11638,4108.33 11637.9,4109.4C11637.8,4112.03 11637.6,4114.67 11637.2,4117.28C11636.9,4119.48 11636.5,4121.65 11636.1,4123.82C11633.7,4135.1 11629.2,4145.85 11623.6,4155.92C11622.7,4157.55 11621.8,4159.17 11620.8,4160.77C11619.6,4162.81 11618.4,4164.82 11617.1,4166.81C11615.5,4169.25 11613.9,4171.66 11612.2,4174.04C11610.1,4177.07 11607.9,4180.06 11605.7,4183.02C11602.8,4186.84 11599.8,4190.6 11596.8,4194.32C11592.8,4199.29 11588.7,4204.19 11584.5,4209.07C11581.5,4212.6 11578.5,4216.12 11575.5,4219.65C11571.2,4224.71 11566.9,4229.79 11562.7,4234.95C11560.7,4237.5 11558.6,4240.07 11556.6,4242.67C11556.2,4243.26 11555.7,4243.86 11555.3,4244.46C11554.8,4245.11 11554.3,4245.77 11553.8,4246.43L11553.5,4246.33C11550.5,4245.05 11547.4,4243.82 11544.3,4242.65C11534.2,4238.85 11523.9,4235.59 11513.6,4232.47C11512,4231.99 11510.4,4231.52 11508.8,4231.05C11502.7,4229.23 11496.5,4227.43 11490.4,4225.59C11485.8,4224.2 11481.2,4222.79 11476.6,4221.31C11472.8,4220.07 11469,4218.78 11465.3,4217.4C11462.4,4216.35 11459.6,4215.25 11456.8,4214.08C11454.7,4213.16 11452.5,4212.19 11450.4,4211.15C11448.8,4210.37 11447.2,4209.55 11445.7,4208.68C11444.5,4208.04 11443.4,4207.38 11442.4,4206.69C11440.9,4205.78 11439.5,4204.81 11438.2,4203.76C11437.3,4202.98 11436.3,4202.16 11435.4,4201.27C11437.7,4195.63 11439.7,4189.89 11441.4,4184.06C11444.2,4174.75 11446.2,4165.21 11447.3,4155.56C11447.6,4152.59 11447.8,4149.61 11448,4146.62C11448.2,4142.1 11448.2,4137.57 11448,4133.06C11447.7,4128.59 11447.3,4124.12 11446.6,4119.7C11446.2,4117.32 11445.8,4114.94 11445.3,4112.59C11440.4,4089.62 11435.5,4066.68 11430.5,4043.73ZM11562.5,4145.85C11563.3,4145.86 11564.2,4145.88 11565.1,4145.92L11565.3,4145.92C11568.5,4146.21 11571.7,4146.7 11574.8,4147.45C11575.3,4147.57 11575.8,4147.69 11576.3,4147.81C11576.4,4147.86 11576.6,4147.9 11576.8,4147.95C11578.5,4148.47 11580.2,4149.05 11581.8,4149.73C11583.8,4150.54 11585.7,4151.48 11587.6,4152.55C11587.7,4152.64 11587.9,4152.73 11588,4152.82C11588.3,4152.98 11588.5,4153.14 11588.8,4153.31C11589.7,4153.88 11590.5,4154.48 11591.3,4155.12C11594.4,4157.48 11597.1,4160.33 11599,4163.69C11599.6,4164.62 11600,4165.59 11600.4,4166.59C11600.5,4166.9 11600.7,4167.21 11600.8,4167.52C11600.8,4167.65 11600.9,4167.78 11600.9,4167.91C11601.4,4169.53 11601.6,4171.21 11601.7,4172.9C11601.7,4173.61 11601.6,4174.31 11601.6,4175.01C11601.5,4175.45 11601.5,4175.88 11601.4,4176.31L11601.4,4176.33L11599.9,4179.19L11597.7,4180.47L11597.7,4180.47C11597.7,4180.47 11597.6,4180.47 11597.6,4180.47L11595.4,4179.41L11593.6,4176.71C11593.5,4176.64 11593.5,4176.56 11593.5,4176.49L11593.4,4176.45L11593.4,4176.49L11593.4,4176.36L11593.3,4176.24L11593.4,4176.28L11593.3,4176.16L11593.2,4176.05L11593.2,4176.09L11593.2,4175.97L11593.1,4175.85L11593.1,4175.9L11593.1,4175.78L11593,4175.67L11593,4175.71L11593,4175.6L11592.9,4175.49L11592.9,4175.53L11592.9,4175.42L11592.8,4175.31L11592.8,4175.36L11592.8,4175.25L11592.7,4175.14L11592.7,4175.19L11592.6,4175.08L11592.6,4174.97L11592.6,4175.02L11592.5,4174.92L11592.4,4174.81L11592.5,4174.86L11592.4,4174.76L11592.3,4174.66L11592.3,4174.7L11592.3,4174.61L11592.2,4174.51L11592.2,4174.55L11592.1,4174.46L11592.1,4174.36L11592.1,4174.41L11592,4174.31L11591.9,4174.22L11592,4174.27L11591.9,4174.17L11591.8,4174.08L11591.8,4174.13L11591.7,4174.04L11591.7,4173.95L11591.7,4174L11591.6,4173.91L11591.5,4173.82L11591.6,4173.87L11591.5,4173.78L11591.4,4173.69L11591.4,4173.74L11591.3,4173.66L11591.2,4173.57L11591.3,4173.62L11591.2,4173.54L11591.1,4173.45L11591.1,4173.5L11591,4173.42L11591,4173.34L11591,4173.39C11590.9,4173.31 11590.9,4173.31 11590.8,4173.23L11590.8,4173.23L11590.8,4173.28L11590.8,4173.2L11590.7,4173.12L11590.7,4173.17L11590.6,4173.09L11590.5,4173.01L11590.6,4173.06L11590.5,4172.98L11590.4,4172.9L11590.4,4172.95L11590.3,4172.88L11590.2,4172.8L11590.3,4172.85L11590.2,4172.78L11590.1,4172.7L11590.1,4172.75L11590,4172.68L11589.9,4172.61L11590,4172.65L11589.9,4172.59L11589.8,4172.52L11589.8,4172.56L11589.7,4172.49L11589.6,4172.42L11589.6,4172.47L11589.5,4172.4L11589.5,4172.34L11589.5,4172.38L11589.4,4172.31L11589.3,4172.25L11589.3,4172.29L11589.2,4172.23L11589.1,4172.16L11589.2,4172.21L11589.1,4172.15C11587.8,4171.51 11586.3,4171.11 11584.9,4170.88C11584.5,4170.82 11584.2,4170.77 11583.8,4170.73C11583.5,4170.7 11583.3,4170.68 11583.1,4170.67L11582.8,4170.65C11582.5,4170.63 11582.2,4170.61 11581.8,4170.61C11581.6,4170.6 11581.6,4170.6 11581.3,4170.6C11581.2,4170.6 11581.1,4170.6 11581,4170.6C11580.8,4170.59 11580.5,4170.59 11580.3,4170.59C11578.9,4170.59 11577.5,4170.67 11576.2,4170.85C11575.7,4170.91 11575.2,4170.98 11574.7,4171.07C11574.5,4171.1 11574.3,4171.15 11574.1,4171.17C11573.8,4171.22 11573.8,4171.22 11573.5,4171.27C11572.6,4171.42 11571.7,4171.6 11570.8,4171.81C11569.6,4172.11 11568.4,4172.46 11567.2,4172.86C11566.9,4172.92 11566.7,4172.99 11566.4,4173.06C11565.5,4173.33 11564.5,4173.64 11563.6,4173.98C11562.7,4174.32 11561.7,4174.7 11560.8,4175.1C11560.6,4175.18 11560.4,4175.26 11560.1,4175.35C11559.4,4175.62 11558.7,4175.9 11558,4176.21C11557.8,4176.3 11557.5,4176.38 11557.3,4176.47C11556.7,4176.68 11556.2,4176.89 11555.7,4177.11L11555.5,4177.18C11555.2,4177.27 11555,4177.36 11554.7,4177.45C11554.4,4177.57 11554.4,4177.57 11554,4177.69C11553.7,4177.81 11553.4,4177.93 11553.1,4178.05C11552.8,4178.13 11552.6,4178.21 11552.4,4178.28C11551.8,4178.48 11551.2,4178.69 11550.7,4178.9L11550.5,4178.95C11550.2,4179.07 11549.8,4179.18 11549.5,4179.3C11549.1,4179.42 11548.8,4179.54 11548.4,4179.67C11547.4,4180.06 11546.3,4180.49 11545.3,4180.95C11545,4181.06 11544.7,4181.18 11544.4,4181.3C11542.9,4181.9 11541.4,4182.59 11540,4183.35C11539.7,4183.48 11539.4,4183.62 11539.1,4183.75C11537.6,4184.51 11536.1,4185.34 11534.7,4186.26C11534.4,4186.42 11534.1,4186.59 11533.8,4186.76C11532.8,4187.33 11531.9,4187.92 11531,4188.55C11528.9,4190.01 11527,4191.64 11525.1,4193.41C11524.9,4193.64 11524.6,4193.87 11524.4,4194.1C11523.3,4195.06 11522.3,4196.05 11521.4,4197.09C11520.4,4198.19 11519.4,4199.33 11518.4,4200.5C11518.4,4200.58 11518.3,4200.66 11518.3,4200.75L11518.2,4200.76L11515.7,4202.78L11513.2,4203.12L11513.2,4203.12L11511.5,4201.28L11510.9,4198.12C11510.9,4197.43 11510.9,4196.75 11511,4196.06C11511.1,4195.05 11511.2,4194.03 11511.3,4193.02C11511.5,4191.57 11511.7,4190.13 11512,4188.7C11512.1,4187.96 11512.3,4187.22 11512.4,4186.49C11512.5,4186.35 11512.5,4186.22 11512.5,4186.09C11512.6,4185.77 11512.7,4185.45 11512.8,4185.13C11513.1,4184.07 11513.4,4183.03 11513.8,4181.99C11514.6,4179.62 11515.5,4177.29 11516.6,4175.03C11517.1,4173.95 11517.6,4172.89 11518.2,4171.85L11518.2,4171.74C11519.1,4170.21 11520.1,4168.73 11521.1,4167.28C11521.8,4166.32 11522.5,4165.39 11523.2,4164.47L11523.3,4164.35C11524.7,4162.71 11526.1,4161.14 11527.6,4159.64C11528.1,4159.2 11528.5,4158.77 11529,4158.34C11529.1,4158.2 11529.3,4158.06 11529.4,4157.92C11529.5,4157.85 11529.6,4157.77 11529.7,4157.7C11531.2,4156.4 11532.8,4155.17 11534.5,4154C11535.1,4153.59 11535.7,4153.19 11536.3,4152.81C11536.4,4152.74 11536.9,4152.4 11537.1,4152.3C11537.3,4152.15 11537.6,4152.01 11537.8,4151.87C11538.2,4151.68 11538.5,4151.48 11538.9,4151.29C11539.4,4151.01 11539.9,4150.73 11540.4,4150.46C11540.6,4150.36 11540.8,4150.26 11541,4150.18C11542.2,4149.61 11543.5,4149.08 11544.8,4148.58L11545,4148.49C11546.4,4148.03 11547.8,4147.61 11549.2,4147.22L11549.3,4147.18C11550.4,4146.95 11551.5,4146.73 11552.5,4146.54C11552.9,4146.48 11553.3,4146.42 11553.6,4146.36C11553.8,4146.32 11554.1,4146.28 11554.3,4146.26C11555.9,4146.08 11557.5,4145.96 11559.2,4145.9C11559.9,4145.87 11560.6,4145.86 11561.4,4145.85C11561.9,4145.85 11561.9,4145.85 11562.5,4145.85ZM11514.7,4064.91C11517,4065.68 11517,4065.7 11518.8,4067.29L11520.3,4072.01C11520.3,4073.62 11520.1,4075.22 11520,4076.82C11519.8,4078.32 11519.6,4079.82 11519.4,4081.31C11519.3,4081.74 11519.3,4082.17 11519.2,4082.61C11519.1,4083.27 11518.9,4083.92 11518.8,4084.58C11518.4,4086.47 11517.9,4088.35 11517.3,4090.2C11517.1,4091.03 11516.8,4091.85 11516.5,4092.67C11516.4,4092.79 11516.4,4092.9 11516.3,4093.02C11515.7,4094.58 11515,4096.12 11514.2,4097.61C11514,4098.08 11513.7,4098.54 11513.4,4099C11513.2,4099.45 11512.9,4099.9 11512.6,4100.33C11512,4101.3 11511.3,4102.23 11510.5,4103.12C11510.1,4103.64 11509.7,4104.14 11509.2,4104.63C11509,4104.81 11508.9,4104.98 11508.7,4105.16C11508.4,4105.4 11508.2,4105.64 11507.9,4105.87C11506.9,4106.86 11505.7,4107.78 11504.5,4108.6C11504.2,4108.76 11504,4108.92 11503.7,4109.07C11503.6,4109.13 11503.3,4109.28 11503.3,4109.31C11502.9,4109.53 11502.5,4109.74 11502.1,4109.94C11501.2,4110.39 11500.2,4110.79 11499.3,4111.14C11498.8,4111.31 11498.3,4111.48 11497.8,4111.63C11497.6,4111.67 11497.5,4111.7 11497.3,4111.73C11497.1,4111.78 11496.9,4111.83 11496.7,4111.87C11496,4112.01 11495.3,4112.12 11494.7,4112.2C11493.1,4112.4 11491.5,4112.47 11490,4112.4C11489.7,4112.39 11489.5,4112.36 11489.2,4112.34C11488.9,4112.3 11488.5,4112.27 11488.2,4112.22C11486.9,4112.06 11485.7,4111.82 11484.5,4111.51C11483.6,4111.3 11482.7,4111.05 11481.9,4110.77C11481.4,4110.6 11480.9,4110.41 11480.4,4110.22C11479.4,4109.82 11478.4,4109.38 11477.4,4108.9C11476.5,4108.43 11475.5,4107.93 11474.6,4107.4C11474.2,4107.18 11473.8,4106.95 11473.4,4106.71C11472.7,4106.23 11471.9,4105.73 11471.1,4105.21C11470.5,4104.75 11469.8,4104.28 11469.2,4103.79C11468.9,4103.6 11468.6,4103.4 11468.4,4103.2C11467.7,4102.71 11467.1,4102.21 11466.5,4101.71C11464.9,4100.38 11463.4,4098.99 11461.9,4097.56C11461.4,4097.02 11460.8,4096.48 11460.3,4095.93C11460,4095.69 11459.8,4095.46 11459.5,4095.21C11458.5,4094.09 11457.4,4092.95 11456.4,4091.79L11456.3,4091.66L11456.1,4090.63L11457.2,4090.51C11457.6,4090.72 11458,4090.93 11458.5,4091.14C11458.9,4091.35 11459.4,4091.55 11459.8,4091.75C11460.4,4092 11460.9,4092.24 11461.5,4092.49C11462,4092.74 11462.6,4092.99 11463.2,4093.24C11464.3,4093.7 11465.3,4094.14 11466.4,4094.55C11467.7,4095.04 11469,4095.5 11470.3,4095.92C11470.8,4096.1 11471.4,4096.27 11471.9,4096.44C11472.3,4096.56 11472.7,4096.69 11473.1,4096.8C11473.8,4097 11474.5,4097.19 11475.2,4097.36C11475.8,4097.52 11476.5,4097.68 11477.2,4097.81C11477.5,4097.89 11477.9,4097.95 11478.2,4098.02C11478.7,4098.11 11479.2,4098.2 11479.6,4098.27C11480.6,4098.43 11481.5,4098.55 11482.4,4098.62C11482.9,4098.65 11483.3,4098.68 11483.8,4098.69C11484,4098.7 11484.2,4098.7 11484.4,4098.7C11484.7,4098.71 11484.9,4098.72 11485.2,4098.72C11486,4098.72 11486.7,4098.69 11487.5,4098.61C11487.9,4098.56 11488.4,4098.49 11488.9,4098.4C11489,4098.38 11489.1,4098.35 11489.2,4098.32C11489.3,4098.31 11489.4,4098.29 11489.5,4098.27C11489.9,4098.19 11490.3,4098.12 11490.6,4098.01C11491.5,4097.79 11492.3,4097.49 11493,4097.1C11493.2,4097.05 11493.3,4096.99 11493.4,4096.94C11493.9,4096.72 11494.3,4096.48 11494.8,4096.2C11494.9,4096.1 11495.1,4095.99 11495.3,4095.89C11495.3,4095.85 11495.4,4095.8 11495.4,4095.76C11495.6,4095.67 11495.7,4095.58 11495.9,4095.48C11496.1,4095.28 11496.4,4095.07 11496.7,4094.84C11497,4094.6 11497.2,4094.36 11497.5,4094.1C11497.6,4093.97 11497.7,4093.84 11497.9,4093.72C11498,4093.57 11498.2,4093.41 11498.3,4093.25C11498.7,4092.89 11499,4092.52 11499.3,4092.14C11499.6,4091.69 11500,4091.22 11500.3,4090.75C11500.4,4090.54 11500.6,4090.33 11500.7,4090.12C11501,4089.61 11501.3,4089.09 11501.6,4088.55C11501.8,4088.2 11502,4087.83 11502.2,4087.47C11502.3,4087.3 11502.4,4087.13 11502.5,4086.96C11502.6,4086.58 11502.8,4086.21 11503,4085.83C11503.3,4085.15 11503.6,4084.46 11503.9,4083.77C11504.4,4082.63 11504.8,4081.47 11505.1,4080.3C11505.4,4079.64 11505.5,4078.98 11505.7,4078.32C11506,4077.57 11506.2,4076.81 11506.4,4076.05C11506.9,4074.22 11507.3,4072.37 11507.6,4070.51L11507.6,4070.5L11510.2,4066.26L11514.7,4064.9C11514.7,4064.91 11514.7,4064.91 11514.7,4064.91ZM11570.4,4051.61C11570.6,4051.83 11570.9,4052.04 11571.1,4052.26C11571.4,4052.52 11571.8,4052.77 11572.1,4053.02C11572.8,4053.56 11573.5,4054.09 11574.2,4054.59C11574.7,4054.93 11575.2,4055.26 11575.7,4055.59C11576.1,4055.86 11576.5,4056.13 11576.9,4056.39C11577.8,4056.97 11578.7,4057.53 11579.7,4058.04C11580.3,4058.33 11580.9,4058.61 11581.4,4058.88C11581.7,4059.02 11582.1,4059.16 11582.4,4059.3C11583.1,4059.6 11583.7,4059.88 11584.4,4060.14C11584.8,4060.27 11585.1,4060.4 11585.5,4060.52C11585.7,4060.57 11585.8,4060.61 11585.9,4060.66C11586.6,4060.87 11587.2,4061.07 11587.9,4061.24C11588.2,4061.33 11588.6,4061.41 11589,4061.49C11589.1,4061.52 11589.3,4061.55 11589.4,4061.58C11589.6,4061.61 11589.7,4061.65 11589.8,4061.68C11590.1,4061.73 11590.3,4061.78 11590.6,4061.82C11591.2,4061.95 11591.9,4062.04 11592.6,4062.11C11592.8,4062.14 11593,4062.16 11593.2,4062.19C11594,4062.28 11594.8,4062.34 11595.6,4062.36C11595.8,4062.38 11596,4062.39 11596.1,4062.41C11597.2,4062.49 11598.3,4062.49 11599.4,4062.43C11599.6,4062.43 11599.8,4062.42 11600,4062.42C11600.9,4062.39 11601.7,4062.31 11602.5,4062.2C11602.8,4062.16 11603.1,4062.11 11603.4,4062.07C11603.6,4062.03 11603.8,4062 11604,4061.97C11604.2,4061.92 11604.5,4061.88 11604.8,4061.82C11605.3,4061.73 11605.7,4061.63 11606.2,4061.52C11606.9,4061.36 11607.5,4061.18 11608.1,4060.99C11608.5,4060.89 11608.8,4060.79 11609.1,4060.69C11609.3,4060.62 11609.5,4060.56 11609.7,4060.49C11610.2,4060.32 11610.7,4060.13 11611.2,4059.93C11612.2,4059.55 11613.2,4059.12 11614.1,4058.68C11614.5,4058.49 11615,4058.3 11615.4,4058.11C11616,4057.77 11616.7,4057.42 11617.4,4057.06C11618.5,4056.45 11619.6,4055.8 11620.7,4055.12C11621.3,4054.76 11621.8,4054.38 11622.4,4054C11622.8,4053.76 11623.1,4053.53 11623.5,4053.28C11624.2,4052.79 11624.9,4052.29 11625.6,4051.78L11625.7,4051.69L11626.8,4051.58L11626.8,4052.62C11626.5,4053.34 11626.1,4054.05 11625.7,4054.76C11625.4,4055.27 11625.1,4055.78 11624.8,4056.28C11624.1,4057.55 11623.3,4058.8 11622.4,4060.01C11621.7,4061.12 11620.9,4062.2 11620,4063.25C11619.6,4063.75 11619.2,4064.24 11618.8,4064.71C11617.9,4065.73 11617,4066.72 11616,4067.66C11615.6,4068.06 11615.2,4068.44 11614.8,4068.82C11614.6,4069 11614.4,4069.17 11614.2,4069.34C11613.2,4070.18 11612.2,4070.96 11611.1,4071.7C11610.6,4072.08 11610.1,4072.44 11609.5,4072.79C11609.2,4073 11608.9,4073.2 11608.5,4073.4C11608.1,4073.64 11607.7,4073.86 11607.3,4074.08C11606.5,4074.47 11605.8,4074.84 11605,4075.18C11604.4,4075.44 11603.9,4075.68 11603.3,4075.9C11603.1,4075.98 11602.9,4076.05 11602.7,4076.12C11602.6,4076.17 11602.4,4076.22 11602.3,4076.26C11601.8,4076.41 11601.4,4076.54 11600.9,4076.67C11600,4076.92 11599.1,4077.13 11598.2,4077.3C11597.8,4077.38 11597.4,4077.45 11597,4077.52C11596.9,4077.54 11596.4,4077.6 11596.3,4077.61C11595.5,4077.68 11594.7,4077.73 11593.9,4077.75C11593.2,4077.77 11592.5,4077.77 11591.8,4077.75L11591.5,4077.74C11591.2,4077.73 11590.9,4077.7 11590.6,4077.67C11590.1,4077.62 11589.6,4077.56 11589.1,4077.49C11588.4,4077.4 11587.7,4077.29 11587,4077.16C11586.7,4077.09 11586.3,4077.03 11586,4076.95C11585.6,4076.87 11585.3,4076.78 11585,4076.69C11584.4,4076.54 11583.8,4076.37 11583.2,4076.19C11582.3,4075.9 11581.4,4075.59 11580.5,4075.23C11580.3,4075.15 11580.1,4075.06 11579.9,4074.97C11579.5,4074.81 11579.2,4074.65 11578.8,4074.49C11577.7,4073.95 11576.5,4073.37 11575.4,4072.75C11575.2,4072.65 11575.1,4072.54 11574.9,4072.43C11574.6,4072.23 11574.2,4072.02 11573.9,4071.81C11572.7,4071.07 11571.6,4070.28 11570.5,4069.45C11569.7,4068.85 11568.9,4068.24 11568.2,4067.6C11567.8,4067.26 11567.4,4066.91 11567,4066.56C11566.3,4065.92 11565.6,4065.26 11564.9,4064.58C11563.7,4063.38 11562.6,4062.14 11561.5,4060.85L11561.3,4060.63L11561.3,4060.62L11559.6,4055.95L11561.3,4051.59L11561.3,4051.57L11565.7,4049.89C11567.2,4050.46 11568.8,4051.04 11570.4,4051.61Z" style="fill:rgb(55,51,50);"/>
                    </g>
                </g>
            </g>
        </g>
    </g>
</svg>
