<?xml version="1.0" encoding="UTF-8" standalone="no"?>
<!DOCTYPE svg PUBLIC "-//W3C//DTD SVG 1.1//EN" "http://www.w3.org/Graphics/SVG/1.1/DTD/svg11.dtd">
<svg width="100%" height="100%" viewBox="0 0 485 297" version="1.1" xmlns="http://www.w3.org/2000/svg" xmlns:xlink="http://www.w3.org/1999/xlink" xml:space="preserve" style="fill-rule:evenodd;clip-rule:evenodd;stroke-linejoin:round;stroke-miterlimit:1.41421;">
    <g transform="matrix(1,0,0,1,-11153,-3926)">
        <g id="logo_small" transform="matrix(1,0,0,0.612371,0,1521.83)">
            <rect x="11153" y="3926" width="485" height="485" style="fill:none;"/>
            <clipPath id="_clip1">
                <rect x="11153" y="3926" width="485" height="485"/>
            </clipPath>
            <g clip-path="url(#_clip1)">
                <g transform="matrix(1.00502,0,0,1.64119,10116.9,1465.56)">
                    <path d="M1166.47,1499.18C1165.11,1499.19 1163.75,1499.21 1162.4,1499.26C1159.88,1499.35 1157.36,1499.52 1154.86,1499.77C1149.03,1500.34 1143.24,1501.36 1137.58,1502.86C1131.61,1504.44 1125.79,1506.57 1120.21,1509.21C1116.5,1510.97 1112.91,1512.96 1109.44,1515.15C1107.07,1516.64 1104.77,1518.23 1102.53,1519.9C1100.96,1521.07 1099.43,1522.28 1097.93,1523.52C1087.59,1532.11 1078.79,1542.45 1071.27,1553.57C1070.02,1555.42 1068.8,1557.29 1067.62,1559.18C1066.14,1561.55 1064.7,1563.95 1063.32,1566.39C1061.62,1569.37 1059.99,1572.39 1058.43,1575.44L1058.31,1575.68C1068.51,1620.75 1078.48,1665.87 1088.92,1710.88C1089.01,1711.22 1089.09,1711.57 1089.18,1711.92C1089.52,1713.3 1089.9,1714.67 1090.32,1716.03C1091.09,1718.54 1091.99,1721 1093.01,1723.42C1094.03,1725.81 1095.16,1728.16 1096.4,1730.44C1097.32,1732.12 1098.29,1733.77 1099.32,1735.38C1104.82,1744.04 1111.85,1751.67 1119.62,1758.33C1120.91,1759.43 1122.21,1760.51 1123.54,1761.56C1125.03,1762.74 1126.55,1763.89 1128.08,1765.02C1130.1,1766.5 1132.16,1767.92 1134.26,1769.3C1137.03,1771.14 1139.86,1772.89 1142.74,1774.56C1146.33,1776.65 1150,1778.63 1153.71,1780.5C1158.52,1782.92 1163.42,1785.16 1168.38,1787.26C1172.57,1789.02 1176.81,1790.68 1181.09,1792.24C1183.29,1793.04 1185.5,1793.81 1187.71,1794.56L1188.12,1794.7C1195.73,1787.73 1203.1,1780.49 1210.15,1772.95C1215.66,1767.06 1220.97,1760.99 1226.03,1754.72C1229.86,1749.96 1233.54,1745.09 1237.03,1740.09C1239.63,1736.37 1242.12,1732.58 1244.49,1728.7C1246.3,1725.74 1248.04,1722.73 1249.69,1719.67C1250.9,1717.41 1252.08,1715.13 1253.19,1712.82C1254.13,1710.87 1255.04,1708.89 1255.9,1706.91C1260.27,1696.8 1263.54,1686.16 1264.96,1675.23C1265.15,1673.81 1265.3,1672.38 1265.42,1670.96C1265.56,1669.22 1265.66,1667.47 1265.7,1665.72C1265.77,1663.22 1265.72,1660.72 1265.56,1658.22C1265.39,1655.49 1265.08,1652.78 1264.64,1650.08C1264.42,1648.77 1264.17,1647.46 1263.89,1646.16L1235.3,1513.56C1229.9,1511.49 1224.43,1509.57 1218.91,1507.86C1213.51,1506.18 1208.05,1504.69 1202.54,1503.44C1194.4,1501.59 1186.14,1500.25 1177.81,1499.61C1174.45,1499.35 1171.08,1499.2 1167.7,1499.18C1167.29,1499.18 1166.88,1499.18 1166.47,1499.18ZM1485.91,1528.05C1484.3,1529.72 1482.65,1531.35 1480.94,1532.92C1477.43,1536.14 1473.71,1539.14 1469.81,1541.88C1465.78,1544.7 1461.56,1547.26 1457.2,1549.54C1454.09,1551.16 1450.9,1552.65 1447.66,1553.99C1445.2,1555.01 1442.71,1555.95 1440.2,1556.81C1438.36,1557.44 1436.51,1558.03 1434.65,1558.57C1420.94,1562.6 1406.67,1564.46 1392.41,1564.78C1390.08,1564.83 1387.76,1564.84 1385.43,1564.82C1382.2,1564.78 1378.97,1564.67 1375.75,1564.49C1371.56,1564.27 1367.37,1563.92 1363.2,1563.48C1357.97,1562.92 1352.76,1562.21 1347.57,1561.36C1340.84,1560.26 1334.14,1558.93 1327.48,1557.41L1326.97,1557.29C1326.97,1609.65 1326.37,1662.02 1326.97,1714.37C1326.97,1714.53 1326.98,1714.69 1326.99,1714.85C1327.04,1715.72 1327.18,1716.58 1327.45,1717.4C1328,1719.04 1329.01,1720.48 1330.18,1721.73C1330.99,1722.6 1331.87,1723.39 1332.79,1724.12C1333.8,1724.93 1334.87,1725.67 1335.96,1726.37C1336.79,1726.9 1337.64,1727.41 1338.5,1727.9C1339.69,1728.57 1340.9,1729.2 1342.13,1729.8C1343.76,1730.6 1345.41,1731.34 1347.08,1732.04C1349.22,1732.95 1351.39,1733.79 1353.57,1734.59C1356.45,1735.66 1359.36,1736.65 1362.29,1737.6C1365.79,1738.74 1369.32,1739.82 1372.85,1740.88C1377.57,1742.3 1382.29,1743.68 1387.01,1745.08C1388.21,1745.44 1389.42,1745.8 1390.63,1746.17C1398.57,1748.57 1406.48,1751.07 1414.24,1753.99C1416.62,1754.89 1418.99,1755.83 1421.34,1756.81L1421.51,1756.88C1421.89,1756.38 1422.27,1755.88 1422.65,1755.38C1423,1754.92 1423.35,1754.46 1423.7,1754C1425.24,1752.01 1426.81,1750.03 1428.39,1748.07C1431.61,1744.11 1434.9,1740.21 1438.2,1736.32C1440.51,1733.62 1442.82,1730.91 1445.12,1728.2C1448.3,1724.45 1451.46,1720.69 1454.56,1716.87C1456.87,1714.02 1459.15,1711.13 1461.37,1708.19C1463.09,1705.93 1464.76,1703.63 1466.39,1701.3C1467.67,1699.47 1468.91,1697.63 1470.12,1695.75C1471.11,1694.22 1472.07,1692.68 1473,1691.12C1473.73,1689.88 1474.44,1688.64 1475.13,1687.39C1479.4,1679.65 1482.87,1671.4 1484.71,1662.74C1485.07,1661.08 1485.36,1659.4 1485.59,1657.72C1485.87,1655.71 1486.05,1653.69 1486.13,1651.66C1486.17,1650.85 1486.18,1650.03 1486.19,1649.21L1486.19,1648.95L1486.19,1527.76C1486.1,1527.85 1486,1527.95 1485.91,1528.05ZM1237.28,1652.38C1236.96,1654.33 1236.63,1656.27 1236.27,1658.2C1236.17,1658.77 1236.06,1659.33 1235.95,1659.9C1235.86,1660.37 1235.78,1660.84 1235.68,1661.31C1235.6,1661.67 1235.52,1662.04 1235.43,1662.4C1235.31,1662.95 1235.19,1663.5 1235.06,1664.05C1234.08,1668.25 1232.98,1672.43 1231.71,1676.56C1231,1678.86 1230.25,1681.15 1229.42,1683.41C1229.33,1683.67 1229.23,1683.91 1229.13,1684.16C1228.95,1684.62 1228.77,1685.08 1228.58,1685.54C1228.03,1686.89 1227.46,1688.24 1226.86,1689.57C1226.13,1691.2 1225.37,1692.8 1224.56,1694.39C1224.3,1694.91 1224.03,1695.43 1223.75,1695.94C1223.64,1696.16 1223.52,1696.38 1223.4,1696.6C1222.46,1698.27 1221.46,1699.9 1220.41,1701.5C1218.6,1704.25 1216.64,1706.9 1214.49,1709.4C1214.35,1709.57 1214.18,1709.73 1214.03,1709.89C1213.81,1710.13 1213.59,1710.36 1213.37,1710.6C1212.7,1711.29 1212.02,1711.97 1211.32,1712.63C1209.48,1714.38 1207.53,1716.02 1205.47,1717.52C1204.45,1718.27 1203.4,1718.98 1202.33,1719.65L1202.22,1719.72C1200.71,1720.59 1199.16,1721.39 1197.57,1722.11C1197.09,1722.33 1196.61,1722.54 1196.12,1722.74C1195.93,1722.82 1195.73,1722.9 1195.54,1722.98C1195.42,1723.02 1195.31,1723.07 1195.2,1723.11C1193.63,1723.67 1192.02,1724.15 1190.4,1724.55C1189.89,1724.67 1189.37,1724.79 1188.86,1724.9C1188.75,1724.92 1188.65,1724.94 1188.55,1724.96C1188.43,1724.98 1188.32,1725.01 1188.21,1725.03C1186.65,1725.28 1185.08,1725.46 1183.51,1725.56C1182.98,1725.6 1182.45,1725.62 1181.92,1725.64C1181.74,1725.64 1181.45,1725.65 1181.27,1725.65C1180.21,1725.64 1179.15,1725.61 1178.09,1725.53C1177.24,1725.48 1176.39,1725.39 1175.54,1725.29C1175.22,1725.26 1174.91,1725.21 1174.59,1725.17C1174.47,1725.15 1174.35,1725.14 1174.23,1725.12C1170.94,1724.54 1167.72,1723.63 1164.59,1722.47C1163.46,1722.05 1162.34,1721.6 1161.23,1721.11L1161.02,1721.01C1158.35,1719.72 1155.77,1718.23 1153.29,1716.61C1152.52,1716.1 1151.75,1715.58 1150.99,1715.04C1150.71,1714.84 1150.42,1714.63 1150.14,1714.43C1150.03,1714.35 1149.92,1714.27 1149.81,1714.19C1149.17,1713.69 1148.53,1713.18 1147.9,1712.66C1146.59,1711.58 1145.31,1710.46 1144.06,1709.31C1143.33,1708.64 1142.61,1707.96 1141.9,1707.26C1141.47,1706.85 1141.04,1706.43 1140.63,1706.01C1140.42,1705.8 1140.23,1705.58 1140.03,1705.37C1139.68,1704.99 1139.34,1704.61 1139,1704.22C1137.94,1703.05 1136.91,1701.85 1135.91,1700.64C1132.79,1696.88 1129.88,1692.96 1127.13,1688.93C1127.05,1688.8 1126.97,1688.67 1126.89,1688.54C1126.65,1688.17 1126.41,1687.79 1126.17,1687.42C1125.53,1686.4 1124.9,1685.38 1124.27,1684.35C1122.36,1681.19 1120.54,1677.99 1118.79,1674.75L1118.66,1674.51C1119.32,1674.98 1119.97,1675.46 1120.62,1675.92C1121.14,1676.29 1121.66,1676.66 1122.18,1677.02C1123.94,1678.25 1125.71,1679.46 1127.5,1680.64C1129.08,1681.68 1130.68,1682.69 1132.29,1683.68C1132.41,1683.76 1132.53,1683.84 1132.64,1683.91C1132.99,1684.14 1133.35,1684.37 1133.7,1684.59C1137.1,1686.75 1140.56,1688.81 1144.13,1690.68C1145.89,1691.6 1147.67,1692.47 1149.47,1693.3L1149.78,1693.43C1149.98,1693.53 1150.17,1693.63 1150.37,1693.72C1150.66,1693.87 1150.96,1694.01 1151.25,1694.15C1151.64,1694.33 1152.03,1694.51 1152.42,1694.69C1153.45,1695.15 1154.49,1695.61 1155.53,1696.03C1156.77,1696.54 1158.02,1697 1159.29,1697.44C1159.56,1697.54 1159.83,1697.64 1160.1,1697.74C1161.56,1698.27 1163.04,1698.75 1164.54,1699.16C1165.82,1699.52 1167.12,1699.81 1168.42,1700.05C1168.57,1700.08 1168.71,1700.11 1168.85,1700.14C1169.07,1700.19 1169.28,1700.24 1169.49,1700.28C1170.63,1700.51 1171.78,1700.7 1172.93,1700.82C1174.21,1700.96 1175.5,1701.02 1176.78,1700.99C1177.02,1701 1177.26,1701 1177.5,1701.01C1178.49,1701.01 1179.48,1700.96 1180.46,1700.86C1180.67,1700.85 1180.89,1700.83 1181.1,1700.81C1182.03,1700.73 1182.95,1700.59 1183.87,1700.41C1184.07,1700.38 1184.28,1700.35 1184.49,1700.32C1185.46,1700.15 1186.42,1699.93 1187.37,1699.66C1187.59,1699.61 1187.8,1699.56 1188.02,1699.5C1189.14,1699.21 1190.24,1698.85 1191.32,1698.42C1191.51,1698.36 1191.7,1698.29 1191.89,1698.23C1193.2,1697.75 1194.48,1697.19 1195.72,1696.56C1197.31,1695.74 1198.83,1694.8 1200.3,1693.79C1200.37,1693.74 1200.43,1693.7 1200.5,1693.66C1200.69,1693.54 1200.89,1693.41 1201.08,1693.28C1202.1,1692.61 1203.1,1691.9 1204.07,1691.16C1206.08,1689.64 1207.98,1687.99 1209.8,1686.25C1210.1,1685.98 1210.4,1685.71 1210.7,1685.43C1213.51,1682.81 1216.15,1680.01 1218.65,1677.08C1218.94,1676.75 1219.24,1676.42 1219.54,1676.09C1224.07,1670.92 1228.21,1665.43 1232.09,1659.77C1232.36,1659.38 1232.63,1659 1232.91,1658.61C1233.56,1657.67 1234.22,1656.73 1234.86,1655.78C1235.64,1654.64 1236.41,1653.5 1237.17,1652.34L1237.32,1652.12C1237.31,1652.21 1237.29,1652.3 1237.28,1652.38ZM1428.18,1679.65C1428.86,1679.66 1429.55,1679.68 1430.23,1679.71L1430.33,1679.71C1432.8,1679.93 1435.26,1680.31 1437.67,1680.88C1438.05,1680.97 1438.42,1681.07 1438.79,1681.16C1438.92,1681.2 1439.05,1681.23 1439.18,1681.27C1440.49,1681.67 1441.77,1682.12 1443.03,1682.63C1444.56,1683.26 1446.05,1683.98 1447.48,1684.8C1447.6,1684.87 1447.71,1684.94 1447.82,1685.01C1448.01,1685.13 1448.21,1685.26 1448.4,1685.38C1449.07,1685.82 1449.72,1686.28 1450.36,1686.77C1452.7,1688.58 1454.79,1690.77 1456.27,1693.36C1456.68,1694.07 1457.04,1694.82 1457.34,1695.58C1457.43,1695.82 1457.52,1696.06 1457.6,1696.3C1457.63,1696.39 1457.67,1696.5 1457.69,1696.59C1458.06,1697.84 1458.27,1699.13 1458.29,1700.43C1458.3,1700.97 1458.28,1701.51 1458.22,1702.05C1458.19,1702.38 1458.14,1702.72 1458.07,1703.05L1458.07,1703.06L1456.96,1705.26L1455.22,1706.24L1455.21,1706.24C1455.21,1706.24 1455.21,1706.24 1455.2,1706.24L1453.48,1705.43L1452.06,1703.35C1452.04,1703.29 1452.01,1703.24 1451.99,1703.18L1451.98,1703.15L1451.98,1703.18L1451.94,1703.09L1451.9,1702.99L1451.9,1703.03L1451.87,1702.93L1451.82,1702.84L1451.83,1702.88L1451.79,1702.78L1451.74,1702.69L1451.75,1702.73L1451.7,1702.64L1451.66,1702.55L1451.66,1702.59L1451.62,1702.5L1451.57,1702.41L1451.58,1702.45L1451.53,1702.36L1451.49,1702.28L1451.49,1702.31L1451.45,1702.23L1451.4,1702.15L1451.4,1702.18L1451.36,1702.1L1451.31,1702.02L1451.31,1702.06L1451.26,1701.98L1451.21,1701.9L1451.22,1701.93L1451.17,1701.85L1451.12,1701.78L1451.13,1701.81L1451.07,1701.74L1451.02,1701.66L1451.03,1701.7L1450.98,1701.62L1450.92,1701.55L1450.93,1701.59L1450.88,1701.51L1450.82,1701.44L1450.83,1701.48L1450.78,1701.4L1450.72,1701.33L1450.73,1701.37L1450.67,1701.3L1450.61,1701.23L1450.63,1701.27L1450.57,1701.2L1450.51,1701.13L1450.52,1701.17L1450.46,1701.1L1450.4,1701.04L1450.42,1701.07L1450.36,1701.01L1450.29,1700.94L1450.31,1700.98L1450.25,1700.91L1450.18,1700.85L1450.2,1700.89L1450.13,1700.83L1450.07,1700.76L1450.09,1700.8C1450.03,1700.74 1450.03,1700.74 1449.96,1700.68L1449.96,1700.68L1449.98,1700.72L1449.91,1700.65L1449.85,1700.59L1449.87,1700.63L1449.8,1700.57L1449.74,1700.51L1449.76,1700.55L1449.69,1700.49L1449.62,1700.43L1449.64,1700.47L1449.58,1700.41L1449.51,1700.35L1449.53,1700.39L1449.46,1700.33L1449.39,1700.28L1449.42,1700.31L1449.35,1700.26L1449.27,1700.2L1449.3,1700.24L1449.23,1700.18L1449.15,1700.13L1449.18,1700.17L1449.11,1700.11L1449.03,1700.06L1449.06,1700.1L1448.98,1700.04L1448.91,1699.99L1448.94,1700.03L1448.86,1699.98L1448.79,1699.93L1448.81,1699.96L1448.74,1699.91L1448.66,1699.86L1448.69,1699.9L1448.61,1699.85C1447.61,1699.36 1446.52,1699.06 1445.42,1698.88C1445.13,1698.83 1444.84,1698.79 1444.55,1698.76C1444.37,1698.74 1444.2,1698.72 1444.02,1698.72L1443.82,1698.7C1443.57,1698.68 1443.32,1698.67 1443.07,1698.66C1442.89,1698.66 1442.85,1698.66 1442.67,1698.66C1442.6,1698.66 1442.53,1698.66 1442.45,1698.66C1442.26,1698.66 1442.08,1698.65 1441.88,1698.65C1440.83,1698.65 1439.77,1698.72 1438.71,1698.85C1438.34,1698.9 1437.97,1698.96 1437.6,1699.02C1437.44,1699.05 1437.29,1699.08 1437.14,1699.1C1436.91,1699.14 1436.91,1699.14 1436.68,1699.17C1435.98,1699.29 1435.28,1699.43 1434.59,1699.59C1433.64,1699.82 1432.71,1700.09 1431.79,1700.39C1431.61,1700.44 1431.43,1700.5 1431.25,1700.55C1430.51,1700.76 1429.78,1700.99 1429.07,1701.25C1428.34,1701.52 1427.62,1701.81 1426.91,1702.12C1426.74,1702.18 1426.57,1702.24 1426.4,1702.31C1425.85,1702.51 1425.31,1702.73 1424.77,1702.97C1424.58,1703.03 1424.39,1703.1 1424.2,1703.17C1423.79,1703.33 1423.38,1703.49 1422.97,1703.65L1422.83,1703.71C1422.62,1703.78 1422.42,1703.85 1422.21,1703.92C1421.96,1704.01 1421.96,1704.01 1421.71,1704.1C1421.46,1704.19 1421.21,1704.29 1420.97,1704.38C1420.79,1704.44 1420.61,1704.5 1420.43,1704.56C1420,1704.71 1419.57,1704.87 1419.14,1705.03L1419.03,1705.08C1418.76,1705.16 1418.49,1705.25 1418.21,1705.34C1417.94,1705.43 1417.68,1705.53 1417.41,1705.62C1416.6,1705.92 1415.8,1706.25 1415.02,1706.61C1414.78,1706.69 1414.55,1706.79 1414.32,1706.88C1413.15,1707.34 1412.01,1707.86 1410.9,1708.45C1410.68,1708.55 1410.47,1708.65 1410.25,1708.76C1409.08,1709.34 1407.93,1709.98 1406.83,1710.68C1406.61,1710.81 1406.39,1710.94 1406.17,1711.07C1405.44,1711.51 1404.74,1711.96 1404.05,1712.44C1402.44,1713.57 1400.92,1714.82 1399.51,1716.18C1399.32,1716.35 1399.12,1716.53 1398.93,1716.7C1398.14,1717.44 1397.37,1718.2 1396.63,1719C1395.85,1719.84 1395.11,1720.72 1394.39,1721.62C1394.34,1721.68 1394.29,1721.75 1394.24,1721.81L1394.23,1721.82L1392.3,1723.37L1390.4,1723.64L1390.38,1723.63L1389.06,1722.22L1388.57,1719.79C1388.58,1719.27 1388.62,1718.74 1388.66,1718.21C1388.72,1717.43 1388.8,1716.65 1388.9,1715.88C1389.04,1714.77 1389.21,1713.66 1389.42,1712.56C1389.53,1711.99 1389.64,1711.42 1389.77,1710.86C1389.8,1710.76 1389.83,1710.65 1389.86,1710.55C1389.92,1710.31 1389.99,1710.06 1390.06,1709.82C1390.29,1709.01 1390.54,1708.2 1390.81,1707.4C1391.42,1705.59 1392.14,1703.8 1392.95,1702.06C1393.34,1701.24 1393.75,1700.42 1394.18,1699.62L1394.23,1699.53C1394.92,1698.37 1395.65,1697.22 1396.43,1696.11C1396.95,1695.38 1397.48,1694.66 1398.03,1693.95L1398.1,1693.86C1399.16,1692.61 1400.27,1691.4 1401.44,1690.24C1401.78,1689.91 1402.12,1689.58 1402.47,1689.25C1402.59,1689.14 1402.7,1689.03 1402.82,1688.92C1402.88,1688.87 1402.94,1688.81 1403,1688.76C1404.2,1687.76 1405.45,1686.81 1406.73,1685.92C1407.17,1685.6 1407.63,1685.3 1408.08,1685C1408.16,1684.95 1408.56,1684.68 1408.68,1684.61C1408.87,1684.49 1409.07,1684.39 1409.26,1684.28C1409.52,1684.13 1409.79,1683.98 1410.06,1683.84C1410.46,1683.62 1410.87,1683.4 1411.27,1683.2C1411.42,1683.12 1411.56,1683.04 1411.7,1682.98C1412.66,1682.55 1413.62,1682.14 1414.59,1681.75L1414.77,1681.68C1415.84,1681.33 1416.91,1681.01 1417.99,1680.71L1418.11,1680.68C1418.92,1680.5 1419.74,1680.33 1420.56,1680.19C1420.85,1680.14 1421.13,1680.09 1421.42,1680.05C1421.57,1680.02 1421.73,1679.99 1421.89,1679.97C1423.14,1679.84 1424.41,1679.74 1425.67,1679.69C1426.23,1679.67 1426.79,1679.66 1427.35,1679.65C1427.76,1679.65 1427.76,1679.65 1428.18,1679.65ZM1391.54,1617.5C1393.28,1618.1 1393.3,1618.12 1394.67,1619.33L1395.84,1622.95C1395.78,1624.19 1395.68,1625.42 1395.56,1626.65C1395.44,1627.8 1395.3,1628.95 1395.12,1630.09C1395.07,1630.43 1395.01,1630.76 1394.95,1631.09C1394.85,1631.6 1394.75,1632.1 1394.64,1632.61C1394.33,1634.06 1393.96,1635.5 1393.52,1636.92C1393.32,1637.56 1393.1,1638.19 1392.87,1638.82C1392.84,1638.91 1392.8,1639 1392.77,1639.09C1392.29,1640.29 1391.76,1641.47 1391.14,1642.61C1390.95,1642.97 1390.76,1643.33 1390.55,1643.68C1390.34,1644.03 1390.12,1644.37 1389.9,1644.7C1389.41,1645.44 1388.88,1646.16 1388.31,1646.85C1387.99,1647.24 1387.65,1647.63 1387.3,1648C1387.17,1648.14 1387.03,1648.28 1386.9,1648.41C1386.71,1648.6 1386.52,1648.78 1386.32,1648.95C1385.49,1649.72 1384.59,1650.42 1383.65,1651.05C1383.46,1651.17 1383.27,1651.3 1383.08,1651.41C1383.01,1651.46 1382.8,1651.58 1382.76,1651.6C1382.45,1651.77 1382.14,1651.93 1381.83,1652.08C1381.13,1652.43 1380.4,1652.74 1379.67,1653C1379.28,1653.14 1378.89,1653.27 1378.5,1653.38C1378.39,1653.41 1378.28,1653.43 1378.17,1653.45C1378,1653.49 1377.83,1653.53 1377.66,1653.57C1377.15,1653.67 1376.63,1653.76 1376.12,1653.82C1374.93,1653.97 1373.73,1654.02 1372.54,1653.97C1372.34,1653.96 1372.14,1653.94 1371.94,1653.92C1371.68,1653.9 1371.42,1653.87 1371.16,1653.83C1370.19,1653.71 1369.24,1653.53 1368.29,1653.29C1367.63,1653.12 1366.97,1652.93 1366.32,1652.72C1365.94,1652.59 1365.56,1652.44 1365.19,1652.3C1364.41,1651.99 1363.64,1651.65 1362.88,1651.28C1362.14,1650.92 1361.41,1650.54 1360.7,1650.13C1360.4,1649.96 1360.12,1649.78 1359.83,1649.6C1359.23,1649.23 1358.64,1648.85 1358.06,1648.45C1357.54,1648.1 1357.04,1647.73 1356.54,1647.36C1356.33,1647.21 1356.13,1647.06 1355.93,1646.9C1355.45,1646.53 1354.98,1646.15 1354.52,1645.76C1353.3,1644.74 1352.12,1643.68 1350.98,1642.58C1350.55,1642.16 1350.12,1641.75 1349.7,1641.33C1349.52,1641.14 1349.34,1640.96 1349.16,1640.77C1348.34,1639.91 1347.54,1639.04 1346.75,1638.15L1346.66,1638.04L1346.53,1637.25L1347.32,1637.16C1347.66,1637.32 1348.01,1637.49 1348.35,1637.65C1348.68,1637.8 1349.02,1637.96 1349.35,1638.11C1349.78,1638.3 1350.2,1638.49 1350.63,1638.68C1351.07,1638.87 1351.51,1639.07 1351.95,1639.26C1352.78,1639.61 1353.6,1639.95 1354.44,1640.27C1355.41,1640.64 1356.39,1640.99 1357.38,1641.31C1357.81,1641.45 1358.24,1641.58 1358.67,1641.72C1358.98,1641.81 1359.29,1641.9 1359.6,1642C1360.12,1642.15 1360.64,1642.29 1361.17,1642.42C1361.67,1642.55 1362.17,1642.66 1362.68,1642.77C1362.96,1642.83 1363.23,1642.88 1363.51,1642.93C1363.86,1643 1364.22,1643.07 1364.57,1643.12C1365.29,1643.24 1366.02,1643.33 1366.75,1643.39C1367.08,1643.41 1367.42,1643.43 1367.75,1643.44C1367.91,1643.45 1368.06,1643.45 1368.21,1643.45C1368.44,1643.46 1368.66,1643.47 1368.89,1643.47C1369.46,1643.47 1370.04,1643.44 1370.6,1643.38C1370.96,1643.34 1371.32,1643.29 1371.68,1643.22C1371.77,1643.2 1371.87,1643.18 1371.96,1643.16C1372.02,1643.15 1372.08,1643.13 1372.14,1643.12C1372.44,1643.06 1372.74,1643 1373.04,1642.92C1373.67,1642.75 1374.3,1642.52 1374.88,1642.22C1374.97,1642.18 1375.07,1642.14 1375.16,1642.1C1375.52,1641.93 1375.88,1641.75 1376.22,1641.53C1376.34,1641.45 1376.46,1641.37 1376.58,1641.29C1376.62,1641.26 1376.67,1641.23 1376.71,1641.2C1376.82,1641.12 1376.93,1641.05 1377.04,1640.98C1377.26,1640.82 1377.47,1640.66 1377.67,1640.49C1377.89,1640.31 1378.1,1640.12 1378.3,1639.92C1378.39,1639.82 1378.49,1639.72 1378.58,1639.63C1378.7,1639.51 1378.82,1639.39 1378.93,1639.27C1379.19,1638.99 1379.43,1638.7 1379.66,1638.41C1379.94,1638.07 1380.19,1637.71 1380.43,1637.34C1380.54,1637.18 1380.65,1637.03 1380.75,1636.87C1381.01,1636.47 1381.25,1636.07 1381.48,1635.66C1381.63,1635.38 1381.78,1635.11 1381.92,1634.83C1381.98,1634.7 1382.05,1634.57 1382.11,1634.44C1382.26,1634.15 1382.4,1633.86 1382.54,1633.57C1382.78,1633.05 1383.01,1632.52 1383.22,1631.98C1383.57,1631.11 1383.89,1630.22 1384.17,1629.32C1384.34,1628.82 1384.48,1628.31 1384.63,1627.8C1384.8,1627.22 1384.96,1626.64 1385.12,1626.06C1385.49,1624.65 1385.79,1623.23 1386.07,1621.8L1386.07,1621.8L1388.06,1618.54L1391.52,1617.5C1391.53,1617.5 1391.54,1617.5 1391.54,1617.5ZM1122.15,1604.87C1123.33,1604.88 1124.5,1604.94 1125.67,1605.05C1127.05,1605.18 1128.42,1605.38 1129.78,1605.64C1130.06,1605.7 1130.34,1605.76 1130.62,1605.82C1131.08,1605.93 1131.54,1606.04 1132,1606.15C1133.87,1606.63 1135.72,1607.24 1137.52,1607.94C1137.62,1607.98 1137.72,1608.02 1137.82,1608.06L1137.83,1608.06L1140.2,1609.7C1141.7,1612.04 1141.71,1612.08 1142.23,1614.81L1141.65,1617.62L1141.64,1617.64L1140,1620.01C1137.66,1621.51 1137.62,1621.52 1134.89,1622.05L1132.08,1621.46C1131.99,1621.42 1131.91,1621.38 1131.83,1621.34C1131.64,1621.26 1131.46,1621.17 1131.28,1621.09C1131.08,1621 1130.89,1620.91 1130.7,1620.83C1129.9,1620.49 1129.08,1620.16 1128.26,1619.88C1127.7,1619.69 1127.15,1619.53 1126.59,1619.37C1125.64,1619.1 1124.68,1618.87 1123.71,1618.69C1122.83,1618.54 1121.94,1618.42 1121.04,1618.36C1120.75,1618.34 1120.45,1618.32 1120.16,1618.31C1120.03,1618.3 1119.9,1618.3 1119.77,1618.29C1118.89,1618.26 1118.02,1618.25 1117.15,1618.3C1115.64,1618.37 1114.14,1618.58 1112.66,1618.88C1112.48,1618.92 1112.29,1618.95 1112.11,1618.99C1111.8,1619.05 1111.49,1619.12 1111.19,1619.19C1110.58,1619.33 1109.98,1619.49 1109.38,1619.66C1109.3,1619.68 1109.22,1619.7 1109.14,1619.72C1108.88,1619.79 1108.63,1619.86 1108.38,1619.93C1107.74,1620.12 1107.11,1620.32 1106.49,1620.53C1106.21,1620.62 1105.94,1620.7 1105.66,1620.79C1105.06,1620.98 1104.46,1621.19 1103.86,1621.41C1103.66,1621.48 1103.46,1621.56 1103.26,1621.64C1103.12,1621.69 1102.99,1621.75 1102.85,1621.79C1102.58,1621.89 1102.3,1622 1102.03,1622.1C1101.32,1622.37 1100.63,1622.65 1099.93,1622.94C1099.65,1623.06 1099.37,1623.18 1099.09,1623.31C1098.95,1623.37 1098.81,1623.44 1098.66,1623.5C1098.38,1623.62 1098.09,1623.75 1097.8,1623.87C1096.62,1624.4 1095.45,1624.95 1094.3,1625.54C1092.98,1626.22 1091.67,1626.93 1090.38,1627.68C1090.04,1627.86 1089.71,1628.05 1089.37,1628.24C1088.29,1628.85 1087.21,1629.48 1086.15,1630.13C1084.46,1631.16 1082.8,1632.24 1081.15,1633.34L1081.03,1633.42C1081.32,1632.94 1081.63,1632.47 1081.93,1631.99C1082.43,1631.21 1082.95,1630.43 1083.46,1629.66C1084.29,1628.44 1085.12,1627.23 1085.99,1626.04C1086.31,1625.6 1086.63,1625.16 1086.96,1624.72C1087.09,1624.55 1087.22,1624.37 1087.36,1624.2C1088.77,1622.41 1090.25,1620.67 1091.8,1618.99C1092.28,1618.48 1092.76,1617.97 1093.25,1617.46C1093.53,1617.18 1093.81,1616.89 1094.09,1616.62C1094.25,1616.47 1094.4,1616.32 1094.56,1616.18C1094.94,1615.82 1095.33,1615.47 1095.72,1615.12C1096.17,1614.72 1096.63,1614.33 1097.1,1613.93C1097.3,1613.77 1097.5,1613.6 1097.7,1613.44C1097.77,1613.38 1097.85,1613.32 1097.92,1613.26C1098.39,1612.89 1098.87,1612.54 1099.35,1612.2C1099.84,1611.85 1100.33,1611.5 1100.83,1611.17C1101.04,1611.03 1101.26,1610.88 1101.47,1610.74C1101.56,1610.69 1101.64,1610.63 1101.72,1610.58C1102.44,1610.15 1103.18,1609.74 1103.92,1609.34C1104.14,1609.22 1104.37,1609.1 1104.6,1608.99C1104.77,1608.9 1104.94,1608.81 1105.12,1608.73C1106.02,1608.3 1106.94,1607.9 1107.88,1607.53C1108.19,1607.41 1108.51,1607.29 1108.84,1607.17C1108.97,1607.12 1109.18,1607.04 1109.32,1606.99C1110.22,1606.7 1111.12,1606.42 1112.03,1606.18C1113.71,1605.74 1115.41,1605.4 1117.13,1605.18C1117.65,1605.11 1118.17,1605.05 1118.7,1605C1118.96,1604.98 1119.23,1604.95 1119.49,1604.94C1119.75,1604.92 1120.02,1604.91 1120.29,1604.9C1120.55,1604.89 1120.82,1604.88 1121.08,1604.88C1121.44,1604.87 1121.8,1604.87 1122.15,1604.87ZM1434.25,1607.29C1434.44,1607.46 1434.64,1607.62 1434.84,1607.79C1435.09,1607.99 1435.33,1608.18 1435.58,1608.38C1436.11,1608.79 1436.64,1609.19 1437.19,1609.58C1437.56,1609.84 1437.94,1610.1 1438.31,1610.35C1438.62,1610.55 1438.93,1610.76 1439.25,1610.96C1439.96,1611.41 1440.69,1611.83 1441.44,1612.23C1441.87,1612.45 1442.31,1612.67 1442.75,1612.87C1442.99,1612.98 1443.24,1613.09 1443.49,1613.2C1444,1613.42 1444.51,1613.64 1445.04,1613.84C1445.32,1613.94 1445.6,1614.04 1445.89,1614.13C1446,1614.17 1446.11,1614.2 1446.21,1614.24C1446.7,1614.4 1447.2,1614.55 1447.7,1614.68C1447.97,1614.75 1448.25,1614.82 1448.53,1614.88C1448.64,1614.9 1448.76,1614.92 1448.87,1614.95C1448.99,1614.97 1449.1,1615 1449.21,1615.03C1449.4,1615.06 1449.58,1615.1 1449.76,1615.13C1450.29,1615.23 1450.83,1615.3 1451.37,1615.35C1451.51,1615.38 1451.66,1615.39 1451.81,1615.41C1452.41,1615.49 1453.01,1615.53 1453.62,1615.54C1453.76,1615.56 1453.9,1615.57 1454.05,1615.58C1454.87,1615.64 1455.69,1615.65 1456.52,1615.6C1456.69,1615.6 1456.86,1615.6 1457.02,1615.59C1457.67,1615.57 1458.32,1615.51 1458.97,1615.42C1459.19,1615.39 1459.42,1615.36 1459.64,1615.32C1459.78,1615.3 1459.92,1615.27 1460.06,1615.24C1460.27,1615.21 1460.48,1615.17 1460.69,1615.13C1461.05,1615.07 1461.41,1614.99 1461.77,1614.9C1462.27,1614.78 1462.77,1614.64 1463.27,1614.49C1463.5,1614.42 1463.74,1614.34 1463.97,1614.26C1464.12,1614.21 1464.28,1614.16 1464.43,1614.11C1464.84,1613.98 1465.24,1613.83 1465.63,1613.68C1466.39,1613.39 1467.13,1613.06 1467.87,1612.72C1468.18,1612.57 1468.49,1612.43 1468.8,1612.28C1469.33,1612.02 1469.85,1611.76 1470.36,1611.48C1471.22,1611.01 1472.06,1610.51 1472.89,1609.99C1473.33,1609.71 1473.77,1609.42 1474.21,1609.13C1474.49,1608.94 1474.76,1608.76 1475.04,1608.58C1475.59,1608.2 1476.13,1607.82 1476.67,1607.42L1476.77,1607.35L1477.56,1607.27L1477.61,1608.07C1477.33,1608.62 1477.03,1609.17 1476.73,1609.71C1476.52,1610.1 1476.3,1610.5 1476.07,1610.88C1475.5,1611.86 1474.88,1612.81 1474.24,1613.74C1473.65,1614.59 1473.03,1615.42 1472.39,1616.23C1472.09,1616.61 1471.79,1616.99 1471.47,1617.35C1470.79,1618.14 1470.07,1618.89 1469.32,1619.62C1469.01,1619.92 1468.69,1620.22 1468.37,1620.51C1468.22,1620.64 1468.07,1620.78 1467.91,1620.91C1467.16,1621.55 1466.38,1622.15 1465.57,1622.72C1465.16,1623.01 1464.75,1623.29 1464.33,1623.56C1464.08,1623.72 1463.83,1623.87 1463.58,1624.02C1463.26,1624.2 1462.94,1624.38 1462.62,1624.54C1462.04,1624.85 1461.45,1625.13 1460.86,1625.39C1460.42,1625.59 1459.97,1625.77 1459.52,1625.95C1459.37,1626 1459.22,1626.06 1459.06,1626.12C1458.97,1626.15 1458.88,1626.19 1458.79,1626.22C1458.42,1626.33 1458.06,1626.44 1457.69,1626.54C1457,1626.72 1456.31,1626.89 1455.61,1627.02C1455.3,1627.08 1454.98,1627.14 1454.67,1627.19C1454.6,1627.2 1454.28,1627.25 1454.2,1627.26C1453.58,1627.31 1452.96,1627.35 1452.33,1627.37C1451.79,1627.38 1451.24,1627.38 1450.7,1627.36L1450.46,1627.36C1450.23,1627.35 1450,1627.32 1449.77,1627.3C1449.39,1627.26 1449,1627.22 1448.62,1627.17C1448.09,1627.1 1447.56,1627.01 1447.03,1626.91C1446.77,1626.86 1446.5,1626.81 1446.24,1626.75C1445.98,1626.69 1445.72,1626.62 1445.46,1626.55C1445.02,1626.43 1444.58,1626.3 1444.15,1626.17C1443.44,1625.94 1442.75,1625.7 1442.07,1625.43C1441.9,1625.37 1441.74,1625.3 1441.58,1625.23C1441.3,1625.11 1441.02,1624.98 1440.75,1624.86C1439.86,1624.45 1438.99,1624 1438.14,1623.52C1438.01,1623.44 1437.87,1623.36 1437.74,1623.28C1437.48,1623.12 1437.22,1622.96 1436.97,1622.8C1436.07,1622.23 1435.2,1621.63 1434.36,1620.99C1433.76,1620.53 1433.16,1620.06 1432.58,1619.57C1432.27,1619.31 1431.96,1619.04 1431.65,1618.77C1431.11,1618.28 1430.58,1617.77 1430.07,1617.25C1429.14,1616.33 1428.26,1615.38 1427.41,1614.39L1427.27,1614.22L1427.26,1614.21L1425.96,1610.62L1427.29,1607.27L1427.31,1607.26L1430.66,1605.97C1431.86,1606.41 1433.05,1606.85 1434.25,1607.29ZM1215.7,1581.02C1216,1581.02 1216.3,1581.02 1216.6,1581.03C1216.68,1581.04 1216.77,1581.04 1216.85,1581.05C1217.01,1581.06 1217.16,1581.07 1217.32,1581.08C1217.78,1581.12 1218.24,1581.16 1218.7,1581.21C1219.61,1581.31 1220.51,1581.44 1221.41,1581.6C1221.5,1581.61 1221.59,1581.63 1221.68,1581.65C1221.91,1581.7 1222.13,1581.75 1222.36,1581.8C1222.97,1581.93 1223.58,1582.08 1224.18,1582.24C1225.56,1582.59 1226.91,1583 1228.26,1583.46C1228.94,1583.69 1229.61,1583.94 1230.29,1584.19L1230.47,1584.26C1233.61,1585.53 1236.65,1587.02 1239.64,1588.61L1239.75,1588.68C1239.24,1588.66 1238.73,1588.64 1238.22,1588.63C1237.88,1588.62 1237.55,1588.62 1237.21,1588.61C1236.22,1588.6 1235.23,1588.6 1234.24,1588.61C1232.74,1588.64 1231.23,1588.7 1229.73,1588.81C1229.37,1588.83 1229,1588.85 1228.64,1588.87C1227.07,1588.98 1225.51,1589.14 1223.95,1589.39C1223.35,1589.48 1222.76,1589.59 1222.16,1589.71C1221.97,1589.75 1221.78,1589.79 1221.58,1589.83C1221.51,1589.85 1221.43,1589.87 1221.36,1589.88C1220.57,1590.04 1219.78,1590.22 1219.01,1590.43C1218.72,1590.51 1218.42,1590.59 1218.14,1590.68C1217.96,1590.73 1217.79,1590.79 1217.61,1590.84C1217.28,1590.94 1216.95,1591.04 1216.63,1591.14C1215.92,1591.38 1215.22,1591.64 1214.54,1591.93C1214.36,1592 1214.18,1592.07 1214,1592.14C1213.61,1592.3 1213.23,1592.46 1212.85,1592.64C1212.63,1592.74 1212.42,1592.84 1212.21,1592.94C1212.06,1593.02 1211.9,1593.1 1211.74,1593.17C1211.42,1593.33 1211.11,1593.5 1210.81,1593.67C1210.59,1593.79 1210.37,1593.92 1210.16,1594.05C1210.03,1594.13 1209.9,1594.22 1209.76,1594.3C1209.47,1594.48 1209.19,1594.67 1208.9,1594.86C1208.37,1595.23 1207.84,1595.62 1207.34,1596.04C1206.83,1596.47 1206.33,1596.93 1205.86,1597.41C1205.6,1597.67 1205.35,1597.94 1205.1,1598.21C1204.91,1598.42 1204.71,1598.63 1204.53,1598.85C1204.11,1599.33 1203.71,1599.82 1203.33,1600.33C1202.61,1601.29 1201.97,1602.28 1201.36,1603.31C1201,1603.92 1200.66,1604.54 1200.33,1605.17C1199.84,1606.11 1199.39,1607.07 1198.96,1608.04C1198.93,1608.12 1198.89,1608.2 1198.86,1608.28L1198.86,1608.29L1197.11,1610.58C1194.7,1611.97 1194.67,1611.98 1191.92,1612.38L1189.13,1611.67L1189.11,1611.66L1186.82,1609.91C1185.43,1607.51 1185.41,1607.48 1185.02,1604.73L1185.73,1601.94C1185.81,1601.78 1185.93,1601.55 1186.02,1601.39C1186.21,1601.04 1186.4,1600.68 1186.6,1600.32C1187.14,1599.37 1187.7,1598.43 1188.29,1597.51C1188.71,1596.85 1189.15,1596.19 1189.61,1595.55C1190.72,1594 1191.93,1592.51 1193.24,1591.12C1193.78,1590.54 1194.34,1589.97 1194.92,1589.43C1195.25,1589.12 1195.58,1588.81 1195.92,1588.52C1197.5,1587.16 1199.2,1585.94 1201.01,1584.9C1201.99,1584.33 1203.01,1583.81 1204.04,1583.35C1204.12,1583.32 1204.19,1583.28 1204.26,1583.25C1205.22,1582.86 1206.19,1582.5 1207.18,1582.2C1207.59,1582.07 1208,1581.95 1208.42,1581.84C1208.61,1581.79 1208.81,1581.75 1209,1581.71C1209.46,1581.61 1209.92,1581.51 1210.38,1581.43C1210.76,1581.36 1211.15,1581.3 1211.53,1581.24C1211.73,1581.22 1211.93,1581.19 1212.12,1581.16C1212.39,1581.13 1212.65,1581.12 1212.92,1581.1C1213.54,1581.06 1214.15,1581.03 1214.77,1581.02C1215.08,1581.02 1215.39,1581.02 1215.7,1581.02Z"/>
                </g>
            </g>
        </g>
    </g>
</svg>
