<?xml version="1.0" encoding="UTF-8" standalone="no"?>
<svg width="160px" height="142px" viewBox="0 0 160 142" version="1.1" xmlns="http://www.w3.org/2000/svg" xmlns:xlink="http://www.w3.org/1999/xlink">
    <!-- Generator: Sketch 39.1 (31720) - http://www.bohemiancoding.com/sketch -->
    <title>logo</title>
    <desc>Created with Sketch.</desc>
    <defs></defs>
    <g id="Screen" stroke="none" stroke-width="1" fill="none" fill-rule="evenodd">
        <g id="Desktop-HD" transform="translate(-400.000000, -79.000000)" fill="#FFFFFF">
            <path d="M446.25952,159.419562 C449.949024,159.455995 453.448604,162.537973 453.986115,169.031196 C454.641372,176.946871 449.665009,183.741269 443.836758,185.758626 L432.305554,189.614875 L432.305554,208.077549 C432.305554,209.191539 432.844385,210.236729 433.751819,210.882904 C434.659305,211.52908 435.823244,211.696405 436.875985,211.332028 C437.707702,211.044158 438.317973,210.832902 438.317973,210.832902 L438.317973,214.558944 L419.709728,221 L419.709728,217.261761 L419.709781,217.261761 C421.83406,216.526458 423.258835,214.525574 423.258835,212.277689 C423.258835,203.720168 423.258676,179.265668 423.258676,170.708253 C423.258676,169.843219 422.840283,169.031618 422.135605,168.529906 C421.430979,168.028193 420.527189,167.898304 419.709728,168.181316 L443.836758,159.829824 C444.616678,159.555788 445.415817,159.41745 446.206772,159.419034 L446.25952,159.419562 Z M506.622637,184.060608 C507.239878,185.724042 509.073119,186.589604 510.749542,186.009272 L510.749542,186.009272 L510.749542,189.747458 L499.649772,193.589609 L499.649772,189.85137 L499.649772,189.85137 C501.104961,189.347809 501.899084,187.782215 501.446053,186.310869 C500.680443,183.82348 499.649772,181.635206 499.649772,181.635206 L488.034139,185.655929 C488.034139,185.655929 487.829801,188.068817 487.347202,190.959868 C487.230512,191.66064 487.491348,192.371179 488.034139,192.829648 C488.576403,193.288116 489.320893,193.426718 489.99199,193.194342 L489.99199,193.19429 L489.99199,196.932529 L457.453539,208.326768 L457.453539,204.457214 L457.453539,204.457214 C460.013847,203.571059 461.730927,201.159755 461.730927,198.450655 L461.730927,177.809265 C461.730927,176.766767 461.22668,175.788634 460.377116,175.18396 C459.52808,174.579286 458.438801,174.422679 457.453539,174.763666 L457.453539,174.763719 L457.453539,170.413202 C458.896583,167.617404 463.401542,165.468414 468.491532,164.585058 L468.491532,196.482138 C468.491532,197.433608 468.954595,198.325518 469.73235,198.873114 C470.510632,199.42071 471.506454,199.555405 472.401955,199.234271 C475.40262,198.158245 479.034783,196.855756 479.034783,196.855756 L483.914626,171.532842 L485.206132,164.522225 C493.30682,164.323694 496.729892,159.535196 501.446053,154.417221 L501.446053,161.585976 L501.446053,161.585976 C500.348326,162.314098 499.874176,163.687445 500.288661,164.937767 C502.069102,170.313462 506.622637,184.060608 506.622637,184.060608 L506.622637,184.060608 Z M509.440084,159.598028 C509.479685,163.422914 512.116553,164.7857 517.685447,164.7857 L517.685447,173.757442 C517.685447,181.764726 531.399381,182.188769 531.888844,168.841008 L531.888844,153.886045 C529.610492,157.747363 509.440084,163.977849 509.440084,153.284645 L509.440084,137.221606 L519.842356,133.621124 L519.842356,137.297111 L519.842356,137.297111 C518.551379,137.744333 517.685447,138.960334 517.685447,140.326817 L517.685447,150.430765 C517.685447,157.353469 531.888844,154.132097 531.888844,143.910403 L531.888844,129.45145 C531.888844,129.45145 548.845799,123.485496 552.487465,122.32124 C557.118089,120.841235 558.77392,126.889031 558.889554,127.533728 C560.93611,138.906478 540.768871,142.462607 542.605808,133.170206 C542.670753,132.841785 542.793779,132.522341 542.953765,132.228241 C543.115863,131.928861 543.362971,131.652713 543.579982,131.374453 C543.800161,131.091969 543.945891,130.68646 544.275895,130.533865 C545.134435,130.136804 547.987259,129.043301 548.729637,128.992084 C549.140955,128.9641 548.845799,129.982626 548.729637,130.228677 C548.625092,130.450968 548.248094,130.350647 548.033723,130.469977 C547.732231,130.637355 547.164095,130.921951 546.920156,131.235059 C546.681497,131.542359 546.613384,131.962125 546.572199,132.348627 C545.907966,138.604985 552.814302,137.20207 553.739899,130.713916 C553.856588,129.898673 553.415174,128.228585 552.905119,127.546928 C552.423576,126.903815 551.464187,126.456065 550.677984,126.623443 C548.555923,127.075945 541.372911,129.844816 541.372911,129.844816 L539.145776,130.615707 L539.145776,166.329066 C539.145776,184.974113 509.376195,194.231243 509.440084,176.61148 L509.440084,159.598028 C509.439556,159.53942 509.439556,159.479227 509.440084,159.419034 L509.440084,159.598028 Z M432.434546,167.365016 L432.434546,185.326083 L440.436338,182.556368 C444.299134,181.219295 446.022286,174.485565 446.022286,171.492027 C446.022286,168.533655 443.495349,163.536435 440.436338,164.59509 L432.434546,167.365016 Z M488.853607,181.722169 L498.592174,178.35137 L494.752505,165.095113 L490.973556,165.801058 L488.853607,181.722169 Z M415.747772,169.160294 C415.747772,169.160294 412.179023,170.395567 409.753516,171.235151 C400.678654,174.37632 406.823604,182.260525 409.753516,177.01963 C413.641076,170.065774 415.747772,169.160294 415.747772,169.160294 L415.747772,169.160294 Z M418.589032,118.596676 L418.589032,115.959279 L469.963617,98.1759927 C469.963617,98.1759927 481.605122,117.605078 486.476518,125.734279 C486.737881,126.170941 487.259025,126.378976 487.749543,126.243278 C488.240062,126.10758 488.579571,125.661414 488.579571,125.152415 L488.579571,99.9025766 C488.579571,98.8602902 488.074796,97.8829486 487.224704,97.2799642 C486.37514,96.6764519 485.285333,96.5228017 484.301656,96.8665345 L484.301656,96.8665345 L484.301656,93.2132518 L495.407762,89.2040922 L495.407762,130.412424 C493.337973,135.50611 488.356752,136.20836 482.719746,134.803861 L482.719746,133.207166 C482.719746,130.614651 482.012216,128.071239 480.673717,125.850968 C477.068483,119.872342 469.963617,108.08933 469.963617,108.08933 L469.963617,122.744701 C469.963617,123.943278 470.542841,125.067406 471.519126,125.762263 C472.494884,126.457649 473.747317,126.637171 474.879365,126.24539 L474.879365,126.24539 L474.914741,130.325831 C470.16954,129.060197 465.861,131.072961 463.586872,136.205192 L463.586872,111.511874 C463.586872,109.790042 462.753677,108.174867 461.351289,107.176405 C459.948902,106.177416 458.149981,105.918692 456.52319,106.482076 L456.522662,106.482076 L456.522662,117.867498 L453.600142,118.87916 L453.600142,114.528907 C453.600142,112.904757 452.814467,111.381456 451.491809,110.439491 C450.169045,109.497526 448.472346,109.253586 446.937798,109.784762 C443.988138,110.8054 440.569555,111.989192 437.808657,112.944885 C434.681375,114.0273 432.583919,116.972525 432.583919,120.282075 L432.583919,132.829641 C432.583919,132.829641 437.017016,131.294724 440.217479,130.186965 C442.14629,129.519563 443.439961,127.70269 443.439961,125.661414 L443.439961,125.661414 L445.806015,124.842474 L445.806015,136.308681 L443.439961,137.128149 L443.439961,137.127621 C443.439961,136.075302 442.930909,135.087929 442.073742,134.477552 C441.216522,133.867176 440.117052,133.709301 439.122603,134.053562 C436.094217,135.101657 432.583919,136.316602 432.583919,136.316602 L432.583919,150.137193 C432.583919,151.275049 433.135845,152.341624 434.064452,152.998993 C434.993005,153.656362 436.182764,153.822156 437.255781,153.444103 C440.691155,152.233382 445.345328,150.593392 448.808581,149.373167 C451.679621,148.361505 453.600142,145.648075 453.600142,142.604113 L453.600142,139.324131 L456.522662,138.312469 L456.522662,150.567519 L448.126343,153.473672 C448.126343,153.473672 434.181088,158.698304 421.844567,163.013708 C414.569049,165.558175 407.879143,167.918896 404.887084,168.44062 C400.419878,169.219114 399.594233,162.188432 400.154924,158.161321 C401.353289,149.555857 418.497793,142.568736 418.589032,155.844424 C418.593679,156.519746 410.929811,159.84672 410.175922,159.914305 C409.79148,159.949153 409.935467,159.058405 410.175922,158.756385 C410.697804,158.101128 413.423114,157.152827 413.307428,155.982234 C412.607607,148.900072 405.322901,151.045366 404.887084,156.523442 C404.786023,157.793299 405.354687,164.551793 408.505729,163.556499 C410.630008,162.88593 418.589032,159.934897 418.589032,159.934897 C421.228435,158.620687 422.749836,156.570434 423.398017,154.179617 L423.398017,121.623214 C422.8538,118.850119 420.960524,118.32528 418.589032,118.596676 L418.589032,118.596676 Z M484.078836,152.869103 C485.353446,154.381844 489.216348,154.715545 491.592381,155.990154 C493.200691,153.462583 496.765796,150.80037 496.765796,147.195136 L496.765796,145.271078 C498.817105,143.416188 499.945457,142.288892 500.712651,140.971514 C500.281797,141.71178 498.910562,138.023649 501.456085,139.301427 L501.456085,149.846261 C494.053951,158.633359 489.608129,160.793965 481.431408,159.704158 C474.603217,158.968116 465.777047,158.888387 459.480031,163.280352 C459.480031,163.280352 457.420275,163.46885 456.897548,163.020572 C455.618186,161.923901 456.947708,160.768621 458.479985,161.662537 C459.074522,162.009438 459.480031,161.662537 459.480031,161.662537 L459.480031,154.327987 C459.480031,154.327987 461.480651,152.033268 465.2728,150.374269 C465.386849,150.324108 465.506179,150.277643 465.631317,150.234347 L465.749062,150.753906 C465.777047,150.875876 465.808199,150.997845 465.843048,151.118231 C465.909577,151.347914 465.988778,151.573901 466.080651,151.795136 C466.176748,152.025347 466.286046,152.250279 466.406959,152.468874 C466.493553,152.62358 466.585426,152.775118 466.683635,152.92296 C466.75386,153.029617 466.827253,153.133635 466.902758,153.236596 C467.432878,153.953102 468.088663,154.570871 468.803057,155.10099 C468.920274,155.188639 469.039604,155.273648 469.15999,155.356018 C469.317864,155.464259 469.47785,155.568805 469.639948,155.669654 C469.853263,155.802184 470.069746,155.928378 470.289925,156.049819 C470.574521,156.206109 470.864397,156.353951 471.157969,156.492817 C471.52863,156.668644 471.905628,156.83127 472.287377,156.981752 C472.527092,157.076794 472.768392,157.166555 473.010747,157.25262 C473.965912,157.716738 474.958038,158.0874 475.905283,158.379388 C477.861022,156.653332 480.302528,154.080352 481.439328,151.212744 C481.770388,151.275049 482.091945,151.336298 482.402941,151.395963 C482.411917,151.419195 482.420893,151.442427 482.430926,151.465132 C482.45363,151.519516 482.479502,151.572317 482.507487,151.623534 C482.529663,151.663134 482.552895,151.702207 482.57824,151.740223 C482.748258,152.000003 482.981109,152.213846 483.232969,152.392841 C483.276265,152.423465 483.32009,152.453033 483.364443,152.482074 C483.423579,152.520618 483.483772,152.557579 483.545021,152.593483 C483.627918,152.64206 483.711871,152.687997 483.797409,152.731821 C483.88981,152.77987 483.984323,152.825279 484.078836,152.869103 L484.078836,152.869103 Z M472.143759,135.834531 C472.049246,135.835059 471.954732,135.836643 471.860219,135.839811 C471.684921,135.846147 471.51015,135.857763 471.33538,135.875187 C470.92987,135.915316 470.527001,135.986069 470.133107,136.090614 C469.717565,136.20044 469.312584,136.348282 468.924498,136.532557 C468.666303,136.655054 468.416027,136.793392 468.174728,136.945458 C468.010518,137.049476 467.850003,137.159829 467.693713,137.276519 C467.585472,137.357832 467.478814,137.441785 467.374269,137.528378 C466.654067,138.126083 466.042106,138.845757 465.518323,139.619287 C465.43173,139.748121 465.347249,139.878011 465.26488,140.009485 C465.16139,140.174751 465.061597,140.342129 464.965499,140.511092 C464.847226,140.718599 464.734232,140.929274 464.624935,141.141533 L464.616487,141.158429 C465.326656,144.294264 466.020458,147.433796 466.747524,150.565935 C466.753332,150.590752 466.75914,150.614512 466.764948,150.6388 C466.788709,150.734898 466.815109,150.830467 466.844149,150.92498 C466.898006,151.099223 466.960839,151.270825 467.03212,151.439259 C467.102345,151.605582 467.181546,151.768736 467.267611,151.927666 C467.3315,152.044356 467.399085,152.159461 467.470366,152.271399 C467.853699,152.874383 468.342634,153.405031 468.883842,153.868621 C468.973075,153.945182 469.063892,154.020159 469.156294,154.093552 C469.259783,154.175393 469.365384,154.25565 469.472042,154.333795 C469.61302,154.436757 469.756638,154.536022 469.90184,154.63212 C470.095091,154.759897 470.292037,154.881339 470.492152,154.998029 C470.742428,155.143759 470.997455,155.281569 471.256179,155.411458 C471.590407,155.579893 471.9315,155.736183 472.276289,155.881385 C472.568277,156.004411 472.863433,156.119516 473.161229,156.228286 C473.314351,156.283727 473.468001,156.337583 473.622179,156.389856 L473.650164,156.39936 C474.180283,155.914121 474.692978,155.410402 475.183497,154.886091 C475.56683,154.476357 475.936436,154.053952 476.288616,153.61729 C476.554732,153.286229 476.811344,152.947248 477.054227,152.599291 C477.234806,152.34004 477.40852,152.076564 477.573258,151.806752 C477.698924,151.60083 477.819838,151.391211 477.934943,151.178424 C478.019424,151.021078 478.100738,150.862147 478.178355,150.701105 C478.244356,150.565407 478.307188,150.428125 478.366853,150.289787 C478.670985,149.586482 478.899085,148.846743 478.997822,148.085357 C479.010494,147.986619 479.021054,147.887882 479.029502,147.788617 C479.039535,147.667175 479.046399,147.545733 479.049567,147.424292 C479.053791,147.250049 479.050623,147.075807 479.039535,146.902092 C479.02739,146.71201 479.00627,146.522983 478.975646,146.335541 C478.960334,146.244195 478.942909,146.153378 478.923373,146.063089 L476.933313,136.835105 C476.557372,136.690431 476.177207,136.557373 475.792818,136.438043 C475.417404,136.321882 475.037239,136.218392 474.653906,136.130743 C474.087354,136.002437 473.512354,135.90898 472.93313,135.864099 C472.699223,135.845619 472.464259,135.836115 472.229296,135.834531 L472.143759,135.834531 L472.143759,135.834531 Z M494.373923,137.843071 C494.261986,137.95976 494.146352,138.072754 494.02755,138.182051 C493.783611,138.406455 493.524359,138.615017 493.252964,138.805628 C492.972592,139.002575 492.67902,139.180513 492.375416,139.338916 C492.158933,139.451909 491.937697,139.554871 491.71171,139.648328 C491.541164,139.719609 491.36745,139.784554 491.192679,139.844747 C491.064901,139.888571 490.936068,139.929228 490.806178,139.967772 C489.852597,140.248144 488.859415,140.376978 487.867289,140.399154 C487.705191,140.40285 487.543093,140.403906 487.380994,140.401794 C487.156063,140.399682 486.93166,140.391762 486.707257,140.379618 C486.415797,140.363778 486.124337,140.339489 485.834461,140.308865 C485.470664,140.27032 485.107923,140.220688 484.746766,140.161551 C484.277895,140.08499 483.811665,139.992061 483.348602,139.886459 L483.312698,139.878539 C483.312698,143.522318 483.271513,147.166096 483.313226,150.809347 C483.313226,150.820435 483.313754,150.831523 483.314282,150.842611 C483.317978,150.903332 483.327482,150.962997 483.34649,151.020022 C483.384507,151.134599 483.45526,151.234392 483.536573,151.322042 C483.592542,151.382235 483.653791,151.437147 483.718207,151.488364 C483.788432,151.544333 483.862353,151.596077 483.938387,151.644654 C483.996467,151.681615 484.055604,151.716991 484.115269,151.750784 C484.198166,151.797248 484.282647,151.841073 484.368184,151.883313 C484.481178,151.938754 484.596284,151.990499 484.712445,152.039604 C484.861343,152.102437 485.012353,152.161045 485.163892,152.217014 C485.364534,152.290935 485.567289,152.359576 485.770572,152.425577 C486.014511,152.505306 486.260035,152.580811 486.506086,152.654732 C486.833979,152.752942 487.162927,152.849039 487.49082,152.94672 C487.574773,152.971537 487.658726,152.996881 487.742679,153.022225 C488.295503,153.189076 488.845687,153.36279 489.385838,153.566601 C489.55216,153.628906 489.716371,153.694379 489.880053,153.76302 L489.892197,153.7683 C489.918069,153.732923 489.944998,153.698075 489.971398,153.663226 C489.995687,153.631018 490.019975,153.598809 490.044791,153.567129 C490.151977,153.428263 490.260746,153.290981 490.3711,153.154755 C490.594447,152.879135 490.823602,152.60774 491.053813,152.336872 C491.213799,152.148901 491.374842,151.960403 491.534828,151.771904 C491.756063,151.511068 491.976242,151.249177 492.191669,150.983589 C492.352711,150.78453 492.511641,150.583887 492.66582,150.379549 C492.785149,150.221674 492.901839,150.062216 493.01536,149.89959 C493.104066,149.772868 493.190659,149.644034 493.274612,149.514145 C493.343253,149.407487 493.41031,149.299774 493.474727,149.191004 C493.525943,149.105467 493.575048,149.018874 493.623625,148.931753 C493.920365,148.393713 494.162192,147.819241 494.290498,147.216257 C494.314786,147.100623 494.335379,146.984462 494.351219,146.867244 C494.370227,146.727322 494.382899,146.586872 494.389235,146.445894 C494.391348,146.388869 494.392932,146.331844 494.392932,146.27482 L494.392932,146.256867 L494.392932,137.823006 C494.386595,137.829343 494.380259,137.836207 494.373923,137.843071 L494.373923,137.843071 Z M477.071123,146.496055 C477.049475,146.631225 477.026243,146.765867 477.001426,146.900508 C476.994034,146.940637 476.986642,146.978653 476.97925,147.018782 C476.972914,147.051518 476.966578,147.084255 476.959714,147.116991 C476.954434,147.142336 476.948626,147.16768 476.942818,147.193024 C476.934369,147.231041 476.925921,147.269585 476.916945,147.307602 C476.848832,147.600118 476.772271,147.89105 476.684094,148.178286 C476.634461,148.338272 476.582189,148.497731 476.524636,148.655077 C476.5183,148.672501 476.511436,148.689925 476.504571,148.707349 C476.491899,148.739558 476.479227,148.771238 476.466027,148.803447 C476.427482,148.897432 476.387882,148.990889 476.346169,149.083819 C476.295481,149.196812 476.242152,149.30875 476.186183,149.419103 C476.167703,149.455008 476.149223,149.490912 476.130214,149.526817 C476.121766,149.542129 476.114374,149.557441 476.105398,149.572753 C476.039925,149.688915 475.970228,149.802437 475.897363,149.913846 C475.771697,150.105513 475.634943,150.289787 475.485517,150.463502 C475.475485,150.475118 475.463869,150.486734 475.453309,150.497822 C475.437997,150.51419 475.422684,150.530559 475.407372,150.546927 C475.360908,150.594976 475.313387,150.642496 475.26481,150.688433 C475.136504,150.810403 475.000807,150.924452 474.858245,151.028998 C474.786964,151.080742 474.714099,151.129847 474.63965,151.17684 L474.631729,151.181592 C474.526656,151.242313 474.418943,151.298281 474.308061,151.347914 C474.274797,151.363226 474.241004,151.377482 474.207212,151.391739 C474.193483,151.397547 474.180283,151.402827 474.166555,151.408107 C474.158635,151.411275 474.150715,151.414443 474.142795,151.417611 C474.033497,151.456684 473.922088,151.489948 473.809094,151.517404 C473.77319,151.526381 473.737813,151.534301 473.701381,151.542221 C473.694516,151.543277 473.687124,151.544861 473.68026,151.546445 C473.67234,151.548029 473.66442,151.549613 473.657028,151.551197 C473.548258,151.568621 473.438961,151.581293 473.329135,151.588157 C473.292175,151.590269 473.255742,151.592381 473.218782,151.593437 C473.20611,151.593965 473.186045,151.594493 473.173901,151.594493 C473.09998,151.593965 473.026059,151.591325 472.952666,151.586045 C472.893001,151.582349 472.833865,151.576541 472.775256,151.569677 C472.753079,151.567037 472.730903,151.563869 472.708727,151.560701 C472.700279,151.559645 472.691831,151.558589 472.68391,151.557533 C472.455283,151.517404 472.230352,151.454044 472.013341,151.373258 C471.93414,151.344218 471.856523,151.31201 471.779434,151.278745 L471.764122,151.271881 C471.578263,151.181592 471.399269,151.078102 471.22661,150.965109 C471.172754,150.929732 471.119425,150.8933 471.066624,150.856339 C471.04656,150.842083 471.027023,150.827827 471.006959,150.813571 C470.999567,150.807763 470.991647,150.802482 470.984255,150.796674 C470.939902,150.762354 470.89555,150.726449 470.851725,150.690545 C470.76038,150.615568 470.671675,150.537423 470.584553,150.457694 C470.533337,150.410701 470.483176,150.36318 470.433543,150.315132 C470.403975,150.286091 470.374406,150.257051 470.345366,150.227483 C470.33111,150.213226 470.31791,150.197914 470.304181,150.182602 C470.279893,150.15673 470.255605,150.129801 470.231844,150.103401 C470.158451,150.02156 470.08717,149.938663 470.016945,149.854181 C469.799934,149.592818 469.597708,149.31931 469.406569,149.038938 C469.400233,149.029962 469.394953,149.020986 469.389145,149.01201 C469.372249,148.986137 469.35588,148.959737 469.339512,148.933865 C469.294631,148.863112 469.250807,148.791831 469.206982,148.720022 C469.074452,148.500371 468.947203,148.277551 468.825233,148.052092 L468.816785,148.035724 C468.862193,148.068461 468.907602,148.101197 468.953539,148.133933 C468.989443,148.159806 469.025348,148.18515 469.061252,148.210495 C469.18375,148.296032 469.307304,148.379985 469.431913,148.461826 C469.541739,148.534163 469.653148,148.604916 469.765086,148.674085 C469.773534,148.678837 469.781454,148.684645 469.789902,148.689925 C469.814191,148.705765 469.838479,148.721606 469.863295,148.736918 C470.099315,148.8874 470.341142,149.03049 470.589305,149.16038 C470.711275,149.224797 470.835357,149.285517 470.960495,149.34307 L470.982143,149.352574 C470.995871,149.35891 471.009599,149.365775 471.023327,149.372639 C471.04392,149.382671 471.063984,149.392175 471.084576,149.402207 C471.111505,149.414879 471.138433,149.427023 471.165889,149.439696 C471.237698,149.472432 471.309507,149.503584 471.3829,149.533153 C471.468966,149.568529 471.556087,149.600738 471.643736,149.630834 C471.662744,149.638226 471.681225,149.64509 471.700233,149.651955 C471.802138,149.688915 471.9051,149.722708 472.009117,149.75122 C472.09835,149.775508 472.18864,149.796101 472.279457,149.812997 C472.289489,149.814581 472.299521,149.817221 472.309553,149.819333 C472.324337,149.823029 472.339122,149.825669 472.353906,149.828837 C472.433107,149.845205 472.512836,149.858405 472.593621,149.866854 C472.682326,149.876358 472.772088,149.880054 472.861321,149.87847 C472.878217,149.878998 472.894585,149.878998 472.910954,149.879526 C472.980123,149.879526 473.048764,149.876358 473.117404,149.868966 C473.132189,149.868438 473.146973,149.866854 473.161757,149.865798 C473.226174,149.859989 473.290591,149.850485 473.35448,149.837813 C473.368736,149.835701 473.382992,149.833589 473.397776,149.831477 C473.465361,149.819861 473.532418,149.805077 473.598419,149.786068 C473.613203,149.782372 473.628516,149.778676 473.6433,149.77498 C473.721445,149.754916 473.798006,149.729572 473.872455,149.699475 C473.886183,149.695251 473.899383,149.690499 473.912583,149.685747 C474.003929,149.653011 474.092634,149.613938 474.178699,149.569585 C474.289581,149.512561 474.39571,149.447616 474.498144,149.376863 C474.502368,149.373695 474.50712,149.371055 474.511872,149.368415 C474.525072,149.359438 474.5388,149.35099 474.552528,149.342014 C474.623281,149.295022 474.692978,149.245917 474.760563,149.1947 C474.899957,149.088571 475.031959,148.973465 475.159209,148.852551 C475.180329,148.833543 475.200921,148.814535 475.221514,148.795527 C475.416876,148.612836 475.600623,148.418001 475.774865,148.214719 C475.795458,148.191486 475.81605,148.168254 475.836642,148.145022 C476.151863,147.785977 476.440155,147.403699 476.709966,147.009278 C476.728975,146.982878 476.747983,146.955949 476.766991,146.929021 C476.812928,146.863548 476.858336,146.798075 476.903217,146.732602 C476.957602,146.652873 477.01093,146.573144 477.063731,146.492887 L477.074291,146.477047 C477.073235,146.483383 477.072179,146.489719 477.071123,146.496055 L477.071123,146.496055 Z M490.355788,148.393713 C490.403836,148.394241 490.451357,148.395297 490.498878,148.397409 L490.505742,148.397409 C490.677872,148.412721 490.848946,148.439122 491.016853,148.47925 C491.042725,148.485058 491.068597,148.491922 491.09447,148.498787 C491.103446,148.500899 491.11295,148.503539 491.121926,148.506179 C491.212215,148.533635 491.301977,148.564787 491.389626,148.600692 C491.495755,148.644517 491.599773,148.694677 491.699566,148.751702 C491.707486,148.756454 491.714878,148.761206 491.722798,148.765958 C491.736527,148.774934 491.749727,148.783382 491.763455,148.792359 C491.80992,148.822455 491.855328,148.854663 491.899153,148.888984 C492.062307,149.01465 492.208037,149.167244 492.310999,149.347294 C492.339511,149.396927 492.364327,149.448672 492.385448,149.502 C492.391784,149.518369 492.397592,149.535265 492.4034,149.551633 C492.405512,149.558497 492.408152,149.565889 492.410264,149.572225 C492.435608,149.659347 492.449865,149.74858 492.451449,149.839397 C492.451977,149.876886 492.450393,149.914374 492.446697,149.951863 C492.444056,149.975095 492.441416,149.998327 492.436136,150.02156 L492.436136,150.022088 L492.359047,150.17521 L492.238134,150.243323 L492.237078,150.243323 C492.237078,150.243323 492.237078,150.243323 492.23655,150.243323 L492.116692,150.186826 L492.017955,150.04268 C492.016371,150.038456 492.014787,150.03476 492.013203,150.031064 L492.012147,150.028424 L492.012147,150.030536 L492.009506,150.0242 L492.006866,150.017864 L492.007394,150.019976 L492.004226,150.01364 L492.001586,150.007303 L492.001586,150.009415 L491.998946,150.003079 L491.995778,149.996743 L491.996306,149.999383 L491.993138,149.993047 L491.98997,149.986711 L491.990498,149.989351 L491.98733,149.983015 L491.984162,149.977207 L491.98469,149.979847 L491.981522,149.973511 L491.977826,149.967703 L491.978354,149.970343 L491.975186,149.964535 L491.972018,149.958727 L491.972546,149.961367 L491.96885,149.955559 L491.965682,149.949751 L491.96621,149.952391 L491.962514,149.946583 L491.958818,149.941303 L491.959346,149.943943 L491.956178,149.938135 L491.952482,149.932854 L491.95301,149.935494 L491.949314,149.930214 L491.945618,149.924934 L491.946146,149.927574 L491.94245,149.922294 L491.938753,149.917014 L491.939281,149.919654 L491.935585,149.914374 L491.931889,149.909622 L491.932417,149.912262 L491.928721,149.906982 L491.924497,149.90223 L491.925553,149.90487 L491.921329,149.900118 L491.917105,149.894838 L491.918161,149.897478 L491.913937,149.892726 L491.909713,149.887974 L491.910769,149.890614 L491.906545,149.885862 L491.902321,149.881638 L491.903377,149.884278 L491.899153,149.879526 L491.894929,149.874774 L491.895985,149.877414 L491.891761,149.87319 L491.887009,149.868438 L491.888593,149.871078 L491.883841,149.866854 L491.879617,149.862629 L491.880673,149.865269 C491.876449,149.861045 491.876449,149.861045 491.871697,149.856821 L491.871697,149.856821 L491.872753,149.859461 L491.868529,149.854709 L491.863776,149.850485 L491.86536,149.853125 L491.860608,149.848901 L491.856384,149.845205 L491.857968,149.847317 L491.853216,149.843621 L491.848464,149.839397 L491.850048,149.842037 L491.845296,149.837813 L491.840544,149.834117 L491.842128,149.836757 L491.837376,149.832533 L491.832096,149.828837 L491.83368,149.830949 L491.828928,149.827253 L491.824176,149.823557 L491.82576,149.826197 L491.821008,149.822501 L491.815728,149.818277 L491.817312,149.820917 L491.81256,149.817221 L491.80728,149.813525 L491.808864,149.816165 L491.804112,149.812469 L491.798832,149.808773 L491.800416,149.811413 L491.795135,149.807717 L491.789855,149.804549 L491.791967,149.806661 L491.786687,149.803493 L491.781407,149.799797 L491.782991,149.801909 L491.777711,149.798741 C491.708014,149.764948 491.632509,149.743828 491.555948,149.731156 C491.535884,149.727988 491.51582,149.725348 491.495227,149.723236 C491.483083,149.721652 491.470939,149.720595 491.458267,149.720067 L491.444539,149.719011 C491.427114,149.717955 491.40969,149.716899 491.391738,149.716371 L491.36481,149.716371 L491.349497,149.716371 C491.336297,149.715843 491.323097,149.715315 491.309897,149.715315 C491.235976,149.715315 491.162583,149.720067 491.08919,149.729572 C491.063317,149.73274 491.037445,149.736964 491.011573,149.741188 C491.001012,149.742772 490.989924,149.745412 490.979892,149.746996 C490.964052,149.749108 490.964052,149.749108 490.948212,149.751748 C490.899107,149.760196 490.85053,149.7697 490.801954,149.780788 C490.736481,149.796629 490.671536,149.815637 490.607119,149.836757 C490.594447,149.840453 490.582303,149.843621 490.569631,149.847317 C490.518414,149.862101 490.467725,149.87847 490.417564,149.896422 C490.367404,149.914902 490.317243,149.934966 490.268138,149.956615 C490.255994,149.960839 490.244378,149.965591 490.232234,149.969815 C490.194217,149.984599 490.156201,149.999383 490.118712,150.015752 C490.105512,150.020504 490.092312,150.025256 490.079112,150.030008 C490.050599,150.041096 490.022087,150.052184 489.993575,150.0638 L489.98407,150.068024 C489.969814,150.072248 489.95503,150.077528 489.940774,150.082281 C489.92335,150.088617 489.92335,150.088617 489.905925,150.094953 C489.888501,150.101289 489.871077,150.107625 489.854181,150.114489 C489.842036,150.118713 489.829364,150.122409 489.81722,150.126633 C489.787124,150.137193 489.757027,150.148281 489.727459,150.159898 L489.719539,150.162538 C489.70053,150.168874 489.681522,150.174682 489.662514,150.181018 C489.644034,150.187354 489.625553,150.194218 489.607073,150.201082 C489.550576,150.221674 489.494608,150.244379 489.440223,150.269195 C489.423855,150.275531 489.407486,150.281339 489.391118,150.287675 C489.310333,150.320412 489.230604,150.356844 489.153515,150.397501 C489.138731,150.404365 489.123418,150.411757 489.108634,150.419149 C489.026793,150.459278 488.947064,150.50363 488.870503,150.552735 C488.855191,150.561711 488.839879,150.570687 488.824038,150.579663 C488.773878,150.610288 488.724773,150.641968 488.676724,150.675233 C488.564787,150.753378 488.459185,150.840499 488.360976,150.935012 C488.347776,150.947156 488.334047,150.959301 488.320847,150.971973 C488.265407,151.02319 488.212078,151.076518 488.160861,151.131431 C488.106476,151.19004 488.054732,151.251289 488.004571,151.313594 C488.001403,151.318346 487.997707,151.32257 487.994011,151.327322 L487.993483,151.32785 L487.858841,151.436091 L487.726839,151.454044 L487.725783,151.453516 L487.633382,151.355306 L487.599589,151.186872 C487.600645,151.149911 487.603285,151.113479 487.605925,151.077046 C487.610149,151.022662 487.615958,150.968277 487.622294,150.91442 C487.632326,150.836803 487.643942,150.759714 487.658726,150.683153 C487.666118,150.643552 487.674038,150.60448 487.683542,150.565407 C487.685126,150.558015 487.687239,150.550623 487.688823,150.543759 C487.693575,150.526335 487.698327,150.509438 487.703079,150.492542 C487.718919,150.436045 487.736343,150.380077 487.755351,150.324636 C487.79812,150.197914 487.848281,150.073832 487.904778,149.952919 C487.931706,149.895366 487.960218,149.838869 487.990315,149.7829 L487.993483,149.777092 C488.041531,149.695779 488.092748,149.61605 488.147133,149.538433 C488.182509,149.487744 488.21947,149.437584 488.258014,149.388479 L488.262767,149.382143 C488.336688,149.295022 488.414305,149.21054 488.495618,149.130283 C488.51885,149.107051 488.543138,149.083819 488.566899,149.061114 C488.575347,149.053722 488.583267,149.04633 488.591187,149.03841 C488.595411,149.034714 488.599635,149.03049 488.603859,149.027322 C488.687812,148.957625 488.773878,148.891624 488.863111,148.829319 C488.894263,148.807671 488.925944,148.786023 488.957624,148.76543 C488.962904,148.761734 488.990361,148.743782 488.999337,148.737974 C489.012537,148.730054 489.025737,148.722662 489.038937,148.71527 C489.057946,148.705237 489.076426,148.694677 489.094906,148.684645 C489.12289,148.669333 489.151403,148.654549 489.179387,148.639764 C489.189419,148.635012 489.199451,148.629204 489.209484,148.62498 C489.276013,148.594884 489.342541,148.566371 489.410126,148.539443 L489.423327,148.534691 C489.497248,148.509875 489.571697,148.487698 489.646674,148.467106 L489.655122,148.464994 C489.712147,148.452322 489.768643,148.440706 489.826196,148.430674 C489.845732,148.427506 489.865797,148.42381 489.885333,148.420641 C489.896421,148.419057 489.906981,148.416945 489.918069,148.415361 C490.005719,148.405857 490.093896,148.399521 490.181545,148.396353 C490.220618,148.394769 490.259162,148.394241 490.298235,148.393713 C490.327275,148.393185 490.327275,148.393185 490.355788,148.393713 L490.355788,148.393713 Z M487.806568,144.068277 C487.927482,144.10999 487.928538,144.111046 488.024635,144.195527 L488.10542,144.447914 C488.101196,144.533452 488.09486,144.619517 488.085884,144.705054 C488.077964,144.785311 488.067932,144.86504 488.055788,144.944769 C488.052092,144.968002 488.047868,144.991234 488.043643,145.014466 C488.036779,145.049315 488.029915,145.084691 488.022523,145.11954 C488.000875,145.220917 487.975003,145.321238 487.94385,145.419976 C487.930122,145.464328 487.91481,145.508153 487.898969,145.551978 C487.896329,145.558314 487.894217,145.564122 487.892105,145.570458 C487.858313,145.654411 487.821352,145.736252 487.779112,145.815981 C487.765384,145.840798 487.751655,145.865614 487.737399,145.889902 C487.723143,145.914191 487.707831,145.937951 487.691991,145.961183 C487.65767,146.012928 487.621238,146.062561 487.582165,146.110609 C487.559461,146.138066 487.5357,146.164994 487.511412,146.190867 C487.502436,146.200899 487.492404,146.209875 487.483428,146.219379 C487.470228,146.232051 487.457027,146.244723 487.443299,146.256867 C487.385218,146.310196 487.322913,146.359301 487.256913,146.403125 C487.24424,146.411574 487.23104,146.420022 487.21784,146.427942 C487.21256,146.43111 487.197776,146.439558 487.195136,146.441142 C487.174015,146.452758 487.152367,146.464374 487.130719,146.474934 C487.081614,146.499223 487.031453,146.520343 486.980237,146.538823 C486.953308,146.548327 486.92638,146.557304 486.898924,146.564696 C486.891003,146.566808 486.883611,146.568392 486.876219,146.570504 C486.864075,146.573144 486.852459,146.575784 486.840315,146.577896 C486.804938,146.585288 486.769034,146.591096 486.733129,146.595848 C486.65076,146.60588 486.566807,146.609576 486.48391,146.60588 C486.470182,146.605352 486.456453,146.604296 486.442725,146.602712 C486.424245,146.601128 486.406293,146.599016 486.387813,146.596904 C486.320756,146.587928 486.254227,146.575256 486.188754,146.558888 C486.142289,146.547271 486.096352,146.534071 486.050944,146.518759 C486.024543,146.510311 485.998671,146.500279 485.972799,146.489719 C485.918414,146.46807 485.865085,146.444838 485.812285,146.418966 C485.76054,146.394149 485.709851,146.367221 485.660218,146.338709 C485.639626,146.327092 485.619562,146.314948 485.599498,146.302276 C485.557785,146.276404 485.5166,146.249475 485.476472,146.222019 C485.440567,146.197203 485.405191,146.171858 485.370342,146.146514 C485.356086,146.135954 485.34183,146.125394 485.328102,146.114305 C485.294837,146.088433 485.262101,146.062033 485.229892,146.035104 C485.145411,145.963823 485.063042,145.889902 484.983313,145.813341 C484.953745,145.784301 484.924176,145.75526 484.895136,145.72622 C484.882464,145.713548 484.869791,145.700876 484.857119,145.687676 C484.800094,145.628011 484.744126,145.566762 484.689213,145.504985 L484.682877,145.497593 L484.673901,145.44268 L484.729342,145.436344 C484.753102,145.44796 484.776862,145.459048 484.800622,145.470137 C484.823855,145.481225 484.847087,145.491785 484.870847,145.502873 C484.900416,145.516073 484.929984,145.529273 484.959553,145.541946 C484.990177,145.555674 485.020802,145.569402 485.051426,145.582602 C485.108979,145.60689 485.166532,145.630123 485.224612,145.652299 C485.292197,145.678699 485.36031,145.702988 485.429479,145.725164 C485.459048,145.735196 485.489144,145.744172 485.51924,145.753148 C485.540361,145.760013 485.562009,145.766349 485.583657,145.772685 C485.619562,145.783245 485.656522,145.793277 485.692955,145.802781 C485.727803,145.811229 485.762652,145.819149 485.798028,145.826541 C485.817037,145.830766 485.836573,145.834462 485.855581,145.838158 C485.880397,145.842382 485.904686,145.847134 485.929502,145.851358 C485.979663,145.859278 486.030352,145.865614 486.08104,145.869838 C486.104273,145.871422 486.127505,145.873006 486.151265,145.873534 C486.161825,145.874062 486.172386,145.874062 486.182946,145.87459 C486.198786,145.87459 486.214626,145.875118 486.229938,145.875118 C486.270067,145.875118 486.309667,145.873534 486.349268,145.86931 C486.374612,145.86667 486.399429,145.862974 486.424245,145.858222 C486.430581,145.856638 486.437445,145.855582 486.444309,145.853998 C486.448005,145.852942 486.452229,145.851886 486.456453,145.851358 C486.477574,145.847134 486.498166,145.84291 486.518758,145.83763 C486.563111,145.825485 486.606408,145.809645 486.647064,145.788525 C486.6534,145.785885 486.659736,145.783245 486.6666,145.780077 C486.691945,145.768461 486.716233,145.755789 486.739993,145.740476 C486.748442,145.735196 486.75689,145.729388 486.765338,145.72358 C486.768506,145.721468 486.771146,145.719356 486.774314,145.717244 C486.781706,145.711964 486.789626,145.707212 486.797018,145.701932 C486.81233,145.691372 486.827115,145.679755 486.841371,145.668139 C486.856155,145.655467 486.870939,145.641739 486.884667,145.628011 C486.891531,145.621675 486.897868,145.614811 486.904732,145.607946 C486.912652,145.599498 486.9211,145.591578 486.92902,145.582602 C486.946972,145.563594 486.963868,145.544058 486.979709,145.523465 C486.998717,145.499177 487.016141,145.474361 487.033565,145.449016 C487.040958,145.437928 487.04835,145.42684 487.055742,145.415752 C487.073694,145.388295 487.090062,145.360311 487.105902,145.331799 C487.116991,145.31279 487.127023,145.293254 487.137055,145.273718 C487.141279,145.264742 487.145503,145.255766 487.150255,145.246789 C487.160287,145.226725 487.170319,145.206661 487.179823,145.186069 C487.19672,145.150164 487.21256,145.113204 487.227344,145.076243 C487.251632,145.014994 487.273809,144.953217 487.293873,144.890913 C487.304961,144.855536 487.314993,144.82016 487.325554,144.785311 C487.33717,144.744654 487.348786,144.704526 487.359346,144.663869 C487.385218,144.56566 487.406339,144.466923 487.425875,144.367657 L487.425875,144.367129 L487.564213,144.140614 L487.804984,144.068277 L487.806568,144.068277 L487.806568,144.068277 Z M469.059668,143.189145 C469.141509,143.190201 469.22335,143.193897 469.304664,143.201817 C469.400233,143.210793 469.495802,143.225049 469.590316,143.243002 C469.609852,143.247226 469.629388,143.25145 469.648396,143.255674 C469.680605,143.262538 469.712813,143.270458 469.745022,143.278378 C469.87544,143.312171 470.003745,143.353883 470.129411,143.402988 C470.136275,143.405628 470.143139,143.408268 470.150003,143.410908 L470.150531,143.411436 L470.31527,143.525486 C470.419815,143.688112 470.420871,143.690752 470.457304,143.880835 L470.416119,144.076725 L470.415591,144.078309 L470.301541,144.24252 C470.138915,144.347065 470.136275,144.348121 469.946192,144.384553 L469.750302,144.343897 C469.744494,144.341257 469.738686,144.338089 469.732878,144.335449 C469.720205,144.329641 469.707533,144.323833 469.694333,144.318025 C469.681133,144.311688 469.667933,144.30588 469.654732,144.300072 C469.598764,144.275784 469.541739,144.253608 469.484186,144.234071 C469.44617,144.220871 469.407097,144.209255 469.368552,144.198167 C469.302552,144.179159 469.235495,144.163318 469.16791,144.151174 C469.106661,144.140614 469.044884,144.132694 468.982579,144.127942 C468.961987,144.126358 468.941395,144.125302 468.920802,144.124246 C468.911826,144.123718 468.90285,144.123718 468.893874,144.12319 C468.833153,144.12055 468.772432,144.12055 468.711183,144.123718 C468.60611,144.128998 468.502092,144.143254 468.399131,144.164374 C468.386459,144.167014 468.373259,144.169126 468.360587,144.171767 C468.339466,144.175991 468.317818,144.180743 468.296698,144.185495 C468.254457,144.195527 468.212216,144.206615 468.170504,144.218231 C468.165224,144.219815 468.159416,144.221399 468.154136,144.222983 C468.136183,144.227735 468.118759,144.232487 468.100807,144.237767 C468.056982,144.25044 468.013158,144.264696 467.969333,144.27948 C467.950325,144.285288 467.931317,144.291096 467.912308,144.296904 C467.870068,144.310632 467.828355,144.324889 467.787171,144.340201 C467.772914,144.345481 467.758658,144.350761 467.74493,144.356041 L467.716418,144.367129 C467.697409,144.373993 467.678401,144.380857 467.658865,144.38825 C467.610288,144.40673 467.561711,144.426266 467.513663,144.446858 C467.494126,144.455306 467.474062,144.463755 467.454526,144.472731 C467.445022,144.476955 467.43499,144.481707 467.424958,144.485403 C467.404893,144.494379 467.384829,144.502827 467.364765,144.511803 C467.282924,144.548236 467.20161,144.58678 467.121353,144.627965 C467.02948,144.674958 466.938135,144.72459 466.848374,144.776335 C466.825141,144.789007 466.801909,144.802207 466.778677,144.815407 C466.703172,144.858176 466.628194,144.902001 466.554273,144.946881 C466.436528,145.01869 466.320894,145.093667 466.206317,145.170228 L466.197869,145.176036 C466.218461,145.142772 466.239581,145.109508 466.260701,145.076771 C466.29555,145.022386 466.331454,144.968002 466.367359,144.914145 C466.424384,144.829136 466.482992,144.745182 466.543185,144.662813 C466.565362,144.631661 466.588066,144.601036 466.61077,144.57094 C466.619746,144.558796 466.628722,144.546652 466.638227,144.534508 C466.736436,144.409898 466.839397,144.288984 466.947111,144.172295 C466.980375,144.13639 467.014168,144.100486 467.048488,144.065637 C467.068025,144.046101 467.087033,144.026037 467.107097,144.007028 C467.117657,143.996468 467.128745,143.986436 467.139834,143.975876 C467.166234,143.951587 467.193162,143.926771 467.220091,143.903011 C467.251771,143.875026 467.28398,143.847042 467.316188,143.820114 C467.329916,143.808497 467.344172,143.796881 467.357901,143.785793 C467.363181,143.781569 467.368461,143.776817 467.373741,143.773121 C467.406477,143.747777 467.439214,143.723488 467.472478,143.6992 C467.506799,143.674912 467.541119,143.651151 467.57544,143.627391 C467.590752,143.617359 467.605536,143.607855 467.62032,143.597823 C467.626128,143.594127 467.631936,143.59043 467.637744,143.586734 C467.687905,143.556638 467.739122,143.528126 467.790867,143.500669 C467.806707,143.492221 467.822547,143.483773 467.838387,143.475853 C467.850003,143.469517 467.862148,143.463181 467.874292,143.457373 C467.937125,143.427804 468.001542,143.400348 468.065958,143.374475 C468.088135,143.366027 468.110311,143.357579 468.133015,143.349131 C468.142519,143.345435 468.156776,143.340155 468.166808,143.336987 C468.229113,143.316395 468.291946,143.297386 468.355306,143.28049 C468.471996,143.249866 468.59027,143.226633 468.710127,143.210793 C468.74656,143.206041 468.782992,143.201817 468.819425,143.198649 C468.837377,143.197065 468.855857,143.194953 468.874338,143.193897 C468.892818,143.192841 468.911298,143.192313 468.929778,143.191257 C468.948259,143.190729 468.966739,143.190201 468.985219,143.189673 C469.010036,143.189145 469.034852,143.189145 469.059668,143.189145 L469.059668,143.189145 Z M490.778193,143.357579 C490.791922,143.369723 490.806178,143.380812 490.819906,143.392428 C490.836802,143.406156 490.853698,143.419884 490.870595,143.433084 C490.907555,143.462125 490.945044,143.490109 490.98306,143.517037 C491.008933,143.535518 491.035333,143.552942 491.061205,143.570366 C491.082854,143.584622 491.104502,143.598879 491.12615,143.613135 C491.175783,143.644287 491.227,143.673856 491.278744,143.701312 C491.308841,143.717152 491.339465,143.731936 491.37009,143.746193 C491.386986,143.754113 491.40441,143.760977 491.421306,143.768897 C491.456683,143.784737 491.492587,143.799521 491.529548,143.81325 C491.549084,143.820642 491.56862,143.827506 491.588685,143.833842 C491.596077,143.836482 491.603469,143.838594 491.611389,143.841234 C491.645181,143.852322 491.679502,143.86341 491.71435,143.872386 C491.733359,143.877138 491.752895,143.881891 491.772431,143.885587 C491.780351,143.887699 491.788271,143.888755 491.796192,143.890867 C491.804112,143.892451 491.812032,143.894035 491.819952,143.896147 C491.832624,143.898787 491.845296,143.901427 491.857968,143.903539 C491.894929,143.910403 491.932417,143.915155 491.969378,143.918851 C491.979938,143.920435 491.990498,143.922019 492.001058,143.923075 C492.042771,143.927827 492.084484,143.930995 492.126196,143.932051 C492.136228,143.933107 492.14626,143.933635 492.156293,143.934691 C492.213317,143.938915 492.27087,143.939443 492.328423,143.935747 C492.340039,143.935747 492.351655,143.935747 492.363271,143.935219 C492.40868,143.933635 492.453561,143.929939 492.498441,143.923603 C492.514281,143.921491 492.530122,143.919379 492.545434,143.916739 C492.555466,143.914627 492.56497,143.913043 492.574474,143.910931 C492.589259,143.908819 492.603515,143.906179 492.618299,143.903539 C492.643643,143.898787 492.66846,143.893507 492.693804,143.887171 C492.728652,143.878722 492.763501,143.869218 492.797821,143.858658 C492.81419,143.853906 492.830558,143.848098 492.846926,143.842818 C492.857486,143.83965 492.868046,143.835954 492.878607,143.832786 C492.907119,143.823282 492.935103,143.812722 492.96256,143.802161 C493.01536,143.782097 493.067105,143.759393 493.118322,143.735104 C493.13997,143.725072 493.161618,143.715568 493.182739,143.705008 C493.219699,143.687056 493.255604,143.668576 493.291508,143.649039 C493.351173,143.616303 493.409782,143.581982 493.467335,143.54555 C493.498487,143.526014 493.528584,143.505949 493.559208,143.485885 C493.578744,143.472685 493.597752,143.460013 493.616761,143.44734 C493.655305,143.42094 493.693322,143.394012 493.730282,143.366555 L493.737146,143.361803 L493.792587,143.355995 L493.795755,143.411436 C493.776219,143.450509 493.755627,143.488525 493.735034,143.526014 C493.72025,143.55347 493.704938,143.580926 493.689098,143.607327 C493.648969,143.67544 493.606201,143.741969 493.56132,143.806913 C493.520135,143.86605 493.477367,143.923603 493.433014,143.9801 C493.411894,144.0065 493.390774,144.032373 493.368597,144.057717 C493.321077,144.11263 493.270916,144.164902 493.218643,144.215591 C493.196995,144.236711 493.175347,144.257304 493.152642,144.277368 C493.142082,144.286872 493.13205,144.296376 493.120962,144.305352 C493.068689,144.350233 493.014304,144.391946 492.958336,144.431546 C492.929823,144.45161 492.900783,144.471147 492.871742,144.489627 C492.854318,144.500715 492.836894,144.511803 492.81947,144.521835 C492.797293,144.535036 492.775117,144.546652 492.752413,144.558268 C492.712284,144.579388 492.671628,144.598924 492.630443,144.617405 C492.599291,144.631133 492.568138,144.643805 492.536986,144.655949 C492.526426,144.660173 492.515865,144.663869 492.505305,144.667565 C492.498969,144.670205 492.492633,144.672845 492.485769,144.674958 C492.460953,144.682878 492.43508,144.69027 492.409736,144.697134 C492.361687,144.710334 492.313639,144.721422 492.264534,144.730926 C492.242886,144.73515 492.221237,144.738846 492.199589,144.742014 C492.194309,144.74307 492.172133,144.746767 492.166853,144.747295 C492.123556,144.750991 492.080259,144.753631 492.036963,144.754687 C491.998946,144.755743 491.96093,144.755743 491.922913,144.754687 L491.907073,144.754159 C491.890705,144.753631 491.874865,144.751519 491.858496,144.750463 C491.832096,144.747823 491.805168,144.744654 491.778767,144.740958 C491.741807,144.736206 491.704846,144.72987 491.667886,144.723006 C491.649405,144.71931 491.631453,144.716142 491.612973,144.711918 C491.595021,144.707694 491.577068,144.702942 491.558588,144.69819 C491.527964,144.689742 491.497339,144.680766 491.467243,144.671261 C491.418138,144.655949 491.37009,144.639053 491.322569,144.620045 C491.310953,144.615821 491.299865,144.610541 491.288776,144.605789 C491.26924,144.597868 491.250232,144.588892 491.230696,144.580444 C491.168919,144.551932 491.108726,144.520779 491.049589,144.487515 C491.040085,144.481707 491.030581,144.475899 491.021077,144.470619 C491.003125,144.459531 490.985172,144.448442 490.967748,144.437354 C490.905443,144.397754 490.844722,144.355513 490.786114,144.31116 C490.743873,144.278952 490.702688,144.246216 490.66256,144.212423 C490.640911,144.193943 490.618735,144.175463 490.597615,144.156454 C490.560126,144.122134 490.523166,144.086757 490.487261,144.050853 C490.423372,143.986964 490.361596,143.920435 490.302459,143.851794 L490.292955,143.840178 L490.292427,143.83965 L490.202137,143.589902 L490.294539,143.356523 L490.295595,143.355467 L490.528446,143.266234 C490.611871,143.296858 490.695296,143.326955 490.778193,143.357579 L490.778193,143.357579 Z M475.56947,141.52909 C475.590591,141.529618 475.611183,141.529618 475.632303,141.530674 C475.638111,141.530674 475.64392,141.531202 475.649728,141.53173 C475.660816,141.532258 475.671376,141.532786 475.681936,141.533842 C475.714144,141.536482 475.746353,141.539122 475.778561,141.542818 C475.841394,141.549682 475.904227,141.558658 475.96706,141.569746 C475.973396,141.570802 475.979204,141.572386 475.98554,141.573443 C476.00138,141.576611 476.017749,141.580307 476.033589,141.583475 C476.075829,141.592979 476.11807,141.603011 476.159783,141.614099 C476.255352,141.638915 476.349865,141.667428 476.443323,141.699636 C476.490843,141.715476 476.537836,141.732901 476.584829,141.750325 L476.598029,141.755077 C476.816096,141.843782 477.027827,141.946744 477.235334,142.057625 L477.243782,142.062377 C477.207877,142.061849 477.172501,142.060265 477.136596,142.059209 C477.113364,142.058681 477.090132,142.058153 477.066371,142.058153 C476.99773,142.057097 476.929089,142.057097 476.85992,142.058153 C476.755375,142.059737 476.650301,142.063961 476.545756,142.071353 C476.52094,142.072937 476.495595,142.074521 476.470251,142.076105 C476.360953,142.083498 476.252184,142.095114 476.143942,142.11201 C476.10223,142.118346 476.060517,142.125738 476.019333,142.134186 C476.006133,142.137354 475.992404,142.139994 475.979204,142.142634 C475.973924,142.144218 475.968644,142.145274 475.963364,142.14633 C475.908451,142.157419 475.854066,142.169563 475.799682,142.184347 C475.779617,142.189627 475.759553,142.195435 475.738961,142.201771 C475.726817,142.205467 475.714672,142.209691 475.702528,142.213387 C475.679824,142.219723 475.65712,142.226588 475.634415,142.23398 C475.584783,142.250348 475.536206,142.2683 475.488685,142.288892 C475.476013,142.293644 475.463869,142.298397 475.451197,142.303149 C475.424268,142.314237 475.39734,142.325853 475.37094,142.337997 C475.356156,142.344861 475.341899,142.352253 475.327115,142.359645 C475.316027,142.364925 475.304939,142.370206 475.293851,142.375486 C475.272202,142.386574 475.250554,142.397662 475.228906,142.409806 C475.214122,142.418782 475.198809,142.42723 475.184025,142.436734 C475.175049,142.442015 475.165545,142.448351 475.156569,142.454159 C475.136504,142.466303 475.11644,142.478975 475.096904,142.492703 C475.059415,142.518048 475.022983,142.545504 474.988134,142.574544 C474.95223,142.604641 474.917381,142.636849 474.884645,142.670114 C474.866693,142.688066 474.849268,142.707074 474.832372,142.725554 C474.818644,142.740339 474.804916,142.755123 474.791716,142.770435 C474.762675,142.8037 474.735219,142.83802 474.708819,142.873397 C474.659186,142.939925 474.613777,143.009094 474.572065,143.080903 C474.54672,143.123144 474.52296,143.166441 474.499728,143.210265 C474.465935,143.275738 474.434255,143.342267 474.404686,143.41038 C474.402574,143.41566 474.399934,143.42094 474.397822,143.426748 L474.397294,143.427276 L474.275853,143.586206 C474.108474,143.68336 474.106362,143.684416 473.914696,143.711872 L473.720389,143.662767 L473.719333,143.661711 L473.559875,143.54027 C473.462721,143.372891 473.462193,143.370779 473.434737,143.179113 L473.483842,142.985334 C473.489122,142.974246 473.498098,142.958406 473.503906,142.947318 C473.517106,142.922501 473.530834,142.897685 473.54509,142.872869 C473.582051,142.80634 473.621123,142.741395 473.662308,142.676978 C473.691876,142.631041 473.721973,142.585105 473.754181,142.540752 C473.831798,142.43251 473.915752,142.329021 474.006569,142.231868 C474.044057,142.191739 474.08313,142.152667 474.123258,142.11465 C474.145963,142.093002 474.169195,142.071353 474.192955,142.051289 C474.303309,141.956776 474.421583,141.872295 474.547248,141.79943 C474.615889,141.759829 474.686114,141.723925 474.758451,141.691716 C474.763731,141.689076 474.768483,141.686964 474.773763,141.684852 C474.840292,141.657396 474.907877,141.632579 474.976518,141.611459 C475.005559,141.602483 475.034071,141.594035 475.063111,141.586643 C475.076312,141.583475 475.09004,141.580307 475.10324,141.577667 C475.135448,141.570274 475.167129,141.563938 475.199337,141.55813 C475.226266,141.553378 475.252666,141.549154 475.279594,141.54493 C475.293323,141.543346 475.307051,141.541234 475.320779,141.53965 C475.339259,141.537538 475.35774,141.536482 475.37622,141.534898 C475.418988,141.532258 475.462285,141.530674 475.505054,141.529618 C475.526702,141.52909 475.547822,141.52909 475.56947,141.52909 L475.56947,141.52909 Z M509.514005,117.485748 C509.675047,133.979641 532.011869,121.17652 532.011869,115.314054 L532.011869,106.825281 C532.011869,105.844243 531.537719,104.924454 530.738844,104.35579 C529.939968,103.786598 528.915106,103.639284 527.988453,103.960313 C526.976791,104.310382 526.172108,104.58917 526.172108,104.58917 C524.852618,109.118944 521.740015,115.856846 516.916668,112.696194 C514.248647,110.94849 515.90659,103.979321 520.681888,102.396883 C520.681888,102.396883 531.980717,98.485933 536.921809,96.7757172 C537.444009,96.5946107 538.021649,96.6775079 538.472039,96.9985363 C538.921901,97.3190368 539.189601,97.83754 539.189601,98.3903636 L539.189601,118.241855 C539.189601,119.107259 539.607783,119.918806 540.312672,120.420413 C541.017034,120.92202 541.920983,121.05191 542.738338,120.768898 L542.738338,120.768898 L514.133013,130.670619 C507.158037,133.085197 500.086434,130.562906 500.086434,120.749362 L500.086434,98.5535179 C500.086434,83.9525314 539.189601,71.7149057 539.189601,84.1156857 L539.189601,91.5880453 L529.860239,94.8173381 L529.860239,91.3166495 L529.860767,91.3166495 C531.103169,90.8863236 531.922636,89.6998911 531.885147,88.3856809 C531.859275,87.4891245 531.836043,86.660681 531.836043,86.660681 C531.61956,79.0879999 509.216209,85.5645378 509.309666,95.5692205 L509.514005,117.485748 Z M545.980831,119.602002 C546.254339,119.504848 548.658356,118.572916 550.355372,115.414904 C555.361409,106.099799 560.723851,114.498811 553.99915,116.826795 L545.980831,119.602002 C545.963935,119.608338 545.954959,119.610978 545.954959,119.610978 L545.980831,119.602002 Z" id="logo"></path>
        </g>
    </g>
</svg>