<?xml version="1.0" encoding="UTF-8" standalone="no"?>
<svg width="18px" height="14px" viewBox="0 0 18 14" version="1.1" xmlns="http://www.w3.org/2000/svg" xmlns:xlink="http://www.w3.org/1999/xlink">
    <!-- Generator: Sketch 39.1 (31720) - http://www.bohemiancoding.com/sketch -->
    <title>right_bracket</title>
    <desc>Created with Sketch.</desc>
    <defs></defs>
    <g id="Screen" stroke="none" stroke-width="1" fill="none" fill-rule="evenodd">
        <g id="Desktop-HD" transform="translate(-642.000000, -235.000000)" fill="#FFFFFF">
            <g id="Group" transform="translate(301.000000, 235.000000)">
                <path d="M356.36,-5.5067062e-14 L356.792,0.672 C353.815985,2.62400976 352.328,4.57599024 352.328,6.528 C352.328,7.52000496 352.759996,8.0959992 353.624,8.256 L355.64,6.384 C356.280003,6.60800112 356.863997,7.01599704 357.392,7.608 C357.920003,8.20000296 358.184,8.95999536 358.184,9.888 C358.184,10.8160046 357.816004,11.6079967 357.08,12.264 C356.343996,12.9200033 355.376006,13.248 354.176,13.248 C352.975994,13.248 351.984004,12.8400041 351.2,12.024 C350.415996,11.2079959 350.024,10.0800072 350.024,8.64 C350.024,5.50398432 352.135979,2.62401312 356.36,-5.5067062e-14 L356.36,-5.5067062e-14 Z M347.336,-5.68434189e-14 L347.768,0.672 C344.791985,2.62400976 343.304,4.57599024 343.304,6.528 C343.304,7.52000496 343.735996,8.0959992 344.6,8.256 L346.616,6.384 C347.256003,6.60800112 347.839997,7.01599704 348.368,7.608 C348.896003,8.20000296 349.16,8.95999536 349.16,9.888 C349.16,10.8160046 348.792004,11.6079967 348.056,12.264 C347.319996,12.9200033 346.352006,13.248 345.152,13.248 C343.951994,13.248 342.960004,12.8400041 342.176,12.024 C341.391996,11.2079959 341,10.0800072 341,8.64 C341,5.50398432 343.111979,2.62401312 347.336,-5.68434189e-14 L347.336,-5.68434189e-14 Z" id="right_bracket" transform="translate(349.592000, 6.624000) rotate(180.000000) translate(-349.592000, -6.624000) "></path>
            </g>
        </g>
    </g>
</svg>